<svg xmlns="http://www.w3.org/2000/svg" width="1440" height="371" id="graph-svg" style="background: white; font-family: Arial; font-size: 20px;"><g id="graph-g" transform="translate(-50.41506895049781,103.7214745975873) scale(0.7900413118634055)"><svg id="token-0" width="136.9836015701294" height="70" y="100" style="overflow: visible; cursor: pointer;" x="200"><line x1="68.4918007850647" y1="30" x2="68.4918007850647" y2="40" class="pos-edge" style="stroke: rgb(72, 72, 72); stroke-width: 3;"/><svg x="115.8587875366211" width="21.1248140335083" height="30" style="overflow: visible;"><path d="M0,0h16.1248140335083a5,5 0 0 1 5,5v20a5,5 0 0 1 -5,5h-16.1248140335083z" class="tokenNum" style="fill: rgb(175, 162, 255); stroke: rgb(0, 0, 0); stroke-width: 2px;"/><text class="tokenNum-label" x="50%" y="50%" text-anchor="middle" dominant-baseline="central">1</text></svg><svg width="115.8587875366211" height="30" id="group-0" class="token" subId="0" style="overflow: visible;"><path d="M115.8587875366211,0h-110.8587875366211a5,5 1 0 0 -5,5v20a5,5 1 0 0 5,5h110.8587875366211z" id="form-0" attr="form" subId="0" class="form" num="1" style="fill: rgb(127, 161, 255); stroke: rgb(0, 0, 0); stroke-width: 2px;"/><text x="50%" y="50%" text-anchor="middle" dominant-baseline="central" id="text-form-0" class="form-label">ателевизор</text></svg><svg x="34.04812479019165" y="40" width="68.8873519897461" height="30" style="overflow: visible;"><rect width="68.8873519897461" height="30" id="pos-0" class="pos" attr="upostag" subId="0" rx="5" ry="5" style="fill: rgb(175, 162, 255); stroke: rgb(0, 0, 0); stroke-width: 2px;"/><text x="50%" y="50%" class="pos-label" id="text-pos-0" text-anchor="middle" dominant-baseline="central">NOUN</text></svg></svg><svg id="token-1" width="121.65607929229736" height="70" y="100" style="overflow: visible; cursor: pointer;" x="366.9836015701294"><line x1="60.82803964614868" y1="30" x2="60.82803964614868" y2="40" class="pos-edge" style="stroke: rgb(72, 72, 72); stroke-width: 3;"/><svg x="100.53126525878906" width="21.1248140335083" height="30" style="overflow: visible;"><path d="M0,0h16.1248140335083a5,5 0 0 1 5,5v20a5,5 0 0 1 -5,5h-16.1248140335083z" class="tokenNum" style="fill: rgb(175, 162, 255); stroke: rgb(0, 0, 0); stroke-width: 2px;"/><text class="tokenNum-label" x="50%" y="50%" text-anchor="middle" dominant-baseline="central">2</text></svg><svg width="100.53126525878906" height="30" id="group-1" class="token" subId="1" style="overflow: visible;"><path d="M100.53126525878906,0h-95.53126525878906a5,5 1 0 0 -5,5v20a5,5 1 0 0 5,5h95.53126525878906z" id="form-1" attr="form" subId="1" class="form" num="2" style="fill: rgb(127, 161, 255); stroke: rgb(0, 0, 0); stroke-width: 2px;"/><text x="50%" y="50%" text-anchor="middle" dominant-baseline="central" id="text-form-1" class="form-label">йызгазгьи</text></svg><svg x="28.594494342803955" y="40" width="64.46709060668945" height="30" style="overflow: visible;"><rect width="64.46709060668945" height="30" id="pos-1" class="pos" attr="upostag" subId="1" rx="5" ry="5" style="fill: rgb(175, 162, 255); stroke: rgb(0, 0, 0); stroke-width: 2px;"/><text x="50%" y="50%" class="pos-label" id="text-pos-1" text-anchor="middle" dominant-baseline="central">VERB</text></svg></svg><svg id="token-2" width="107.81187152862549" height="70" y="100" style="overflow: visible; cursor: pointer;" x="518.6396808624268"><line x1="53.905935764312744" y1="30" x2="53.905935764312744" y2="40" class="pos-edge" style="stroke: rgb(72, 72, 72); stroke-width: 3;"/><svg x="86.68705749511719" width="21.1248140335083" height="30" style="overflow: visible;"><path d="M0,0h16.1248140335083a5,5 0 0 1 5,5v20a5,5 0 0 1 -5,5h-16.1248140335083z" class="tokenNum root" style="fill: rgb(175, 162, 255); stroke: rgb(0, 0, 0); stroke-width: 4px;"/><text class="tokenNum-label root" x="50%" y="50%" text-anchor="middle" dominant-baseline="central" style="font-weight: 700;">3</text></svg><svg width="86.68705749511719" height="30" id="group-2" class="token" subId="2" style="overflow: visible;"><path d="M86.68705749511719,0h-81.68705749511719a5,5 1 0 0 -5,5v20a5,5 1 0 0 5,5h81.68705749511719z" id="form-2" attr="form" subId="2" class="form root" num="3" style="fill: rgb(127, 161, 255); stroke: rgb(0, 0, 0); stroke-width: 4px;"/><text x="50%" y="50%" text-anchor="middle" dominant-baseline="central" id="text-form-2" class="form-label root" style="font-weight: 700;">рыстатI</text></svg><svg x="21.672390460968018" y="40" width="64.46709060668945" height="30" style="overflow: visible;"><rect width="64.46709060668945" height="30" id="pos-2" class="pos" attr="upostag" subId="2" rx="5" ry="5" style="fill: rgb(175, 162, 255); stroke: rgb(0, 0, 0); stroke-width: 2px;"/><text x="50%" y="50%" class="pos-label" id="text-pos-2" text-anchor="middle" dominant-baseline="central">VERB</text></svg></svg><defs><marker id="end" viewBox="0 -5 10 10" refX="2" refY="2" markerWidth="15" markerHeight="15" orient="auto" style="fill: rgb(17, 17, 17);"><path d="M 1 1 L 3 2 L 1 3 Z"/></marker></defs><path class="dependency" attr="deprel" marker-end="url(#end)" d="M 556.5,100 L 546,35 C 535.5,-30 520.8,-30 506.09999999999997,-30 L 506.09999999999997,-30 438.00643157958984,-30M 386.49356842041016,-30 L 318.4,-30 C303.7,-30 289,-30 278.5,35 L268,94" id="dep_0_2" num="4" style="stroke-width: 4px; fill: none; stroke: rgb(17, 17, 17); opacity: 0.766;"/><path class="dependency" attr="deprel" marker-end="url(#end)" d="M 283,100 L 288.25,67.5 C 293.5,35 300.85,35 308.20000000000005,35 L 308.20000000000005,35 329.5522804260254,35M 379.9477195739746,35 L 401.29999999999995,35 C408.65,35 416,35 421.25,67.5 L426.5,94" id="dep_1_0" num="5" style="stroke-width: 4px; fill: none; stroke: rgb(17, 17, 17); opacity: 0.766;"/><line x1="571.5" y1="-62.5" x2="571.5" y2="93" class="root-deprel" marker-end="url(#end)" style="stroke: rgb(17, 17, 17); opacity: 0.766; stroke-width: 4px;"/><text id="text-dep_0_2" class="deprel-label" transform="translate(412.25,-30)" y="-1" text-anchor="middle" dominant-baseline="central" style="cursor: pointer; text-shadow: rgb(255, 255, 255) 1px 1px 5px;">⊲obj</text><text id="text-dep_1_0" class="deprel-label" transform="translate(354.75,35)" y="-1" text-anchor="middle" dominant-baseline="central" style="cursor: pointer; text-shadow: rgb(255, 255, 255) 1px 1px 5px;">acl⊳</text><text x="571.5" y="-73.5" class="root-deprel-label" text-anchor="middle" dominant-baseline="central" style="text-shadow: rgb(255, 255, 255) 1px 1px 5px;">ROOT</text></g></svg>