<svg xmlns="http://www.w3.org/2000/svg" width="1440" height="314" id="graph-svg" style="background: white; font-family: Arial; font-size: 20px;"><g id="graph-g" transform="translate(-26.292566379803247,107.73378424038481) scale(0.7536674547792142)"><svg id="token-0" width="73.34332084655762" height="70" y="100" style="overflow: visible; cursor: pointer;" x="200"><line x1="36.67166042327881" y1="30" x2="36.67166042327881" y2="40" class="pos-edge" style="stroke: rgb(72, 72, 72); stroke-width: 3;"/><svg x="52.22062683105469" width="21.12269401550293" height="30" style="overflow: visible;"><path d="M0,0h16.12269401550293a5,5 0 0 1 5,5v20a5,5 0 0 1 -5,5h-16.12269401550293z" class="tokenNum" style="fill: rgb(175, 162, 255); stroke: rgb(0, 0, 0); stroke-width: 2px;"/><text class="tokenNum-label" x="50%" y="50%" text-anchor="middle" dominant-baseline="central">1</text></svg><svg width="52.22062683105469" height="30" id="group-0" class="token" subId="0" style="overflow: visible;"><path d="M52.22062683105469,0h-47.22062683105469a5,5 1 0 0 -5,5v20a5,5 1 0 0 5,5h47.22062683105469z" id="form-0" attr="form" subId="0" class="form" num="1" style="fill: rgb(127, 161, 255); stroke: rgb(0, 0, 0); stroke-width: 2px;"/><text x="50%" y="50%" text-anchor="middle" dominant-baseline="central" id="text-form-0" class="form-label">ахча</text></svg><svg x="2.232285499572754" y="40" width="68.87874984741211" height="30" style="overflow: visible;"><rect width="68.87874984741211" height="30" id="pos-0" class="pos" attr="upostag" subId="0" rx="5" ry="5" style="fill: rgb(175, 162, 255); stroke: rgb(0, 0, 0); stroke-width: 2px;"/><text x="50%" y="50%" class="pos-label" id="text-pos-0" text-anchor="middle" dominant-baseline="central">NOUN</text></svg></svg><svg id="token-1" width="121.89755821228027" height="70" y="100" style="overflow: visible; cursor: pointer;" x="303.3433208465576"><line x1="60.94877910614014" y1="30" x2="60.94877910614014" y2="40" class="pos-edge" style="stroke: rgb(72, 72, 72); stroke-width: 3;"/><svg x="100.77486419677734" width="21.12269401550293" height="30" style="overflow: visible;"><path d="M0,0h16.12269401550293a5,5 0 0 1 5,5v20a5,5 0 0 1 -5,5h-16.12269401550293z" class="tokenNum" style="fill: rgb(175, 162, 255); stroke: rgb(0, 0, 0); stroke-width: 2px;"/><text class="tokenNum-label" x="50%" y="50%" text-anchor="middle" dominant-baseline="central">2</text></svg><svg width="100.77486419677734" height="30" id="group-1" class="token" subId="1" style="overflow: visible;"><path d="M100.77486419677734,0h-95.77486419677734a5,5 1 0 0 -5,5v20a5,5 1 0 0 5,5h95.77486419677734z" id="form-1" attr="form" subId="1" class="form" num="2" style="fill: rgb(127, 161, 255); stroke: rgb(0, 0, 0); stroke-width: 2px;"/><text x="50%" y="50%" text-anchor="middle" dominant-baseline="central" id="text-form-1" class="form-label">хвабыжта</text></svg><svg x="35.38786220550537" y="40" width="51.12183380126953" height="30" style="overflow: visible;"><rect width="51.12183380126953" height="30" id="pos-1" class="pos" attr="upostag" subId="1" rx="5" ry="5" style="fill: rgb(175, 162, 255); stroke: rgb(0, 0, 0); stroke-width: 2px;"/><text x="50%" y="50%" class="pos-label" id="text-pos-1" text-anchor="middle" dominant-baseline="central">ADV</text></svg></svg><svg id="token-2" width="153.72110557556152" height="70" y="100" style="overflow: visible; cursor: pointer;" x="455.2408790588379"><line x1="76.86055278778076" y1="30" x2="76.86055278778076" y2="40" class="pos-edge" style="stroke: rgb(72, 72, 72); stroke-width: 3;"/><svg x="132.5984115600586" width="21.12269401550293" height="30" style="overflow: visible;"><path d="M0,0h16.12269401550293a5,5 0 0 1 5,5v20a5,5 0 0 1 -5,5h-16.12269401550293z" class="tokenNum root" style="fill: rgb(175, 162, 255); stroke: rgb(0, 0, 0); stroke-width: 4px;"/><text class="tokenNum-label root" x="50%" y="50%" text-anchor="middle" dominant-baseline="central" style="font-weight: 700;">3</text></svg><svg width="132.5984115600586" height="30" id="group-2" class="token" subId="2" style="overflow: visible;"><path d="M132.5984115600586,0h-127.5984115600586a5,5 1 0 0 -5,5v20a5,5 1 0 0 5,5h127.5984115600586z" id="form-2" attr="form" subId="2" class="form root" num="3" style="fill: rgb(127, 161, 255); stroke: rgb(0, 0, 0); stroke-width: 4px;"/><text x="50%" y="50%" text-anchor="middle" dominant-baseline="central" id="text-form-2" class="form-label root" style="font-weight: 700;">йгIакIарпсун</text></svg><svg x="44.63431262969971" y="40" width="64.45248031616211" height="30" style="overflow: visible;"><rect width="64.45248031616211" height="30" id="pos-2" class="pos" attr="upostag" subId="2" rx="5" ry="5" style="fill: rgb(175, 162, 255); stroke: rgb(0, 0, 0); stroke-width: 2px;"/><text x="50%" y="50%" class="pos-label" id="text-pos-2" text-anchor="middle" dominant-baseline="central">VERB</text></svg></svg><defs><marker id="end" viewBox="0 -5 10 10" refX="2" refY="2" markerWidth="15" markerHeight="15" orient="auto" style="fill: rgb(17, 17, 17);"><path d="M 1 1 L 3 2 L 1 3 Z"/></marker></defs><path class="dependency" attr="deprel" marker-end="url(#end)" d="M 516.5,100 L 506,35 C 495.5,-30 480.8,-30 466.1,-30 L 466.1,-30 402.25268745422363,-30M 350.74731254577637,-30 L 286.9,-30 C272.2,-30 257.5,-30 247,35 L236.5,94" id="dep_0_2" num="4" style="stroke-width: 4px; fill: none; stroke: rgb(17, 17, 17); opacity: 0.766;"/><path class="dependency" attr="deprel" marker-end="url(#end)" d="M 516.5,100 L 511.25,67.5 C 506,35 498.65,35 491.29999999999995,35 L 491.29999999999995,35 487.9825248718262,35M 392.0174751281738,35 L 388.70000000000005,35 C381.35,35 374,35 368.75,67.5 L363.5,94" id="dep_1_2" num="5" style="stroke-width: 4px; fill: none; stroke: rgb(17, 17, 17); opacity: 0.766;"/><line x1="531.5" y1="-62.5" x2="531.5" y2="93" class="root-deprel" marker-end="url(#end)" style="stroke: rgb(17, 17, 17); opacity: 0.766; stroke-width: 4px;"/><text id="text-dep_0_2" class="deprel-label" transform="translate(376.5,-30)" y="-1" text-anchor="middle" dominant-baseline="central" style="cursor: pointer; text-shadow: rgb(255, 255, 255) 1px 1px 5px;">⊲obj</text><text id="text-dep_1_2" class="deprel-label" transform="translate(440,35)" y="-1" text-anchor="middle" dominant-baseline="central" style="cursor: pointer; text-shadow: rgb(255, 255, 255) 1px 1px 5px;">⊲advmod</text><text x="531.5" y="-73.5" class="root-deprel-label" text-anchor="middle" dominant-baseline="central" style="text-shadow: rgb(255, 255, 255) 1px 1px 5px;">ROOT</text></g></svg>