<svg xmlns="http://www.w3.org/2000/svg" width="1440" height="371" id="graph-svg" style="background: white; font-family: Arial; font-size: 20px;"><g id="graph-g" transform="translate(-71.41506895049781,91.7214745975873) scale(0.7900413118634055)"><svg id="token-0" width="103.08505725860596" height="70" y="100" style="overflow: visible; cursor: pointer;" x="175.369676208496"><line x1="51.54252862930298" y1="30" x2="51.54252862930298" y2="40" class="pos-edge" style="stroke: rgb(72, 72, 72); stroke-width: 3;"/><svg x="81.96024322509766" width="21.1248140335083" height="30" style="overflow: visible;"><path d="M0,0h16.1248140335083a5,5 0 0 1 5,5v20a5,5 0 0 1 -5,5h-16.1248140335083z" class="tokenNum" style="fill: rgb(175, 162, 255); stroke: rgb(0, 0, 0); stroke-width: 2px;"/><text class="tokenNum-label" x="50%" y="50%" text-anchor="middle" dominant-baseline="central">1</text></svg><svg width="81.96024322509766" height="30" id="group-0" class="token" subId="0" style="overflow: visible;"><path d="M81.96024322509766,0h-76.96024322509766a5,5 1 0 0 -5,5v20a5,5 1 0 0 5,5h76.96024322509766z" id="form-0" attr="form" subId="0" class="form" num="1" style="fill: rgb(127, 161, 255); stroke: rgb(0, 0, 0); stroke-width: 2px;"/><text x="50%" y="50%" text-anchor="middle" dominant-baseline="central" id="text-form-0" class="form-label">чвымла</text></svg><svg x="17.09885263442993" y="40" width="68.8873519897461" height="30" style="overflow: visible;"><rect width="68.8873519897461" height="30" id="pos-0" class="pos" attr="upostag" subId="0" rx="5" ry="5" style="fill: rgb(175, 162, 255); stroke: rgb(0, 0, 0); stroke-width: 2px;"/><text x="50%" y="50%" class="pos-label" id="text-pos-0" text-anchor="middle" dominant-baseline="central">NOUN</text></svg></svg><svg id="token-1" width="88.64752292633057" height="70" y="100" style="overflow: visible; cursor: pointer;" x="332.369676208496"><line x1="44.32376146316528" y1="30" x2="44.32376146316528" y2="40" class="pos-edge" style="stroke: rgb(72, 72, 72); stroke-width: 3;"/><svg x="67.52270889282227" width="21.1248140335083" height="30" style="overflow: visible;"><path d="M0,0h16.1248140335083a5,5 0 0 1 5,5v20a5,5 0 0 1 -5,5h-16.1248140335083z" class="tokenNum" style="fill: rgb(175, 162, 255); stroke: rgb(0, 0, 0); stroke-width: 2px;"/><text class="tokenNum-label" x="50%" y="50%" text-anchor="middle" dominant-baseline="central">2</text></svg><svg width="67.52270889282227" height="30" id="group-1" class="token" subId="1" style="overflow: visible;"><path d="M67.52270889282227,0h-62.522708892822266a5,5 1 0 0 -5,5v20a5,5 1 0 0 5,5h62.522708892822266z" id="form-1" attr="form" subId="1" class="form" num="2" style="fill: rgb(127, 161, 255); stroke: rgb(0, 0, 0); stroke-width: 2px;"/><text x="50%" y="50%" text-anchor="middle" dominant-baseline="central" id="text-form-1" class="form-label">ауыра</text></svg><svg x="20.431354999542236" y="40" width="47.784812927246094" height="30" style="overflow: visible;"><rect width="47.784812927246094" height="30" id="pos-1" class="pos" attr="upostag" subId="1" rx="5" ry="5" style="fill: rgb(175, 162, 255); stroke: rgb(0, 0, 0); stroke-width: 2px;"/><text x="50%" y="50%" class="pos-label" id="text-pos-1" text-anchor="middle" dominant-baseline="central">ADJ</text></svg></svg><svg id="token-2" width="94.85764026641846" height="70" y="100" style="overflow: visible; cursor: pointer;" x="450.369676208496"><line x1="47.42882013320923" y1="30" x2="47.42882013320923" y2="40" class="pos-edge" style="stroke: rgb(72, 72, 72); stroke-width: 3;"/><svg x="73.73282623291016" width="21.1248140335083" height="30" style="overflow: visible;"><path d="M0,0h16.1248140335083a5,5 0 0 1 5,5v20a5,5 0 0 1 -5,5h-16.1248140335083z" class="tokenNum" style="fill: rgb(175, 162, 255); stroke: rgb(0, 0, 0); stroke-width: 2px;"/><text class="tokenNum-label" x="50%" y="50%" text-anchor="middle" dominant-baseline="central">3</text></svg><svg width="73.73282623291016" height="30" id="group-2" class="token" subId="2" style="overflow: visible;"><path d="M73.73282623291016,0h-68.73282623291016a5,5 1 0 0 -5,5v20a5,5 1 0 0 5,5h68.73282623291016z" id="form-2" attr="form" subId="2" class="form" num="3" style="fill: rgb(127, 161, 255); stroke: rgb(0, 0, 0); stroke-width: 2px;"/><text x="50%" y="50%" text-anchor="middle" dominant-baseline="central" id="text-form-2" class="form-label">рчпауа</text></svg><svg x="15.195274829864502" y="40" width="64.46709060668945" height="30" style="overflow: visible;"><rect width="64.46709060668945" height="30" id="pos-2" class="pos" attr="upostag" subId="2" rx="5" ry="5" style="fill: rgb(175, 162, 255); stroke: rgb(0, 0, 0); stroke-width: 2px;"/><text x="50%" y="50%" class="pos-label" id="text-pos-2" text-anchor="middle" dominant-baseline="central">VERB</text></svg></svg><svg id="token-3" width="113.17155933380127" height="70" y="100" style="overflow: visible; cursor: pointer;" x="600.7502502441407"><line x1="56.585779666900635" y1="30" x2="56.585779666900635" y2="40" class="pos-edge" style="stroke: rgb(72, 72, 72); stroke-width: 3;"/><svg x="92.04674530029297" width="21.1248140335083" height="30" style="overflow: visible;"><path d="M0,0h16.1248140335083a5,5 0 0 1 5,5v20a5,5 0 0 1 -5,5h-16.1248140335083z" class="tokenNum root" style="fill: rgb(175, 162, 255); stroke: rgb(0, 0, 0); stroke-width: 4px;"/><text class="tokenNum-label root" x="50%" y="50%" text-anchor="middle" dominant-baseline="central" style="font-weight: 700;">4</text></svg><svg width="92.04674530029297" height="30" id="group-3" class="token" subId="3" style="overflow: visible;"><path d="M92.04674530029297,0h-87.04674530029297a5,5 1 0 0 -5,5v20a5,5 1 0 0 5,5h87.04674530029297z" id="form-3" attr="form" subId="3" class="form root" num="4" style="fill: rgb(127, 161, 255); stroke: rgb(0, 0, 0); stroke-width: 4px;"/><text x="50%" y="50%" text-anchor="middle" dominant-baseline="central" id="text-form-3" class="form-label root" style="font-weight: 700;">йалагатI</text></svg><svg x="24.352234363555908" y="40" width="64.46709060668945" height="30" style="overflow: visible;"><rect width="64.46709060668945" height="30" id="pos-3" class="pos" attr="upostag" subId="3" rx="5" ry="5" style="fill: rgb(175, 162, 255); stroke: rgb(0, 0, 0); stroke-width: 2px;"/><text x="50%" y="50%" class="pos-label" id="text-pos-3" text-anchor="middle" dominant-baseline="central">VERB</text></svg></svg><defs><marker id="end" viewBox="0 -5 10 10" refX="2" refY="2" markerWidth="15" markerHeight="15" orient="auto" style="fill: rgb(17, 17, 17);"><path d="M 1 1 L 3 2 L 1 3 Z"/></marker></defs><path class="dependency" attr="deprel" marker-end="url(#end)" d="M 482,100 L 471.5,35 C 461,-30 446.3,-30 431.6,-30 L 431.6,-30 380.00643157958984,-30M 328.49356842041016,-30 L 276.9,-30 C262.2,-30 247.5,-30 237,35 L226.5,94" id="dep_0_2" num="5" style="stroke-width: 4px; fill: none; stroke: rgb(17, 17, 17); opacity: 0.766;"/><path class="dependency" attr="deprel" marker-end="url(#end)" d="M 241.5,100 L 246.75,67.5 C 252,35 259.35,35 266.70000000000005,35 L 266.70000000000005,35 271.3248748779297,35M 346.1751251220703,35 L 350.79999999999995,35 C358.15,35 365.5,35 370.75,67.5 L376,94" id="dep_1_0" num="6" style="stroke-width: 4px; fill: none; stroke: rgb(17, 17, 17); opacity: 0.766;"/><path class="dependency" attr="deprel" marker-end="url(#end)" d="M 641.5,100 L 636.25,67.5 C 631,35 623.65,35 616.3,35 L 616.3,35 611.115161895752,35M 527.384838104248,35 L 522.2,35 C514.85,35 507.5,35 502.25,67.5 L497,94" id="dep_2_3" num="7" style="stroke-width: 4px; fill: none; stroke: rgb(17, 17, 17); opacity: 0.766;"/><line x1="656.5" y1="-62.5" x2="656.5" y2="93" class="root-deprel" marker-end="url(#end)" style="stroke: rgb(17, 17, 17); opacity: 0.766; stroke-width: 4px;"/><text id="text-dep_0_2" class="deprel-label" transform="translate(354.25,-30)" y="-1" text-anchor="middle" dominant-baseline="central" style="cursor: pointer; text-shadow: rgb(255, 255, 255) 1px 1px 5px;">⊲obj</text><text id="text-dep_1_0" class="deprel-label" transform="translate(308.75,35)" y="-1" text-anchor="middle" dominant-baseline="central" style="cursor: pointer; text-shadow: rgb(255, 255, 255) 1px 1px 5px;">amod⊳</text><text id="text-dep_2_3" class="deprel-label" transform="translate(569.25,35)" y="-1" text-anchor="middle" dominant-baseline="central" style="cursor: pointer; text-shadow: rgb(255, 255, 255) 1px 1px 5px;">⊲xcomp</text><text x="656.5" y="-73.5" class="root-deprel-label" text-anchor="middle" dominant-baseline="central" style="text-shadow: rgb(255, 255, 255) 1px 1px 5px;">ROOT</text></g></svg>