<svg xmlns="http://www.w3.org/2000/svg" width="1440" height="314" id="graph-svg" style="background: white; font-family: Arial; font-size: 20px;"><g id="graph-g" transform="translate(-96.29941601281428,54.79652000391488) scale(0.872967591133792)"><svg id="token-0" width="81.55369091033936" height="70" y="100" style="overflow: visible; cursor: pointer;" x="200"><line x1="40.77684545516968" y1="30" x2="40.77684545516968" y2="40" class="pos-edge" style="stroke: rgb(72, 72, 72); stroke-width: 3;"/><svg x="60.42963790893555" width="21.12405300140381" height="30" style="overflow: visible;"><path d="M0,0h16.12405300140381a5,5 0 0 1 5,5v20a5,5 0 0 1 -5,5h-16.12405300140381z" class="tokenNum root" style="fill: rgb(175, 162, 255); stroke: rgb(0, 0, 0); stroke-width: 4px;"/><text class="tokenNum-label root" x="50%" y="50%" text-anchor="middle" dominant-baseline="central" style="font-weight: 700;">1</text></svg><svg width="60.42963790893555" height="30" id="group-0" class="token" subId="0" style="overflow: visible;"><path d="M60.42963790893555,0h-55.42963790893555a5,5 1 0 0 -5,5v20a5,5 1 0 0 5,5h55.42963790893555z" id="form-0" attr="form" subId="0" class="form root" num="1" style="fill: rgb(127, 161, 255); stroke: rgb(0, 0, 0); stroke-width: 4px;"/><text x="50%" y="50%" text-anchor="middle" dominant-baseline="central" id="text-form-0" class="form-label root" style="font-weight: 700;">aχč’a</text></svg><svg x="6.337928295135498" y="40" width="68.87783432006836" height="30" style="overflow: visible;"><rect width="68.87783432006836" height="30" id="pos-0" class="pos" attr="upostag" subId="0" rx="5" ry="5" style="fill: rgb(175, 162, 255); stroke: rgb(0, 0, 0); stroke-width: 2px;"/><text x="50%" y="50%" class="pos-label" id="text-pos-0" text-anchor="middle" dominant-baseline="central">NOUN</text></svg></svg><svg id="token-1" width="90.04663372039795" height="70" y="100" style="overflow: visible; cursor: pointer;" x="337.96111526489267"><line x1="45.023316860198975" y1="30" x2="45.023316860198975" y2="40" class="pos-edge" style="stroke: rgb(72, 72, 72); stroke-width: 3;"/><svg x="68.92258071899414" width="21.12405300140381" height="30" style="overflow: visible;"><path d="M0,0h16.12405300140381a5,5 0 0 1 5,5v20a5,5 0 0 1 -5,5h-16.12405300140381z" class="tokenNum" style="fill: rgb(175, 162, 255); stroke: rgb(0, 0, 0); stroke-width: 2px;"/><text class="tokenNum-label" x="50%" y="50%" text-anchor="middle" dominant-baseline="central">2</text></svg><svg width="68.92258071899414" height="30" id="group-1" class="token" subId="1" style="overflow: visible;"><path d="M68.92258071899414,0h-63.92258071899414a5,5 1 0 0 -5,5v20a5,5 1 0 0 5,5h63.92258071899414z" id="form-1" attr="form" subId="1" class="form" num="2" style="fill: rgb(127, 161, 255); stroke: rgb(0, 0, 0); stroke-width: 2px;"/><text x="50%" y="50%" text-anchor="middle" dominant-baseline="central" id="text-form-1" class="form-label">aqazla</text></svg><svg x="19.46663808822632" y="40" width="51.11335754394531" height="30" style="overflow: visible;"><rect width="51.11335754394531" height="30" id="pos-1" class="pos" attr="upostag" subId="1" rx="5" ry="5" style="fill: rgb(175, 162, 255); stroke: rgb(0, 0, 0); stroke-width: 2px;"/><text x="50%" y="50%" class="pos-label" id="text-pos-1" text-anchor="middle" dominant-baseline="central">ADP</text></svg></svg><defs><marker id="end" viewBox="0 -5 10 10" refX="2" refY="2" markerWidth="15" markerHeight="15" orient="auto" style="fill: rgb(17, 17, 17);"><path d="M 1 1 L 3 2 L 1 3 Z"/></marker></defs><path class="dependency" attr="deprel" marker-end="url(#end)" d="M 255.5,100 L 260.75,67.5 C 266,35 273.35,35 280.70000000000005,35 L 280.70000000000005,35 285.2194423675537,35M 352.2805576324463,35 L 356.79999999999995,35 C364.15,35 371.5,35 376.75,67.5 L382,94" id="dep_1_0" num="3" style="stroke-width: 4px; fill: none; stroke: rgb(17, 17, 17); opacity: 0.766;"/><line x1="240.5" y1="2.5" x2="240.5" y2="93" class="root-deprel" marker-end="url(#end)" style="stroke: rgb(17, 17, 17); opacity: 0.766; stroke-width: 4px;"/><text id="text-dep_1_0" class="deprel-label" transform="translate(318.75,35)" y="-1" text-anchor="middle" dominant-baseline="central" style="cursor: pointer; text-shadow: rgb(255, 255, 255) 1px 1px 5px;">case⊳</text><text x="240.5" y="-8.5" class="root-deprel-label" text-anchor="middle" dominant-baseline="central" style="text-shadow: rgb(255, 255, 255) 1px 1px 5px;">ROOT</text></g></svg>