<svg xmlns="http://www.w3.org/2000/svg" width="1440" height="314" id="graph-svg" style="background: white; font-family: Arial; font-size: 20px;"><g id="graph-g" transform="translate(-95.29941601281428,101.79652000391488) scale(0.872967591133792)"><svg id="token-0" width="63.07326412200928" height="70" y="100" style="overflow: visible; cursor: pointer;" x="202.90228509902954"><line x1="31.53663206100464" y1="30" x2="31.53663206100464" y2="40" class="pos-edge" style="stroke: rgb(72, 72, 72); stroke-width: 3;"/><svg x="41.94921112060547" width="21.12405300140381" height="30" style="overflow: visible;"><path d="M0,0h16.12405300140381a5,5 0 0 1 5,5v20a5,5 0 0 1 -5,5h-16.12405300140381z" class="tokenNum" style="fill: rgb(175, 162, 255); stroke: rgb(0, 0, 0); stroke-width: 2px;"/><text class="tokenNum-label" x="50%" y="50%" text-anchor="middle" dominant-baseline="central">1</text></svg><svg width="41.94921112060547" height="30" id="group-0" class="token" subId="0" style="overflow: visible;"><path d="M41.94921112060547,0h-36.94921112060547a5,5 1 0 0 -5,5v20a5,5 1 0 0 5,5h36.94921112060547z" id="form-0" attr="form" subId="0" class="form" num="1" style="fill: rgb(127, 161, 255); stroke: rgb(0, 0, 0); stroke-width: 2px;"/><text x="50%" y="50%" text-anchor="middle" dominant-baseline="central" id="text-form-0" class="form-label">cпа</text></svg><svg x="-2.902285099029541" y="40" width="68.87783432006836" height="30" style="overflow: visible;"><rect width="68.87783432006836" height="30" id="pos-0" class="pos" attr="upostag" subId="0" rx="5" ry="5" style="fill: rgb(175, 162, 255); stroke: rgb(0, 0, 0); stroke-width: 2px;"/><text x="50%" y="50%" class="pos-label" id="text-pos-0" text-anchor="middle" dominant-baseline="central">NOUN</text></svg></svg><svg id="token-1" width="137.10236263275146" height="70" y="100" style="overflow: visible; cursor: pointer;" x="298.87783432006836"><line x1="68.55118131637573" y1="30" x2="68.55118131637573" y2="40" class="pos-edge" style="stroke: rgb(72, 72, 72); stroke-width: 3;"/><svg x="115.97830963134766" width="21.12405300140381" height="30" style="overflow: visible;"><path d="M0,0h16.12405300140381a5,5 0 0 1 5,5v20a5,5 0 0 1 -5,5h-16.12405300140381z" class="tokenNum" style="fill: rgb(175, 162, 255); stroke: rgb(0, 0, 0); stroke-width: 2px;"/><text class="tokenNum-label" x="50%" y="50%" text-anchor="middle" dominant-baseline="central">2</text></svg><svg width="115.97830963134766" height="30" id="group-1" class="token" subId="1" style="overflow: visible;"><path d="M115.97830963134766,0h-110.97830963134766a5,5 1 0 0 -5,5v20a5,5 1 0 0 5,5h110.97830963134766z" id="form-1" attr="form" subId="1" class="form" num="2" style="fill: rgb(127, 161, 255); stroke: rgb(0, 0, 0); stroke-width: 2px;"/><text x="50%" y="50%" text-anchor="middle" dominant-baseline="central" id="text-form-1" class="form-label">акъарчаква</text></svg><svg x="34.11226415634155" y="40" width="68.87783432006836" height="30" style="overflow: visible;"><rect width="68.87783432006836" height="30" id="pos-1" class="pos" attr="upostag" subId="1" rx="5" ry="5" style="fill: rgb(175, 162, 255); stroke: rgb(0, 0, 0); stroke-width: 2px;"/><text x="50%" y="50%" class="pos-label" id="text-pos-1" text-anchor="middle" dominant-baseline="central">NOUN</text></svg></svg><svg id="token-2" width="119.13204860687256" height="70" y="100" style="overflow: visible; cursor: pointer;" x="465.9801969528198"><line x1="59.56602430343628" y1="30" x2="59.56602430343628" y2="40" class="pos-edge" style="stroke: rgb(72, 72, 72); stroke-width: 3;"/><svg x="98.00799560546875" width="21.12405300140381" height="30" style="overflow: visible;"><path d="M0,0h16.12405300140381a5,5 0 0 1 5,5v20a5,5 0 0 1 -5,5h-16.12405300140381z" class="tokenNum root" style="fill: rgb(175, 162, 255); stroke: rgb(0, 0, 0); stroke-width: 4px;"/><text class="tokenNum-label root" x="50%" y="50%" text-anchor="middle" dominant-baseline="central" style="font-weight: 700;">3</text></svg><svg width="98.00799560546875" height="30" id="group-2" class="token" subId="2" style="overflow: visible;"><path d="M98.00799560546875,0h-93.00799560546875a5,5 1 0 0 -5,5v20a5,5 1 0 0 5,5h93.00799560546875z" id="form-2" attr="form" subId="2" class="form root" num="3" style="fill: rgb(127, 161, 255); stroke: rgb(0, 0, 0); stroke-width: 4px;"/><text x="50%" y="50%" text-anchor="middle" dominant-baseline="central" id="text-form-2" class="form-label root" style="font-weight: 700;">дырщын</text></svg><svg x="27.33759832382202" y="40" width="64.45685195922852" height="30" style="overflow: visible;"><rect width="64.45685195922852" height="30" id="pos-2" class="pos" attr="upostag" subId="2" rx="5" ry="5" style="fill: rgb(175, 162, 255); stroke: rgb(0, 0, 0); stroke-width: 2px;"/><text x="50%" y="50%" class="pos-label" id="text-pos-2" text-anchor="middle" dominant-baseline="central">VERB</text></svg></svg><svg id="token-3" width="143.1968755722046" height="70" y="100" style="overflow: visible; cursor: pointer;" x="615.1122455596924"><line x1="71.5984377861023" y1="30" x2="71.5984377861023" y2="40" class="pos-edge" style="stroke: rgb(72, 72, 72); stroke-width: 3;"/><svg x="122.07282257080078" width="21.12405300140381" height="30" style="overflow: visible;"><path d="M0,0h16.12405300140381a5,5 0 0 1 5,5v20a5,5 0 0 1 -5,5h-16.12405300140381z" class="tokenNum" style="fill: rgb(175, 162, 255); stroke: rgb(0, 0, 0); stroke-width: 2px;"/><text class="tokenNum-label" x="50%" y="50%" text-anchor="middle" dominant-baseline="central">4</text></svg><svg width="122.07282257080078" height="30" id="group-3" class="token" subId="3" style="overflow: visible;"><path d="M122.07282257080078,0h-117.07282257080078a5,5 1 0 0 -5,5v20a5,5 1 0 0 5,5h117.07282257080078z" id="form-3" attr="form" subId="3" class="form" num="4" style="fill: rgb(127, 161, 255); stroke: rgb(0, 0, 0); stroke-width: 2px;"/><text x="50%" y="50%" text-anchor="middle" dominant-baseline="central" id="text-form-3" class="form-label">дсызгIаргхтI</text></svg><svg x="39.37001180648804" y="40" width="64.45685195922852" height="30" style="overflow: visible;"><rect width="64.45685195922852" height="30" id="pos-3" class="pos" attr="upostag" subId="3" rx="5" ry="5" style="fill: rgb(175, 162, 255); stroke: rgb(0, 0, 0); stroke-width: 2px;"/><text x="50%" y="50%" class="pos-label" id="text-pos-3" text-anchor="middle" dominant-baseline="central">VERB</text></svg></svg><defs><marker id="end" viewBox="0 -5 10 10" refX="2" refY="2" markerWidth="15" markerHeight="15" orient="auto" style="fill: rgb(17, 17, 17);"><path d="M 1 1 L 3 2 L 1 3 Z"/></marker></defs><path class="dependency" attr="deprel" marker-end="url(#end)" d="M 509.5,100 L 499,35 C 488.5,-30 473.8,-30 459.1,-30 L 459.1,-30 397.2535629272461,-30M 345.7464370727539,-30 L 283.9,-30 C269.2,-30 254.5,-30 244,35 L233.5,94" id="dep_0_2" num="5" style="stroke-width: 4px; fill: none; stroke: rgb(17, 17, 17); opacity: 0.766;"/><path class="dependency" attr="deprel" marker-end="url(#end)" d="M 509.5,100 L 504.25,67.5 C 499,35 491.65,35 484.29999999999995,35 L 484.29999999999995,35 474.3138065338135,35M 401.6861934661865,35 L 391.70000000000005,35 C384.35,35 377,35 371.75,67.5 L366.5,94" id="dep_1_2" num="6" style="stroke-width: 4px; fill: none; stroke: rgb(17, 17, 17); opacity: 0.766;"/><path class="dependency" attr="deprel" marker-end="url(#end)" d="M 539.5,100 L 544.75,67.5 C 550,35 557.35,35 564.7,35 L 564.7,35 582.248218536377,35M 643.751781463623,35 L 661.3,35 C668.65,35 676,35 681.25,67.5 L686.5,94" id="dep_3_2" num="7" style="stroke-width: 4px; fill: none; stroke: rgb(17, 17, 17); opacity: 0.766;"/><line x1="524.5" y1="-62.5" x2="524.5" y2="93" class="root-deprel" marker-end="url(#end)" style="stroke: rgb(17, 17, 17); opacity: 0.766; stroke-width: 4px;"/><text id="text-dep_0_2" class="deprel-label" transform="translate(371.5,-30)" y="-1" text-anchor="middle" dominant-baseline="central" style="cursor: pointer; text-shadow: rgb(255, 255, 255) 1px 1px 5px;">⊲obj</text><text id="text-dep_1_2" class="deprel-label" transform="translate(438,35)" y="-1" text-anchor="middle" dominant-baseline="central" style="cursor: pointer; text-shadow: rgb(255, 255, 255) 1px 1px 5px;">⊲nsubj</text><text id="text-dep_3_2" class="deprel-label" transform="translate(613,35)" y="-1" text-anchor="middle" dominant-baseline="central" style="cursor: pointer; text-shadow: rgb(255, 255, 255) 1px 1px 5px;">conj⊳</text><text x="524.5" y="-73.5" class="root-deprel-label" text-anchor="middle" dominant-baseline="central" style="text-shadow: rgb(255, 255, 255) 1px 1px 5px;">ROOT</text></g></svg>