<svg xmlns="http://www.w3.org/2000/svg" width="1440" height="314" id="graph-svg" style="background: white; font-family: Arial; font-size: 20px;"><g id="graph-g" transform="translate(-66.97841568595692,88.92493307134679) scale(0.741233504901446)"><svg id="token-0" width="92.24863529205322" height="70" y="100" style="overflow: visible; cursor: pointer;" x="183.97355041503897"><line x1="46.12431764602661" y1="30" x2="46.12431764602661" y2="40" class="pos-edge" style="stroke: rgb(72, 72, 72); stroke-width: 3;"/><svg x="71.12555313110352" width="21.123082160949707" height="30" style="overflow: visible;"><path d="M0,0h16.123082160949707a5,5 0 0 1 5,5v20a5,5 0 0 1 -5,5h-16.123082160949707z" class="tokenNum" style="fill: rgb(175, 162, 255); stroke: rgb(0, 0, 0); stroke-width: 2px;"/><text class="tokenNum-label" x="50%" y="50%" text-anchor="middle" dominant-baseline="central">1</text></svg><svg width="71.12555313110352" height="30" id="group-0" class="token" subId="0" style="overflow: visible;"><path d="M71.12555313110352,0h-66.12555313110352a5,5 1 0 0 -5,5v20a5,5 1 0 0 5,5h66.12555313110352z" id="form-0" attr="form" subId="0" class="form" num="1" style="fill: rgb(127, 161, 255); stroke: rgb(0, 0, 0); stroke-width: 2px;"/><text x="50%" y="50%" text-anchor="middle" dominant-baseline="central" id="text-form-0" class="form-label">саргьи</text></svg><svg x="12.23719835281372" y="40" width="67.77423858642578" height="30" style="overflow: visible;"><rect width="67.77423858642578" height="30" id="pos-0" class="pos" attr="upostag" subId="0" rx="5" ry="5" style="fill: rgb(175, 162, 255); stroke: rgb(0, 0, 0); stroke-width: 2px;"/><text x="50%" y="50%" class="pos-label" id="text-pos-0" text-anchor="middle" dominant-baseline="central">PRON</text></svg></svg><svg id="token-1" width="112.37709522247314" height="70" y="100" style="overflow: visible; cursor: pointer;" x="322.2486352920532"><line x1="56.18854761123657" y1="30" x2="56.18854761123657" y2="40" class="pos-edge" style="stroke: rgb(72, 72, 72); stroke-width: 3;"/><svg x="91.25401306152344" width="21.123082160949707" height="30" style="overflow: visible;"><path d="M0,0h16.123082160949707a5,5 0 0 1 5,5v20a5,5 0 0 1 -5,5h-16.123082160949707z" class="tokenNum root" style="fill: rgb(175, 162, 255); stroke: rgb(0, 0, 0); stroke-width: 4px;"/><text class="tokenNum-label root" x="50%" y="50%" text-anchor="middle" dominant-baseline="central" style="font-weight: 700;">2</text></svg><svg width="91.25401306152344" height="30" id="group-1" class="token" subId="1" style="overflow: visible;"><path d="M91.25401306152344,0h-86.25401306152344a5,5 1 0 0 -5,5v20a5,5 1 0 0 5,5h86.25401306152344z" id="form-1" attr="form" subId="1" class="form root" num="2" style="fill: rgb(127, 161, 255); stroke: rgb(0, 0, 0); stroke-width: 4px;"/><text x="50%" y="50%" text-anchor="middle" dominant-baseline="central" id="text-form-1" class="form-label root" style="font-weight: 700;">сычвын</text></svg><svg x="23.961666584014893" y="40" width="64.45376205444336" height="30" style="overflow: visible;"><rect width="64.45376205444336" height="30" id="pos-1" class="pos" attr="upostag" subId="1" rx="5" ry="5" style="fill: rgb(175, 162, 255); stroke: rgb(0, 0, 0); stroke-width: 2px;"/><text x="50%" y="50%" class="pos-label" id="text-pos-1" text-anchor="middle" dominant-baseline="central">VERB</text></svg></svg><svg id="token-2" width="173.9138536453247" height="70" y="100" style="overflow: visible; cursor: pointer;" x="464.62573051452637"><line x1="86.95692682266235" y1="30" x2="86.95692682266235" y2="40" class="pos-edge" style="stroke: rgb(72, 72, 72); stroke-width: 3;"/><svg x="152.790771484375" width="21.123082160949707" height="30" style="overflow: visible;"><path d="M0,0h16.123082160949707a5,5 0 0 1 5,5v20a5,5 0 0 1 -5,5h-16.123082160949707z" class="tokenNum" style="fill: rgb(175, 162, 255); stroke: rgb(0, 0, 0); stroke-width: 2px;"/><text class="tokenNum-label" x="50%" y="50%" text-anchor="middle" dominant-baseline="central">3</text></svg><svg width="152.790771484375" height="30" id="group-2" class="token" subId="2" style="overflow: visible;"><path d="M152.790771484375,0h-147.790771484375a5,5 1 0 0 -5,5v20a5,5 1 0 0 5,5h147.790771484375z" id="form-2" attr="form" subId="2" class="form" num="3" style="fill: rgb(127, 161, 255); stroke: rgb(0, 0, 0); stroke-width: 2px;"/><text x="50%" y="50%" text-anchor="middle" dominant-baseline="central" id="text-form-2" class="form-label">йыгьсымдырхтI</text></svg><svg x="54.730045795440674" y="40" width="64.45376205444336" height="30" style="overflow: visible;"><rect width="64.45376205444336" height="30" id="pos-2" class="pos" attr="upostag" subId="2" rx="5" ry="5" style="fill: rgb(175, 162, 255); stroke: rgb(0, 0, 0); stroke-width: 2px;"/><text x="50%" y="50%" class="pos-label" id="text-pos-2" text-anchor="middle" dominant-baseline="central">VERB</text></svg></svg><svg id="token-3" width="67.62776279449463" height="70" y="100" style="overflow: visible; cursor: pointer;" x="668.5395841598511"><line x1="33.813881397247314" y1="30" x2="33.813881397247314" y2="40" class="pos-edge" style="stroke: rgb(72, 72, 72); stroke-width: 3;"/><svg x="46.50468063354492" width="21.123082160949707" height="30" style="overflow: visible;"><path d="M0,0h16.123082160949707a5,5 0 0 1 5,5v20a5,5 0 0 1 -5,5h-16.123082160949707z" class="tokenNum" style="fill: rgb(175, 162, 255); stroke: rgb(0, 0, 0); stroke-width: 2px;"/><text class="tokenNum-label" x="50%" y="50%" text-anchor="middle" dominant-baseline="central">4</text></svg><svg width="46.50468063354492" height="30" id="group-3" class="token" subId="3" style="overflow: visible;"><path d="M46.50468063354492,0h-41.50468063354492a5,5 1 0 0 -5,5v20a5,5 1 0 0 5,5h41.50468063354492z" id="form-3" attr="form" subId="3" class="form" num="4" style="fill: rgb(127, 161, 255); stroke: rgb(0, 0, 0); stroke-width: 2px;"/><text x="50%" y="50%" text-anchor="middle" dominant-baseline="central" id="text-form-3" class="form-label">щта</text></svg><svg x="3.0724778175354004" y="40" width="61.48280715942383" height="30" style="overflow: visible;"><rect width="61.48280715942383" height="30" id="pos-3" class="pos" attr="upostag" subId="3" rx="5" ry="5" style="fill: rgb(175, 162, 255); stroke: rgb(0, 0, 0); stroke-width: 2px;"/><text x="50%" y="50%" class="pos-label" id="text-pos-3" text-anchor="middle" dominant-baseline="central">PART</text></svg></svg><defs><marker id="end" viewBox="0 -5 10 10" refX="2" refY="2" markerWidth="15" markerHeight="15" orient="auto" style="fill: rgb(17, 17, 17);"><path d="M 1 1 L 3 2 L 1 3 Z"/></marker></defs><path class="dependency" attr="deprel" marker-end="url(#end)" d="M 363,100 L 357.75,67.5 C 352.5,35 345.15,35 337.79999999999995,35 L 337.79999999999995,35 332.31322479248047,35M 259.68677520751953,35 L 254.2,35 C246.85,35 239.5,35 234.25,67.5 L229,94" id="dep_0_1" num="5" style="stroke-width: 4px; fill: none; stroke: rgb(17, 17, 17); opacity: 0.766;"/><path class="dependency" attr="deprel" marker-end="url(#end)" d="M 393,100 L 398.25,67.5 C 403.5,35 410.85,35 418.20000000000005,35 L 418.20000000000005,35 440.9983158111572,35M 502.5016841888428,35 L 525.3,35 C532.65,35 540,35 545.25,67.5 L550.5,94" id="dep_2_1" num="6" style="stroke-width: 4px; fill: none; stroke: rgb(17, 17, 17); opacity: 0.766;"/><path class="dependency" attr="deprel" marker-end="url(#end)" d="M 393,100 L 403.5,35 C 414,-30 428.7,-30 443.4,-30 L 443.4,-30 492.05220794677734,-30M 602.4477920532227,-30 L 651.0999999999999,-30 C665.8,-30 680.5,-30 691,35 L701.5,94" id="dep_3_1" num="7" style="stroke-width: 4px; fill: none; stroke: rgb(17, 17, 17); opacity: 0.766;"/><line x1="378" y1="-62.5" x2="378" y2="93" class="root-deprel" marker-end="url(#end)" style="stroke: rgb(17, 17, 17); opacity: 0.766; stroke-width: 4px;"/><text id="text-dep_0_1" class="deprel-label" transform="translate(296,35)" y="-1" text-anchor="middle" dominant-baseline="central" style="cursor: pointer; text-shadow: rgb(255, 255, 255) 1px 1px 5px;">⊲nsubj</text><text id="text-dep_2_1" class="deprel-label" transform="translate(471.75,35)" y="-1" text-anchor="middle" dominant-baseline="central" style="cursor: pointer; text-shadow: rgb(255, 255, 255) 1px 1px 5px;">conj⊳</text><text id="text-dep_3_1" class="deprel-label" transform="translate(547.25,-30)" y="-1" text-anchor="middle" dominant-baseline="central" style="cursor: pointer; text-shadow: rgb(255, 255, 255) 1px 1px 5px;">discourse⊳</text><text x="378" y="-73.5" class="root-deprel-label" text-anchor="middle" dominant-baseline="central" style="text-shadow: rgb(255, 255, 255) 1px 1px 5px;">ROOT</text></g></svg>