<svg xmlns="http://www.w3.org/2000/svg" width="1440" height="314" id="graph-svg" style="background: white; font-family: Arial; font-size: 20px;"><g id="graph-g" transform="translate(-81.35881687536983,130.04627392122876) scale(0.7599624282007863)"><svg id="token-0" width="86.57401371002197" height="70" y="100" style="overflow: visible; cursor: pointer;" x="200"><line x1="43.287006855010986" y1="30" x2="43.287006855010986" y2="40" class="pos-edge" style="stroke: rgb(72, 72, 72); stroke-width: 3;"/><svg x="65.45093154907227" width="21.123082160949707" height="30" style="overflow: visible;"><path d="M0,0h16.123082160949707a5,5 0 0 1 5,5v20a5,5 0 0 1 -5,5h-16.123082160949707z" class="tokenNum root" style="fill: rgb(175, 162, 255); stroke: rgb(0, 0, 0); stroke-width: 4px;"/><text class="tokenNum-label root" x="50%" y="50%" text-anchor="middle" dominant-baseline="central" style="font-weight: 700;">1</text></svg><svg width="65.45093154907227" height="30" id="group-0" class="token" subId="0" style="overflow: visible;"><path d="M65.45093154907227,0h-60.450931549072266a5,5 1 0 0 -5,5v20a5,5 1 0 0 5,5h60.450931549072266z" id="form-0" attr="form" subId="0" class="form root" num="1" style="fill: rgb(127, 161, 255); stroke: rgb(0, 0, 0); stroke-width: 4px;"/><text x="50%" y="50%" text-anchor="middle" dominant-baseline="central" id="text-form-0" class="form-label root" style="font-weight: 700;">атаев</text></svg><svg x="2.7332348823547363" y="40" width="81.1075439453125" height="30" style="overflow: visible;"><rect width="81.1075439453125" height="30" id="pos-0" class="pos" attr="upostag" subId="0" rx="5" ry="5" style="fill: rgb(175, 162, 255); stroke: rgb(0, 0, 0); stroke-width: 2px;"/><text x="50%" y="50%" class="pos-label" id="text-pos-0" text-anchor="middle" dominant-baseline="central">PROPN</text></svg></svg><svg id="token-1" width="140.24648761749268" height="70" y="100" style="overflow: visible; cursor: pointer;" x="316.574013710022"><line x1="70.12324380874634" y1="30" x2="70.12324380874634" y2="40" class="pos-edge" style="stroke: rgb(72, 72, 72); stroke-width: 3;"/><svg x="119.12340545654297" width="21.123082160949707" height="30" style="overflow: visible;"><path d="M0,0h16.123082160949707a5,5 0 0 1 5,5v20a5,5 0 0 1 -5,5h-16.123082160949707z" class="tokenNum" style="fill: rgb(175, 162, 255); stroke: rgb(0, 0, 0); stroke-width: 2px;"/><text class="tokenNum-label" x="50%" y="50%" text-anchor="middle" dominant-baseline="central">2</text></svg><svg width="119.12340545654297" height="30" id="group-1" class="token" subId="1" style="overflow: visible;"><path d="M119.12340545654297,0h-114.12340545654297a5,5 1 0 0 -5,5v20a5,5 1 0 0 5,5h114.12340545654297z" id="form-1" attr="form" subId="1" class="form" num="2" style="fill: rgb(127, 161, 255); stroke: rgb(0, 0, 0); stroke-width: 2px;"/><text x="50%" y="50%" text-anchor="middle" dominant-baseline="central" id="text-form-1" class="form-label">абдулгамид</text></svg><svg x="29.569471836090088" y="40" width="81.1075439453125" height="30" style="overflow: visible;"><rect width="81.1075439453125" height="30" id="pos-1" class="pos" attr="upostag" subId="1" rx="5" ry="5" style="fill: rgb(175, 162, 255); stroke: rgb(0, 0, 0); stroke-width: 2px;"/><text x="50%" y="50%" class="pos-label" id="text-pos-1" text-anchor="middle" dominant-baseline="central">PROPN</text></svg></svg><svg id="token-2" width="170.8503770828247" height="70" y="100" style="overflow: visible; cursor: pointer;" x="486.82050132751465"><line x1="85.42518854141235" y1="30" x2="85.42518854141235" y2="40" class="pos-edge" style="stroke: rgb(72, 72, 72); stroke-width: 3;"/><svg x="149.727294921875" width="21.123082160949707" height="30" style="overflow: visible;"><path d="M0,0h16.123082160949707a5,5 0 0 1 5,5v20a5,5 0 0 1 -5,5h-16.123082160949707z" class="tokenNum" style="fill: rgb(175, 162, 255); stroke: rgb(0, 0, 0); stroke-width: 2px;"/><text class="tokenNum-label" x="50%" y="50%" text-anchor="middle" dominant-baseline="central">3</text></svg><svg width="149.727294921875" height="30" id="group-2" class="token" subId="2" style="overflow: visible;"><path d="M149.727294921875,0h-144.727294921875a5,5 1 0 0 -5,5v20a5,5 1 0 0 5,5h144.727294921875z" id="form-2" attr="form" subId="2" class="form" num="3" style="fill: rgb(127, 161, 255); stroke: rgb(0, 0, 0); stroke-width: 2px;"/><text x="50%" y="50%" text-anchor="middle" dominant-baseline="central" id="text-form-2" class="form-label">абдулатипович</text></svg><svg x="44.8714165687561" y="40" width="81.1075439453125" height="30" style="overflow: visible;"><rect width="81.1075439453125" height="30" id="pos-2" class="pos" attr="upostag" subId="2" rx="5" ry="5" style="fill: rgb(175, 162, 255); stroke: rgb(0, 0, 0); stroke-width: 2px;"/><text x="50%" y="50%" class="pos-label" id="text-pos-2" text-anchor="middle" dominant-baseline="central">PROPN</text></svg></svg><svg id="token-3" width="70.63983631134033" height="70" y="100" style="overflow: visible; cursor: pointer;" x="691.234215259552"><line x1="35.319918155670166" y1="30" x2="35.319918155670166" y2="40" class="pos-edge" style="stroke: rgb(72, 72, 72); stroke-width: 3;"/><svg x="49.516754150390625" width="21.123082160949707" height="30" style="overflow: visible;"><path d="M0,0h16.123082160949707a5,5 0 0 1 5,5v20a5,5 0 0 1 -5,5h-16.123082160949707z" class="tokenNum" style="fill: rgb(175, 162, 255); stroke: rgb(0, 0, 0); stroke-width: 2px;"/><text class="tokenNum-label" x="50%" y="50%" text-anchor="middle" dominant-baseline="central">4</text></svg><svg width="49.516754150390625" height="30" id="group-3" class="token" subId="3" style="overflow: visible;"><path d="M49.516754150390625,0h-44.516754150390625a5,5 1 0 0 -5,5v20a5,5 1 0 0 5,5h44.516754150390625z" id="form-3" attr="form" subId="3" class="form" num="4" style="fill: rgb(127, 161, 255); stroke: rgb(0, 0, 0); stroke-width: 2px;"/><text x="50%" y="50%" text-anchor="middle" dominant-baseline="central" id="text-form-3" class="form-label">хIвА</text></svg><svg x="-3.5633368492126465" y="40" width="77.76651000976562" height="30" style="overflow: visible;"><rect width="77.76651000976562" height="30" id="pos-3" class="pos" attr="upostag" subId="3" rx="5" ry="5" style="fill: rgb(175, 162, 255); stroke: rgb(0, 0, 0); stroke-width: 2px;"/><text x="50%" y="50%" class="pos-label" id="text-pos-3" text-anchor="middle" dominant-baseline="central">SCONJ</text></svg></svg><defs><marker id="end" viewBox="0 -5 10 10" refX="2" refY="2" markerWidth="15" markerHeight="15" orient="auto" style="fill: rgb(17, 17, 17);"><path d="M 1 1 L 3 2 L 1 3 Z"/></marker></defs><path class="dependency" attr="deprel" marker-end="url(#end)" d="M 258,100 L 263.25,67.5 C 268.5,35 275.85,35 283.20000000000005,35 L 283.20000000000005,35 296.2495918273926,35M 347.7504081726074,35 L 360.79999999999995,35 C368.15,35 375.5,35 380.75,67.5 L386,94" id="dep_1_0" num="5" style="stroke-width: 4px; fill: none; stroke: rgb(17, 17, 17); opacity: 0.766;"/><path class="dependency" attr="deprel" marker-end="url(#end)" d="M 258,100 L 268.5,35 C 279,-30 293.7,-30 308.4,-30 L 308.4,-30 388.7495918273926,-30M 440.2504081726074,-30 L 520.5999999999999,-30 C535.3,-30 550,-30 560.5,35 L571,94" id="dep_2_0" num="6" style="stroke-width: 4px; fill: none; stroke: rgb(17, 17, 17); opacity: 0.766;"/><path class="dependency" attr="deprel" marker-end="url(#end)" d="M 258,100 L 273.75,2.5 C 289.5,-95 311.55,-95 333.6,-95 L 333.6,-95 457.37271308898926,-95M 526.6272869110107,-95 L 650.4000000000001,-95 C672.45,-95 694.5,-95 710.25,2.5 L726,94" id="dep_3_0" num="7" style="stroke-width: 4px; fill: none; stroke: rgb(17, 17, 17); opacity: 0.766;"/><line x1="243" y1="-127.5" x2="243" y2="93" class="root-deprel" marker-end="url(#end)" style="stroke: rgb(17, 17, 17); opacity: 0.766; stroke-width: 4px;"/><text id="text-dep_1_0" class="deprel-label" transform="translate(322,35)" y="-1" text-anchor="middle" dominant-baseline="central" style="cursor: pointer; text-shadow: rgb(255, 255, 255) 1px 1px 5px;">flat⊳</text><text id="text-dep_2_0" class="deprel-label" transform="translate(414.5,-30)" y="-1" text-anchor="middle" dominant-baseline="central" style="cursor: pointer; text-shadow: rgb(255, 255, 255) 1px 1px 5px;">flat⊳</text><text id="text-dep_3_0" class="deprel-label" transform="translate(492,-95)" y="-1" text-anchor="middle" dominant-baseline="central" style="cursor: pointer; text-shadow: rgb(255, 255, 255) 1px 1px 5px;">mark⊳</text><text x="243" y="-138.5" class="root-deprel-label" text-anchor="middle" dominant-baseline="central" style="text-shadow: rgb(255, 255, 255) 1px 1px 5px;">ROOT</text></g></svg>