<svg xmlns="http://www.w3.org/2000/svg" width="1440" height="314" id="graph-svg" style="background: white; font-family: Arial; font-size: 20px;"><g id="graph-g" transform="translate(-79.35881687536983,91.04627392122876) scale(0.7599624282007863)"><svg id="token-0" width="165.38136768341064" height="70" y="100" style="overflow: visible; cursor: pointer;" x="174.97355041503897"><line x1="82.69068384170532" y1="30" x2="82.69068384170532" y2="40" class="pos-edge" style="stroke: rgb(72, 72, 72); stroke-width: 3;"/><svg x="144.25828552246094" width="21.123082160949707" height="30" style="overflow: visible;"><path d="M0,0h16.123082160949707a5,5 0 0 1 5,5v20a5,5 0 0 1 -5,5h-16.123082160949707z" class="tokenNum" style="fill: rgb(175, 162, 255); stroke: rgb(0, 0, 0); stroke-width: 2px;"/><text class="tokenNum-label" x="50%" y="50%" text-anchor="middle" dominant-baseline="central">1</text></svg><svg width="144.25828552246094" height="30" id="group-0" class="token" subId="0" style="overflow: visible;"><path d="M144.25828552246094,0h-139.25828552246094a5,5 1 0 0 -5,5v20a5,5 1 0 0 5,5h139.25828552246094z" id="form-0" attr="form" subId="0" class="form" num="1" style="fill: rgb(127, 161, 255); stroke: rgb(0, 0, 0); stroke-width: 2px;"/><text x="50%" y="50%" text-anchor="middle" dominant-baseline="central" id="text-form-0" class="form-label">йджьауымщан</text></svg><svg x="50.46380281448364" y="40" width="64.45376205444336" height="30" style="overflow: visible;"><rect width="64.45376205444336" height="30" id="pos-0" class="pos" attr="upostag" subId="0" rx="5" ry="5" style="fill: rgb(175, 162, 255); stroke: rgb(0, 0, 0); stroke-width: 2px;"/><text x="50%" y="50%" class="pos-label" id="text-pos-0" text-anchor="middle" dominant-baseline="central">VERB</text></svg></svg><svg id="token-1" width="68.19316959381104" height="70" y="100" style="overflow: visible; cursor: pointer;" x="374.97355041503897"><line x1="34.09658479690552" y1="30" x2="34.09658479690552" y2="40" class="pos-edge" style="stroke: rgb(72, 72, 72); stroke-width: 3;"/><svg x="47.07008743286133" width="21.123082160949707" height="30" style="overflow: visible;"><path d="M0,0h16.123082160949707a5,5 0 0 1 5,5v20a5,5 0 0 1 -5,5h-16.123082160949707z" class="tokenNum" style="fill: rgb(175, 162, 255); stroke: rgb(0, 0, 0); stroke-width: 2px;"/><text class="tokenNum-label" x="50%" y="50%" text-anchor="middle" dominant-baseline="central">2</text></svg><svg width="47.07008743286133" height="30" id="group-1" class="token" subId="1" style="overflow: visible;"><path d="M47.07008743286133,0h-42.07008743286133a5,5 1 0 0 -5,5v20a5,5 1 0 0 5,5h42.07008743286133z" id="form-1" attr="form" subId="1" class="form" num="2" style="fill: rgb(127, 161, 255); stroke: rgb(0, 0, 0); stroke-width: 2px;"/><text x="50%" y="50%" text-anchor="middle" dominant-baseline="central" id="text-form-1" class="form-label">хIва</text></svg><svg x="-4.786670207977295" y="40" width="77.76651000976562" height="30" style="overflow: visible;"><rect width="77.76651000976562" height="30" id="pos-1" class="pos" attr="upostag" subId="1" rx="5" ry="5" style="fill: rgb(175, 162, 255); stroke: rgb(0, 0, 0); stroke-width: 2px;"/><text x="50%" y="50%" class="pos-label" id="text-pos-1" text-anchor="middle" dominant-baseline="central">SCONJ</text></svg></svg><svg id="token-2" width="63.18675708770752" height="70" y="100" style="overflow: visible; cursor: pointer;" x="479.97355041503897"><line x1="31.59337854385376" y1="30" x2="31.59337854385376" y2="40" class="pos-edge" style="stroke: rgb(72, 72, 72); stroke-width: 3;"/><svg x="42.06367492675781" width="21.123082160949707" height="30" style="overflow: visible;"><path d="M0,0h16.123082160949707a5,5 0 0 1 5,5v20a5,5 0 0 1 -5,5h-16.123082160949707z" class="tokenNum" style="fill: rgb(175, 162, 255); stroke: rgb(0, 0, 0); stroke-width: 2px;"/><text class="tokenNum-label" x="50%" y="50%" text-anchor="middle" dominant-baseline="central">3</text></svg><svg width="42.06367492675781" height="30" id="group-2" class="token" subId="2" style="overflow: visible;"><path d="M42.06367492675781,0h-37.06367492675781a5,5 1 0 0 -5,5v20a5,5 1 0 0 5,5h37.06367492675781z" id="form-2" attr="form" subId="2" class="form" num="3" style="fill: rgb(127, 161, 255); stroke: rgb(0, 0, 0); stroke-width: 2px;"/><text x="50%" y="50%" text-anchor="middle" dominant-baseline="central" id="text-form-2" class="form-label">ауи</text></svg><svg x="-2.293740749359131" y="40" width="67.77423858642578" height="30" style="overflow: visible;"><rect width="67.77423858642578" height="30" id="pos-2" class="pos" attr="upostag" subId="2" rx="5" ry="5" style="fill: rgb(175, 162, 255); stroke: rgb(0, 0, 0); stroke-width: 2px;"/><text x="50%" y="50%" class="pos-label" id="text-pos-2" text-anchor="middle" dominant-baseline="central">PRON</text></svg></svg><svg id="token-3" width="119.34701251983643" height="70" y="100" style="overflow: visible; cursor: pointer;" x="600.922116279602"><line x1="59.67350625991821" y1="30" x2="59.67350625991821" y2="40" class="pos-edge" style="stroke: rgb(72, 72, 72); stroke-width: 3;"/><svg x="98.22393035888672" width="21.123082160949707" height="30" style="overflow: visible;"><path d="M0,0h16.123082160949707a5,5 0 0 1 5,5v20a5,5 0 0 1 -5,5h-16.123082160949707z" class="tokenNum root" style="fill: rgb(175, 162, 255); stroke: rgb(0, 0, 0); stroke-width: 4px;"/><text class="tokenNum-label root" x="50%" y="50%" text-anchor="middle" dominant-baseline="central" style="font-weight: 700;">4</text></svg><svg width="98.22393035888672" height="30" id="group-3" class="token" subId="3" style="overflow: visible;"><path d="M98.22393035888672,0h-93.22393035888672a5,5 1 0 0 -5,5v20a5,5 1 0 0 5,5h93.22393035888672z" id="form-3" attr="form" subId="3" class="form root" num="4" style="fill: rgb(127, 161, 255); stroke: rgb(0, 0, 0); stroke-width: 4px;"/><text x="50%" y="50%" text-anchor="middle" dominant-baseline="central" id="text-form-3" class="form-label root" style="font-weight: 700;">йхIвадйа</text></svg><svg x="27.446625232696533" y="40" width="64.45376205444336" height="30" style="overflow: visible;"><rect width="64.45376205444336" height="30" id="pos-3" class="pos" attr="upostag" subId="3" rx="5" ry="5" style="fill: rgb(175, 162, 255); stroke: rgb(0, 0, 0); stroke-width: 2px;"/><text x="50%" y="50%" class="pos-label" id="text-pos-3" text-anchor="middle" dominant-baseline="central">VERB</text></svg></svg><defs><marker id="end" viewBox="0 -5 10 10" refX="2" refY="2" markerWidth="15" markerHeight="15" orient="auto" style="fill: rgb(17, 17, 17);"><path d="M 1 1 L 3 2 L 1 3 Z"/></marker></defs><path class="dependency" attr="deprel" marker-end="url(#end)" d="M 644.5,100 L 634,35 C 623.5,-30 608.8,-30 594.0999999999999,-30 L 594.0999999999999,-30 492.3593444824219,-30M 408.6406555175781,-30 L 306.9,-30 C292.2,-30 277.5,-30 267,35 L256.5,94" id="dep_0_3" num="5" style="stroke-width: 4px; fill: none; stroke: rgb(17, 17, 17); opacity: 0.766;"/><path class="dependency" attr="deprel" marker-end="url(#end)" d="M 271.5,100 L 276.75,67.5 C 282,35 289.35,35 296.70000000000005,35 L 296.70000000000005,35 305.12271308898926,35M 374.37728691101074,35 L 382.79999999999995,35 C390.15,35 397.5,35 402.75,67.5 L408,94" id="dep_1_0" num="6" style="stroke-width: 4px; fill: none; stroke: rgb(17, 17, 17); opacity: 0.766;"/><path class="dependency" attr="deprel" marker-end="url(#end)" d="M 644.5,100 L 639.25,67.5 C 634,35 626.65,35 619.3,35 L 619.3,35 613.8132247924805,35M 541.1867752075195,35 L 535.7,35 C528.35,35 521,35 515.75,67.5 L510.5,94" id="dep_2_3" num="7" style="stroke-width: 4px; fill: none; stroke: rgb(17, 17, 17); opacity: 0.766;"/><line x1="659.5" y1="-62.5" x2="659.5" y2="93" class="root-deprel" marker-end="url(#end)" style="stroke: rgb(17, 17, 17); opacity: 0.766; stroke-width: 4px;"/><text id="text-dep_0_3" class="deprel-label" transform="translate(450.5,-30)" y="-1" text-anchor="middle" dominant-baseline="central" style="cursor: pointer; text-shadow: rgb(255, 255, 255) 1px 1px 5px;">⊲ccomp</text><text id="text-dep_1_0" class="deprel-label" transform="translate(339.75,35)" y="-1" text-anchor="middle" dominant-baseline="central" style="cursor: pointer; text-shadow: rgb(255, 255, 255) 1px 1px 5px;">mark⊳</text><text id="text-dep_2_3" class="deprel-label" transform="translate(577.5,35)" y="-1" text-anchor="middle" dominant-baseline="central" style="cursor: pointer; text-shadow: rgb(255, 255, 255) 1px 1px 5px;">⊲nsubj</text><text x="659.5" y="-73.5" class="root-deprel-label" text-anchor="middle" dominant-baseline="central" style="text-shadow: rgb(255, 255, 255) 1px 1px 5px;">ROOT</text></g></svg>