<svg xmlns="http://www.w3.org/2000/svg" width="1440" height="314" id="graph-svg" style="background: white; font-family: Arial; font-size: 20px;"><g id="graph-g" transform="translate(-83.35881687536983,124.04627392122876) scale(0.7599624282007863)"><svg id="token-0" width="135.2503480911255" height="70" y="100" style="overflow: visible; cursor: pointer;" x="164.48645935058585"><line x1="67.62517404556274" y1="30" x2="67.62517404556274" y2="40" class="pos-edge" style="stroke: rgb(72, 72, 72); stroke-width: 3;"/><svg x="114.12726593017578" width="21.123082160949707" height="30" style="overflow: visible;"><path d="M0,0h16.123082160949707a5,5 0 0 1 5,5v20a5,5 0 0 1 -5,5h-16.123082160949707z" class="tokenNum" style="fill: rgb(175, 162, 255); stroke: rgb(0, 0, 0); stroke-width: 2px;"/><text class="tokenNum-label" x="50%" y="50%" text-anchor="middle" dominant-baseline="central">1</text></svg><svg width="114.12726593017578" height="30" id="group-0" class="token" subId="0" style="overflow: visible;"><path d="M114.12726593017578,0h-109.12726593017578a5,5 1 0 0 -5,5v20a5,5 1 0 0 5,5h109.12726593017578z" id="form-0" attr="form" subId="0" class="form" num="1" style="fill: rgb(127, 161, 255); stroke: rgb(0, 0, 0); stroke-width: 2px;"/><text x="50%" y="50%" text-anchor="middle" dominant-baseline="central" id="text-form-0" class="form-label">гIважвизакI</text></svg><svg x="39.85472345352173" y="40" width="55.54090118408203" height="30" style="overflow: visible;"><rect width="55.54090118408203" height="30" id="pos-0" class="pos" attr="upostag" subId="0" rx="5" ry="5" style="fill: rgb(175, 162, 255); stroke: rgb(0, 0, 0); stroke-width: 2px;"/><text x="50%" y="50%" class="pos-label" id="text-pos-0" text-anchor="middle" dominant-baseline="central">NUM</text></svg></svg><svg id="token-1" width="90.90194034576416" height="70" y="100" style="overflow: visible; cursor: pointer;" x="365.2503480911255"><line x1="45.45097017288208" y1="30" x2="45.45097017288208" y2="40" class="pos-edge" style="stroke: rgb(72, 72, 72); stroke-width: 3;"/><svg x="69.77885818481445" width="21.123082160949707" height="30" style="overflow: visible;"><path d="M0,0h16.123082160949707a5,5 0 0 1 5,5v20a5,5 0 0 1 -5,5h-16.123082160949707z" class="tokenNum" style="fill: rgb(175, 162, 255); stroke: rgb(0, 0, 0); stroke-width: 2px;"/><text class="tokenNum-label" x="50%" y="50%" text-anchor="middle" dominant-baseline="central">2</text></svg><svg width="69.77885818481445" height="30" id="group-1" class="token" subId="1" style="overflow: visible;"><path d="M69.77885818481445,0h-64.77885818481445a5,5 1 0 0 -5,5v20a5,5 1 0 0 5,5h64.77885818481445z" id="form-1" attr="form" subId="1" class="form" num="2" style="fill: rgb(127, 161, 255); stroke: rgb(0, 0, 0); stroke-width: 2px;"/><text x="50%" y="50%" text-anchor="middle" dominant-baseline="central" id="text-form-1" class="form-label">сквшы</text></svg><svg x="11.013864994049072" y="40" width="68.87421035766602" height="30" style="overflow: visible;"><rect width="68.87421035766602" height="30" id="pos-1" class="pos" attr="upostag" subId="1" rx="5" ry="5" style="fill: rgb(175, 162, 255); stroke: rgb(0, 0, 0); stroke-width: 2px;"/><text x="50%" y="50%" class="pos-label" id="text-pos-1" text-anchor="middle" dominant-baseline="central">NOUN</text></svg></svg><svg id="token-2" width="76.20137882232666" height="70" y="100" style="overflow: visible; cursor: pointer;" x="486.15228843688965"><line x1="38.10068941116333" y1="30" x2="38.10068941116333" y2="40" class="pos-edge" style="stroke: rgb(72, 72, 72); stroke-width: 3;"/><svg x="55.07829666137695" width="21.123082160949707" height="30" style="overflow: visible;"><path d="M0,0h16.123082160949707a5,5 0 0 1 5,5v20a5,5 0 0 1 -5,5h-16.123082160949707z" class="tokenNum" style="fill: rgb(175, 162, 255); stroke: rgb(0, 0, 0); stroke-width: 2px;"/><text class="tokenNum-label" x="50%" y="50%" text-anchor="middle" dominant-baseline="central">3</text></svg><svg width="55.07829666137695" height="30" id="group-2" class="token" subId="2" style="overflow: visible;"><path d="M55.07829666137695,0h-50.07829666137695a5,5 1 0 0 -5,5v20a5,5 1 0 0 5,5h50.07829666137695z" id="form-2" attr="form" subId="2" class="form" num="3" style="fill: rgb(127, 161, 255); stroke: rgb(0, 0, 0); stroke-width: 2px;"/><text x="50%" y="50%" text-anchor="middle" dominant-baseline="central" id="text-form-2" class="form-label">лари</text></svg><svg x="4.2135701179504395" y="40" width="67.77423858642578" height="30" style="overflow: visible;"><rect width="67.77423858642578" height="30" id="pos-2" class="pos" attr="upostag" subId="2" rx="5" ry="5" style="fill: rgb(175, 162, 255); stroke: rgb(0, 0, 0); stroke-width: 2px;"/><text x="50%" y="50%" class="pos-label" id="text-pos-2" text-anchor="middle" dominant-baseline="central">PRON</text></svg></svg><svg id="token-3" width="74.53600025177002" height="70" y="100" style="overflow: visible; cursor: pointer;" x="623.9033683776856"><line x1="37.26800012588501" y1="30" x2="37.26800012588501" y2="40" class="pos-edge" style="stroke: rgb(72, 72, 72); stroke-width: 3;"/><svg x="53.41291809082031" width="21.123082160949707" height="30" style="overflow: visible;"><path d="M0,0h16.123082160949707a5,5 0 0 1 5,5v20a5,5 0 0 1 -5,5h-16.123082160949707z" class="tokenNum" style="fill: rgb(175, 162, 255); stroke: rgb(0, 0, 0); stroke-width: 2px;"/><text class="tokenNum-label" x="50%" y="50%" text-anchor="middle" dominant-baseline="central">4</text></svg><svg width="53.41291809082031" height="30" id="group-3" class="token" subId="3" style="overflow: visible;"><path d="M53.41291809082031,0h-48.41291809082031a5,5 1 0 0 -5,5v20a5,5 1 0 0 5,5h48.41291809082031z" id="form-3" attr="form" subId="3" class="form" num="4" style="fill: rgb(127, 161, 255); stroke: rgb(0, 0, 0); stroke-width: 2px;"/><text x="50%" y="50%" text-anchor="middle" dominant-baseline="central" id="text-form-3" class="form-label">сари</text></svg><svg x="3.380880832672119" y="40" width="67.77423858642578" height="30" style="overflow: visible;"><rect width="67.77423858642578" height="30" id="pos-3" class="pos" attr="upostag" subId="3" rx="5" ry="5" style="fill: rgb(175, 162, 255); stroke: rgb(0, 0, 0); stroke-width: 2px;"/><text x="50%" y="50%" class="pos-label" id="text-pos-3" text-anchor="middle" dominant-baseline="central">PRON</text></svg></svg><svg id="token-4" width="160.03571033477783" height="70" y="100" style="overflow: visible; cursor: pointer;" x="727.9033683776856"><line x1="80.01785516738892" y1="30" x2="80.01785516738892" y2="40" class="pos-edge" style="stroke: rgb(72, 72, 72); stroke-width: 3;"/><svg x="138.91262817382812" width="21.123082160949707" height="30" style="overflow: visible;"><path d="M0,0h16.123082160949707a5,5 0 0 1 5,5v20a5,5 0 0 1 -5,5h-16.123082160949707z" class="tokenNum root" style="fill: rgb(175, 162, 255); stroke: rgb(0, 0, 0); stroke-width: 4px;"/><text class="tokenNum-label root" x="50%" y="50%" text-anchor="middle" dominant-baseline="central" style="font-weight: 700;">5</text></svg><svg width="138.91262817382812" height="30" id="group-4" class="token" subId="4" style="overflow: visible;"><path d="M138.91262817382812,0h-133.91262817382812a5,5 1 0 0 -5,5v20a5,5 1 0 0 5,5h133.91262817382812z" id="form-4" attr="form" subId="4" class="form root" num="5" style="fill: rgb(127, 161, 255); stroke: rgb(0, 0, 0); stroke-width: 4px;"/><text x="50%" y="50%" text-anchor="middle" dominant-baseline="central" id="text-form-4" class="form-label root" style="font-weight: 700;">хIацынхитIта</text></svg><svg x="47.790974140167236" y="40" width="64.45376205444336" height="30" style="overflow: visible;"><rect width="64.45376205444336" height="30" id="pos-4" class="pos" attr="upostag" subId="4" rx="5" ry="5" style="fill: rgb(175, 162, 255); stroke: rgb(0, 0, 0); stroke-width: 2px;"/><text x="50%" y="50%" class="pos-label" id="text-pos-4" text-anchor="middle" dominant-baseline="central">VERB</text></svg></svg><defs><marker id="end" viewBox="0 -5 10 10" refX="2" refY="2" markerWidth="15" markerHeight="15" orient="auto" style="fill: rgb(17, 17, 17);"><path d="M 1 1 L 3 2 L 1 3 Z"/></marker></defs><path class="dependency" attr="deprel" marker-end="url(#end)" d="M 395,100 L 389.75,67.5 C 384.5,35 377.15,35 369.79999999999995,35 L 369.79999999999995,35 364.55677032470703,35M 261.94322967529297,35 L 256.7,35 C249.35,35 242,35 236.75,67.5 L231.5,94" id="dep_0_1" num="6" style="stroke-width: 4px; fill: none; stroke: rgb(17, 17, 17); opacity: 0.766;"/><path class="dependency" attr="deprel" marker-end="url(#end)" d="M 792,100 L 776.25,2.5 C 760.5,-95 738.45,-95 716.4000000000001,-95 L 716.4000000000001,-95 626.7555484771729,-95M 575.2444515228271,-95 L 485.6,-95 C463.55,-95 441.5,-95 425.75,2.5 L410,94" id="dep_1_4" num="7" style="stroke-width: 4px; fill: none; stroke: rgb(17, 17, 17); opacity: 0.766;"/><path class="dependency" attr="deprel" marker-end="url(#end)" d="M 792,100 L 781.5,35 C 771,-30 756.3,-30 741.5999999999999,-30 L 741.5999999999999,-30 694.3132247924805,-30M 621.6867752075195,-30 L 574.4000000000001,-30 C559.7,-30 545,-30 534.5,35 L524,94" id="dep_2_4" num="8" style="stroke-width: 4px; fill: none; stroke: rgb(17, 17, 17); opacity: 0.766;"/><path class="dependency" attr="deprel" marker-end="url(#end)" d="M 539,100 L 544.25,67.5 C 549.5,35 556.85,35 564.2,35 L 564.2,35 568.7483158111572,35M 630.2516841888428,35 L 634.8,35 C642.15,35 649.5,35 654.75,67.5 L660,94" id="dep_3_2" num="9" style="stroke-width: 4px; fill: none; stroke: rgb(17, 17, 17); opacity: 0.766;"/><line x1="807" y1="-127.5" x2="807" y2="93" class="root-deprel" marker-end="url(#end)" style="stroke: rgb(17, 17, 17); opacity: 0.766; stroke-width: 4px;"/><text id="text-dep_0_1" class="deprel-label" transform="translate(313.25,35)" y="-1" text-anchor="middle" dominant-baseline="central" style="cursor: pointer; text-shadow: rgb(255, 255, 255) 1px 1px 5px;">⊲nummod</text><text id="text-dep_1_4" class="deprel-label" transform="translate(601,-95)" y="-1" text-anchor="middle" dominant-baseline="central" style="cursor: pointer; text-shadow: rgb(255, 255, 255) 1px 1px 5px;">⊲obl</text><text id="text-dep_2_4" class="deprel-label" transform="translate(658,-30)" y="-1" text-anchor="middle" dominant-baseline="central" style="cursor: pointer; text-shadow: rgb(255, 255, 255) 1px 1px 5px;">⊲nsubj</text><text id="text-dep_3_2" class="deprel-label" transform="translate(599.5,35)" y="-1" text-anchor="middle" dominant-baseline="central" style="cursor: pointer; text-shadow: rgb(255, 255, 255) 1px 1px 5px;">conj⊳</text><text x="807" y="-138.5" class="root-deprel-label" text-anchor="middle" dominant-baseline="central" style="text-shadow: rgb(255, 255, 255) 1px 1px 5px;">ROOT</text></g></svg>