<svg xmlns="http://www.w3.org/2000/svg" width="1440" height="314" id="graph-svg" style="background: white; font-family: Arial; font-size: 20px;"><g id="graph-g" transform="translate(-115.92459851388992,41.20822465018195) scale(0.9253044280378832)"><svg id="token-0" width="178.9622631072998" height="70" y="100" style="overflow: visible; cursor: pointer;" x="200"><line x1="89.4811315536499" y1="30" x2="89.4811315536499" y2="40" class="pos-edge" style="stroke: rgb(72, 72, 72); stroke-width: 3;"/><svg x="157.83956909179688" width="21.12269401550293" height="30" style="overflow: visible;"><path d="M0,0h16.12269401550293a5,5 0 0 1 5,5v20a5,5 0 0 1 -5,5h-16.12269401550293z" class="tokenNum" style="fill: rgb(175, 162, 255); stroke: rgb(0, 0, 0); stroke-width: 2px;"/><text class="tokenNum-label" x="50%" y="50%" text-anchor="middle" dominant-baseline="central">1</text></svg><svg width="157.83956909179688" height="30" id="group-0" class="token" subId="0" style="overflow: visible;"><path d="M157.83956909179688,0h-152.83956909179688a5,5 1 0 0 -5,5v20a5,5 1 0 0 5,5h152.83956909179688z" id="form-0" attr="form" subId="0" class="form" num="1" style="fill: rgb(127, 161, 255); stroke: rgb(0, 0, 0); stroke-width: 2px;"/><text x="50%" y="50%" text-anchor="middle" dominant-baseline="central" id="text-form-0" class="form-label">магъврейквагьи</text></svg><svg x="55.04175662994385" y="40" width="68.87874984741211" height="30" style="overflow: visible;"><rect width="68.87874984741211" height="30" id="pos-0" class="pos" attr="upostag" subId="0" rx="5" ry="5" style="fill: rgb(175, 162, 255); stroke: rgb(0, 0, 0); stroke-width: 2px;"/><text x="50%" y="50%" class="pos-label" id="text-pos-0" text-anchor="middle" dominant-baseline="central">NOUN</text></svg></svg><svg id="token-1" width="164.84380912780762" height="70" y="100" style="overflow: visible; cursor: pointer;" x="408.9622631072998"><line x1="82.42190456390381" y1="30" x2="82.42190456390381" y2="40" class="pos-edge" style="stroke: rgb(72, 72, 72); stroke-width: 3;"/><svg x="143.7211151123047" width="21.12269401550293" height="30" style="overflow: visible;"><path d="M0,0h16.12269401550293a5,5 0 0 1 5,5v20a5,5 0 0 1 -5,5h-16.12269401550293z" class="tokenNum root" style="fill: rgb(175, 162, 255); stroke: rgb(0, 0, 0); stroke-width: 4px;"/><text class="tokenNum-label root" x="50%" y="50%" text-anchor="middle" dominant-baseline="central" style="font-weight: 700;">2</text></svg><svg width="143.7211151123047" height="30" id="group-1" class="token" subId="1" style="overflow: visible;"><path d="M143.7211151123047,0h-138.7211151123047a5,5 1 0 0 -5,5v20a5,5 1 0 0 5,5h138.7211151123047z" id="form-1" attr="form" subId="1" class="form root" num="2" style="fill: rgb(127, 161, 255); stroke: rgb(0, 0, 0); stroke-width: 4px;"/><text x="50%" y="50%" text-anchor="middle" dominant-baseline="central" id="text-form-1" class="form-label root" style="font-weight: 700;">гIахӏкъвшватI</text></svg><svg x="50.195664405822754" y="40" width="64.45248031616211" height="30" style="overflow: visible;"><rect width="64.45248031616211" height="30" id="pos-1" class="pos" attr="upostag" subId="1" rx="5" ry="5" style="fill: rgb(175, 162, 255); stroke: rgb(0, 0, 0); stroke-width: 2px;"/><text x="50%" y="50%" class="pos-label" id="text-pos-1" text-anchor="middle" dominant-baseline="central">VERB</text></svg></svg><defs><marker id="end" viewBox="0 -5 10 10" refX="2" refY="2" markerWidth="15" markerHeight="15" orient="auto" style="fill: rgb(17, 17, 17);"><path d="M 1 1 L 3 2 L 1 3 Z"/></marker></defs><path class="dependency" attr="deprel" marker-end="url(#end)" d="M 475,100 L 469.75,67.5 C 464.5,35 457.15,35 449.79999999999995,35 L 449.79999999999995,35 407.75268745422363,35M 356.24731254577637,35 L 314.20000000000005,35 C306.85,35 299.5,35 294.25,67.5 L289,94" id="dep_0_1" num="3" style="stroke-width: 4px; fill: none; stroke: rgb(17, 17, 17); opacity: 0.766;"/><line x1="490" y1="2.5" x2="490" y2="93" class="root-deprel" marker-end="url(#end)" style="stroke: rgb(17, 17, 17); opacity: 0.766; stroke-width: 4px;"/><text id="text-dep_0_1" class="deprel-label" transform="translate(382,35)" y="-1" text-anchor="middle" dominant-baseline="central" style="cursor: pointer; text-shadow: rgb(255, 255, 255) 1px 1px 5px;">⊲obj</text><text x="490" y="-8.5" class="root-deprel-label" text-anchor="middle" dominant-baseline="central" style="text-shadow: rgb(255, 255, 255) 1px 1px 5px;">ROOT</text></g></svg>