<svg xmlns="http://www.w3.org/2000/svg" width="1440" height="314" id="graph-svg" style="background: white; font-family: Arial; font-size: 20px;"><g id="graph-g" transform="translate(-70.97841568595686,128.9249330713468) scale(0.741233504901446)"><svg id="token-0" width="88.15076541900635" height="70" y="100" style="overflow: visible; cursor: pointer;" x="162.14740142822257"><line x1="44.075382709503174" y1="30" x2="44.075382709503174" y2="40" class="pos-edge" style="stroke: rgb(72, 72, 72); stroke-width: 3;"/><svg x="67.03120803833008" width="21.11955738067627" height="30" style="overflow: visible;"><path d="M0,0h16.11955738067627a5,5 0 0 1 5,5v20a5,5 0 0 1 -5,5h-16.11955738067627z" class="tokenNum" style="fill: rgb(175, 162, 255); stroke: rgb(0, 0, 0); stroke-width: 2px;"/><text class="tokenNum-label" x="50%" y="50%" text-anchor="middle" dominant-baseline="central">1</text></svg><svg width="67.03120803833008" height="30" id="group-0" class="token" subId="0" style="overflow: visible;"><path d="M67.03120803833008,0h-62.03120803833008a5,5 1 0 0 -5,5v20a5,5 1 0 0 5,5h62.03120803833008z" id="form-0" attr="form" subId="0" class="form" num="1" style="fill: rgb(127, 161, 255); stroke: rgb(0, 0, 0); stroke-width: 2px;"/><text x="50%" y="50%" text-anchor="middle" dominant-baseline="central" id="text-form-0" class="form-label">осман</text></svg><svg x="3.524418354034424" y="40" width="81.1019287109375" height="30" style="overflow: visible;"><rect width="81.1019287109375" height="30" id="pos-0" class="pos" attr="upostag" subId="0" rx="5" ry="5" style="fill: rgb(175, 162, 255); stroke: rgb(0, 0, 0); stroke-width: 2px;"/><text x="50%" y="50%" class="pos-label" id="text-pos-0" text-anchor="middle" dominant-baseline="central">PROPN</text></svg></svg><svg id="token-1" width="114.6479845046997" height="70" y="100" style="overflow: visible; cursor: pointer;" x="298.14740142822257"><line x1="57.32399225234985" y1="30" x2="57.32399225234985" y2="40" class="pos-edge" style="stroke: rgb(72, 72, 72); stroke-width: 3;"/><svg x="93.52842712402344" width="21.11955738067627" height="30" style="overflow: visible;"><path d="M0,0h16.11955738067627a5,5 0 0 1 5,5v20a5,5 0 0 1 -5,5h-16.11955738067627z" class="tokenNum" style="fill: rgb(175, 162, 255); stroke: rgb(0, 0, 0); stroke-width: 2px;"/><text class="tokenNum-label" x="50%" y="50%" text-anchor="middle" dominant-baseline="central">2</text></svg><svg width="93.52842712402344" height="30" id="group-1" class="token" subId="1" style="overflow: visible;"><path d="M93.52842712402344,0h-88.52842712402344a5,5 1 0 0 -5,5v20a5,5 1 0 0 5,5h88.52842712402344z" id="form-1" attr="form" subId="1" class="form" num="2" style="fill: rgb(127, 161, 255); stroke: rgb(0, 0, 0); stroke-width: 2px;"/><text x="50%" y="50%" text-anchor="middle" dominant-baseline="central" id="text-form-1" class="form-label">данпсгьи</text></svg><svg x="25.09952211380005" y="40" width="64.44894027709961" height="30" style="overflow: visible;"><rect width="64.44894027709961" height="30" id="pos-1" class="pos" attr="upostag" subId="1" rx="5" ry="5" style="fill: rgb(175, 162, 255); stroke: rgb(0, 0, 0); stroke-width: 2px;"/><text x="50%" y="50%" class="pos-label" id="text-pos-1" text-anchor="middle" dominant-baseline="central">VERB</text></svg></svg><svg id="token-2" width="75.65048694610596" height="70" y="100" style="overflow: visible; cursor: pointer;" x="442.14740142822257"><line x1="37.82524347305298" y1="30" x2="37.82524347305298" y2="40" class="pos-edge" style="stroke: rgb(72, 72, 72); stroke-width: 3;"/><svg x="54.53092956542969" width="21.11955738067627" height="30" style="overflow: visible;"><path d="M0,0h16.11955738067627a5,5 0 0 1 5,5v20a5,5 0 0 1 -5,5h-16.11955738067627z" class="tokenNum" style="fill: rgb(175, 162, 255); stroke: rgb(0, 0, 0); stroke-width: 2px;"/><text class="tokenNum-label" x="50%" y="50%" text-anchor="middle" dominant-baseline="central">3</text></svg><svg width="54.53092956542969" height="30" id="group-2" class="token" subId="2" style="overflow: visible;"><path d="M54.53092956542969,0h-49.53092956542969a5,5 1 0 0 -5,5v20a5,5 1 0 0 5,5h49.53092956542969z" id="form-2" attr="form" subId="2" class="form" num="3" style="fill: rgb(127, 161, 255); stroke: rgb(0, 0, 0); stroke-width: 2px;"/><text x="50%" y="50%" text-anchor="middle" dominant-baseline="central" id="text-form-2" class="form-label">йара</text></svg><svg x="3.9407429695129395" y="40" width="67.76900100708008" height="30" style="overflow: visible;"><rect width="67.76900100708008" height="30" id="pos-2" class="pos" attr="upostag" subId="2" rx="5" ry="5" style="fill: rgb(175, 162, 255); stroke: rgb(0, 0, 0); stroke-width: 2px;"/><text x="50%" y="50%" class="pos-label" id="text-pos-2" text-anchor="middle" dominant-baseline="central">PRON</text></svg></svg><svg id="token-3" width="86.52762699127197" height="70" y="100" style="overflow: visible; cursor: pointer;" x="548.1474014282226"><line x1="43.263813495635986" y1="30" x2="43.263813495635986" y2="40" class="pos-edge" style="stroke: rgb(72, 72, 72); stroke-width: 3;"/><svg x="65.4080696105957" width="21.11955738067627" height="30" style="overflow: visible;"><path d="M0,0h16.11955738067627a5,5 0 0 1 5,5v20a5,5 0 0 1 -5,5h-16.11955738067627z" class="tokenNum" style="fill: rgb(175, 162, 255); stroke: rgb(0, 0, 0); stroke-width: 2px;"/><text class="tokenNum-label" x="50%" y="50%" text-anchor="middle" dominant-baseline="central">4</text></svg><svg width="65.4080696105957" height="30" id="group-3" class="token" subId="3" style="overflow: visible;"><path d="M65.4080696105957,0h-60.4080696105957a5,5 1 0 0 -5,5v20a5,5 1 0 0 5,5h60.4080696105957z" id="form-3" attr="form" subId="3" class="form" num="4" style="fill: rgb(127, 161, 255); stroke: rgb(0, 0, 0); stroke-width: 2px;"/><text x="50%" y="50%" text-anchor="middle" dominant-baseline="central" id="text-form-3" class="form-label">ауаъа</text></svg><svg x="17.705807209014893" y="40" width="51.11601257324219" height="30" style="overflow: visible;"><rect width="51.11601257324219" height="30" id="pos-3" class="pos" attr="upostag" subId="3" rx="5" ry="5" style="fill: rgb(175, 162, 255); stroke: rgb(0, 0, 0); stroke-width: 2px;"/><text x="50%" y="50%" class="pos-label" id="text-pos-3" text-anchor="middle" dominant-baseline="central">ADV</text></svg></svg><svg id="token-4" width="157.50307941436768" height="70" y="100" style="overflow: visible; cursor: pointer;" x="684.976863861084"><line x1="78.75153970718384" y1="30" x2="78.75153970718384" y2="40" class="pos-edge" style="stroke: rgb(72, 72, 72); stroke-width: 3;"/><svg x="136.3835220336914" width="21.11955738067627" height="30" style="overflow: visible;"><path d="M0,0h16.11955738067627a5,5 0 0 1 5,5v20a5,5 0 0 1 -5,5h-16.11955738067627z" class="tokenNum root" style="fill: rgb(175, 162, 255); stroke: rgb(0, 0, 0); stroke-width: 4px;"/><text class="tokenNum-label root" x="50%" y="50%" text-anchor="middle" dominant-baseline="central" style="font-weight: 700;">5</text></svg><svg width="136.3835220336914" height="30" id="group-4" class="token" subId="4" style="overflow: visible;"><path d="M136.3835220336914,0h-131.3835220336914a5,5 1 0 0 -5,5v20a5,5 1 0 0 5,5h131.3835220336914z" id="form-4" attr="form" subId="4" class="form root" num="5" style="fill: rgb(127, 161, 255); stroke: rgb(0, 0, 0); stroke-width: 4px;"/><text x="50%" y="50%" text-anchor="middle" dominant-baseline="central" id="text-form-4" class="form-label root" style="font-weight: 700;">дыцIарцIахтI</text></svg><svg x="46.52706956863403" y="40" width="64.44894027709961" height="30" style="overflow: visible;"><rect width="64.44894027709961" height="30" id="pos-4" class="pos" attr="upostag" subId="4" rx="5" ry="5" style="fill: rgb(175, 162, 255); stroke: rgb(0, 0, 0); stroke-width: 2px;"/><text x="50%" y="50%" class="pos-label" id="text-pos-4" text-anchor="middle" dominant-baseline="central">VERB</text></svg></svg><defs><marker id="end" viewBox="0 -5 10 10" refX="2" refY="2" markerWidth="15" markerHeight="15" orient="auto" style="fill: rgb(17, 17, 17);"><path d="M 1 1 L 3 2 L 1 3 Z"/></marker></defs><path class="dependency" attr="deprel" marker-end="url(#end)" d="M 340,100 L 334.75,67.5 C 329.5,35 322.15,35 314.79999999999995,35 L 314.79999999999995,35 309.3086681365967,35M 236.69133186340332,35 L 231.2,35 C223.85,35 216.5,35 211.25,67.5 L206,94" id="dep_0_1" num="6" style="stroke-width: 4px; fill: none; stroke: rgb(17, 17, 17); opacity: 0.766;"/><path class="dependency" attr="deprel" marker-end="url(#end)" d="M 747.5,100 L 731.75,2.5 C 716,-95 693.95,-95 671.9000000000001,-95 L 671.9000000000001,-95 590.8892669677734,-95M 511.61073303222656,-95 L 430.6,-95 C408.55,-95 386.5,-95 370.75,2.5 L355,94" id="dep_1_4" num="7" style="stroke-width: 4px; fill: none; stroke: rgb(17, 17, 17); opacity: 0.766;"/><path class="dependency" attr="deprel" marker-end="url(#end)" d="M 747.5,100 L 737,35 C 726.5,-30 711.8,-30 697.0999999999999,-30 L 697.0999999999999,-30 639.2529945373535,-30M 587.7470054626465,-30 L 529.9000000000001,-30 C515.2,-30 500.5,-30 490,35 L479.5,94" id="dep_2_4" num="8" style="stroke-width: 4px; fill: none; stroke: rgb(17, 17, 17); opacity: 0.766;"/><path class="dependency" attr="deprel" marker-end="url(#end)" d="M 747.5,100 L 742.25,67.5 C 737,35 729.65,35 722.3,35 L 722.3,35 717.2262992858887,35M 621.2737007141113,35 L 616.2,35 C608.85,35 601.5,35 596.25,67.5 L591,94" id="dep_3_4" num="9" style="stroke-width: 4px; fill: none; stroke: rgb(17, 17, 17); opacity: 0.766;"/><line x1="762.5" y1="-127.5" x2="762.5" y2="93" class="root-deprel" marker-end="url(#end)" style="stroke: rgb(17, 17, 17); opacity: 0.766; stroke-width: 4px;"/><text id="text-dep_0_1" class="deprel-label" transform="translate(273,35)" y="-1" text-anchor="middle" dominant-baseline="central" style="cursor: pointer; text-shadow: rgb(255, 255, 255) 1px 1px 5px;">⊲nsubj</text><text id="text-dep_1_4" class="deprel-label" transform="translate(551.25,-95)" y="-1" text-anchor="middle" dominant-baseline="central" style="cursor: pointer; text-shadow: rgb(255, 255, 255) 1px 1px 5px;">⊲obl:rel</text><text id="text-dep_2_4" class="deprel-label" transform="translate(613.5,-30)" y="-1" text-anchor="middle" dominant-baseline="central" style="cursor: pointer; text-shadow: rgb(255, 255, 255) 1px 1px 5px;">⊲obj</text><text id="text-dep_3_4" class="deprel-label" transform="translate(669.25,35)" y="-1" text-anchor="middle" dominant-baseline="central" style="cursor: pointer; text-shadow: rgb(255, 255, 255) 1px 1px 5px;">⊲advmod</text><text x="762.5" y="-138.5" class="root-deprel-label" text-anchor="middle" dominant-baseline="central" style="text-shadow: rgb(255, 255, 255) 1px 1px 5px;">ROOT</text></g></svg>