<svg xmlns="http://www.w3.org/2000/svg" width="1440" height="314" id="graph-svg" style="background: white; font-family: Arial; font-size: 20px;"><g id="graph-g" transform="translate(-88.35881687536983,127.04627392122876) scale(0.7599624282007863)"><svg id="token-0" width="92.24863529205322" height="70" y="100" style="overflow: visible; cursor: pointer;" x="200"><line x1="46.12431764602661" y1="30" x2="46.12431764602661" y2="40" class="pos-edge" style="stroke: rgb(72, 72, 72); stroke-width: 3;"/><svg x="71.12555313110352" width="21.123082160949707" height="30" style="overflow: visible;"><path d="M0,0h16.123082160949707a5,5 0 0 1 5,5v20a5,5 0 0 1 -5,5h-16.123082160949707z" class="tokenNum" style="fill: rgb(175, 162, 255); stroke: rgb(0, 0, 0); stroke-width: 2px;"/><text class="tokenNum-label" x="50%" y="50%" text-anchor="middle" dominant-baseline="central">1</text></svg><svg width="71.12555313110352" height="30" id="group-0" class="token" subId="0" style="overflow: visible;"><path d="M71.12555313110352,0h-66.12555313110352a5,5 1 0 0 -5,5v20a5,5 1 0 0 5,5h66.12555313110352z" id="form-0" attr="form" subId="0" class="form" num="1" style="fill: rgb(127, 161, 255); stroke: rgb(0, 0, 0); stroke-width: 2px;"/><text x="50%" y="50%" text-anchor="middle" dominant-baseline="central" id="text-form-0" class="form-label">саргьи</text></svg><svg x="12.23719835281372" y="40" width="67.77423858642578" height="30" style="overflow: visible;"><rect width="67.77423858642578" height="30" id="pos-0" class="pos" attr="upostag" subId="0" rx="5" ry="5" style="fill: rgb(175, 162, 255); stroke: rgb(0, 0, 0); stroke-width: 2px;"/><text x="50%" y="50%" class="pos-label" id="text-pos-0" text-anchor="middle" dominant-baseline="central">PRON</text></svg></svg><svg id="token-1" width="162.50293445587158" height="70" y="100" style="overflow: visible; cursor: pointer;" x="322.2486352920532"><line x1="81.25146722793579" y1="30" x2="81.25146722793579" y2="40" class="pos-edge" style="stroke: rgb(72, 72, 72); stroke-width: 3;"/><svg x="141.37985229492188" width="21.123082160949707" height="30" style="overflow: visible;"><path d="M0,0h16.123082160949707a5,5 0 0 1 5,5v20a5,5 0 0 1 -5,5h-16.123082160949707z" class="tokenNum" style="fill: rgb(175, 162, 255); stroke: rgb(0, 0, 0); stroke-width: 2px;"/><text class="tokenNum-label" x="50%" y="50%" text-anchor="middle" dominant-baseline="central">2</text></svg><svg width="141.37985229492188" height="30" id="group-1" class="token" subId="1" style="overflow: visible;"><path d="M141.37985229492188,0h-136.37985229492188a5,5 1 0 0 -5,5v20a5,5 1 0 0 5,5h136.37985229492188z" id="form-1" attr="form" subId="1" class="form" num="2" style="fill: rgb(127, 161, 255); stroke: rgb(0, 0, 0); stroke-width: 2px;"/><text x="50%" y="50%" text-anchor="middle" dominant-baseline="central" id="text-form-1" class="form-label">сымкъвахуата</text></svg><svg x="55.6912407875061" y="40" width="51.120452880859375" height="30" style="overflow: visible;"><rect width="51.120452880859375" height="30" id="pos-1" class="pos" attr="upostag" subId="1" rx="5" ry="5" style="fill: rgb(175, 162, 255); stroke: rgb(0, 0, 0); stroke-width: 2px;"/><text x="50%" y="50%" class="pos-label" id="text-pos-1" text-anchor="middle" dominant-baseline="central">ADV</text></svg></svg><svg id="token-2" width="104.71841144561768" height="70" y="100" style="overflow: visible; cursor: pointer;" x="514.7515697479248"><line x1="52.35920572280884" y1="30" x2="52.35920572280884" y2="40" class="pos-edge" style="stroke: rgb(72, 72, 72); stroke-width: 3;"/><svg x="83.59532928466797" width="21.123082160949707" height="30" style="overflow: visible;"><path d="M0,0h16.123082160949707a5,5 0 0 1 5,5v20a5,5 0 0 1 -5,5h-16.123082160949707z" class="tokenNum" style="fill: rgb(175, 162, 255); stroke: rgb(0, 0, 0); stroke-width: 2px;"/><text class="tokenNum-label" x="50%" y="50%" text-anchor="middle" dominant-baseline="central">3</text></svg><svg width="83.59532928466797" height="30" id="group-2" class="token" subId="2" style="overflow: visible;"><path d="M83.59532928466797,0h-78.59532928466797a5,5 1 0 0 -5,5v20a5,5 1 0 0 5,5h78.59532928466797z" id="form-2" attr="form" subId="2" class="form" num="3" style="fill: rgb(127, 161, 255); stroke: rgb(0, 0, 0); stroke-width: 2px;"/><text x="50%" y="50%" text-anchor="middle" dominant-baseline="central" id="text-form-2" class="form-label">саратов</text></svg><svg x="11.805433750152588" y="40" width="81.1075439453125" height="30" style="overflow: visible;"><rect width="81.1075439453125" height="30" id="pos-2" class="pos" attr="upostag" subId="2" rx="5" ry="5" style="fill: rgb(175, 162, 255); stroke: rgb(0, 0, 0); stroke-width: 2px;"/><text x="50%" y="50%" class="pos-label" id="text-pos-2" text-anchor="middle" dominant-baseline="central">PROPN</text></svg></svg><svg id="token-3" width="116.11906147003174" height="70" y="100" style="overflow: visible; cursor: pointer;" x="649.4699811935425"><line x1="58.05953073501587" y1="30" x2="58.05953073501587" y2="40" class="pos-edge" style="stroke: rgb(72, 72, 72); stroke-width: 3;"/><svg x="94.99597930908203" width="21.123082160949707" height="30" style="overflow: visible;"><path d="M0,0h16.123082160949707a5,5 0 0 1 5,5v20a5,5 0 0 1 -5,5h-16.123082160949707z" class="tokenNum root" style="fill: rgb(175, 162, 255); stroke: rgb(0, 0, 0); stroke-width: 4px;"/><text class="tokenNum-label root" x="50%" y="50%" text-anchor="middle" dominant-baseline="central" style="font-weight: 700;">4</text></svg><svg width="94.99597930908203" height="30" id="group-3" class="token" subId="3" style="overflow: visible;"><path d="M94.99597930908203,0h-89.99597930908203a5,5 1 0 0 -5,5v20a5,5 1 0 0 5,5h89.99597930908203z" id="form-3" attr="form" subId="3" class="form root" num="4" style="fill: rgb(127, 161, 255); stroke: rgb(0, 0, 0); stroke-width: 4px;"/><text x="50%" y="50%" text-anchor="middle" dominant-baseline="central" id="text-form-3" class="form-label root" style="font-weight: 700;">стыцIын</text></svg><svg x="25.83264970779419" y="40" width="64.45376205444336" height="30" style="overflow: visible;"><rect width="64.45376205444336" height="30" id="pos-3" class="pos" attr="upostag" subId="3" rx="5" ry="5" style="fill: rgb(175, 162, 255); stroke: rgb(0, 0, 0); stroke-width: 2px;"/><text x="50%" y="50%" class="pos-label" id="text-pos-3" text-anchor="middle" dominant-baseline="central">VERB</text></svg></svg><svg id="token-4" width="129.9560899734497" height="70" y="100" style="overflow: visible; cursor: pointer;" x="795.5890426635742"><line x1="64.97804498672485" y1="30" x2="64.97804498672485" y2="40" class="pos-edge" style="stroke: rgb(72, 72, 72); stroke-width: 3;"/><svg x="108.8330078125" width="21.123082160949707" height="30" style="overflow: visible;"><path d="M0,0h16.123082160949707a5,5 0 0 1 5,5v20a5,5 0 0 1 -5,5h-16.123082160949707z" class="tokenNum" style="fill: rgb(175, 162, 255); stroke: rgb(0, 0, 0); stroke-width: 2px;"/><text class="tokenNum-label" x="50%" y="50%" text-anchor="middle" dominant-baseline="central">5</text></svg><svg width="108.8330078125" height="30" id="group-4" class="token" subId="4" style="overflow: visible;"><path d="M108.8330078125,0h-103.8330078125a5,5 1 0 0 -5,5v20a5,5 1 0 0 5,5h103.8330078125z" id="form-4" attr="form" subId="4" class="form" num="5" style="fill: rgb(127, 161, 255); stroke: rgb(0, 0, 0); stroke-width: 2px;"/><text x="50%" y="50%" text-anchor="middle" dominant-baseline="central" id="text-form-4" class="form-label">махачкала</text></svg><svg x="24.424273014068604" y="40" width="81.1075439453125" height="30" style="overflow: visible;"><rect width="81.1075439453125" height="30" id="pos-4" class="pos" attr="upostag" subId="4" rx="5" ry="5" style="fill: rgb(175, 162, 255); stroke: rgb(0, 0, 0); stroke-width: 2px;"/><text x="50%" y="50%" class="pos-label" id="text-pos-4" text-anchor="middle" dominant-baseline="central">PROPN</text></svg></svg><svg id="token-5" width="77.96955966949463" height="70" y="100" style="overflow: visible; cursor: pointer;" x="955.5451326370239"><line x1="38.984779834747314" y1="30" x2="38.984779834747314" y2="40" class="pos-edge" style="stroke: rgb(72, 72, 72); stroke-width: 3;"/><svg x="56.84647750854492" width="21.123082160949707" height="30" style="overflow: visible;"><path d="M0,0h16.123082160949707a5,5 0 0 1 5,5v20a5,5 0 0 1 -5,5h-16.123082160949707z" class="tokenNum" style="fill: rgb(175, 162, 255); stroke: rgb(0, 0, 0); stroke-width: 2px;"/><text class="tokenNum-label" x="50%" y="50%" text-anchor="middle" dominant-baseline="central">6</text></svg><svg width="56.84647750854492" height="30" id="group-5" class="token" subId="5" style="overflow: visible;"><path d="M56.84647750854492,0h-51.84647750854492a5,5 1 0 0 -5,5v20a5,5 1 0 0 5,5h51.84647750854492z" id="form-5" attr="form" subId="5" class="form" num="6" style="fill: rgb(127, 161, 255); stroke: rgb(0, 0, 0); stroke-width: 2px;"/><text x="50%" y="50%" text-anchor="middle" dominant-baseline="central" id="text-form-5" class="form-label">сцатI</text></svg><svg x="6.757898807525635" y="40" width="64.45376205444336" height="30" style="overflow: visible;"><rect width="64.45376205444336" height="30" id="pos-5" class="pos" attr="upostag" subId="5" rx="5" ry="5" style="fill: rgb(175, 162, 255); stroke: rgb(0, 0, 0); stroke-width: 2px;"/><text x="50%" y="50%" class="pos-label" id="text-pos-5" text-anchor="middle" dominant-baseline="central">VERB</text></svg></svg><defs><marker id="end" viewBox="0 -5 10 10" refX="2" refY="2" markerWidth="15" markerHeight="15" orient="auto" style="fill: rgb(17, 17, 17);"><path d="M 1 1 L 3 2 L 1 3 Z"/></marker></defs><path class="dependency" attr="deprel" marker-end="url(#end)" d="M 692,100 L 676.25,2.5 C 660.5,-95 638.45,-95 616.4000000000001,-95 L 616.4000000000001,-95 505.31322479248047,-95M 432.68677520751953,-95 L 321.6,-95 C299.55,-95 277.5,-95 261.75,2.5 L246,94" id="dep_0_3" num="7" style="stroke-width: 4px; fill: none; stroke: rgb(17, 17, 17); opacity: 0.766;"/><path class="dependency" attr="deprel" marker-end="url(#end)" d="M 692,100 L 681.5,35 C 671,-30 656.3,-30 641.5999999999999,-30 L 641.5999999999999,-30 583.2529582977295,-30M 511.7470417022705,-30 L 453.4,-30 C438.7,-30 424,-30 413.5,35 L403,94" id="dep_1_3" num="8" style="stroke-width: 4px; fill: none; stroke: rgb(17, 17, 17); opacity: 0.766;"/><path class="dependency" attr="deprel" marker-end="url(#end)" d="M 692,100 L 686.75,67.5 C 681.5,35 674.15,35 666.8,35 L 666.8,35 654.7555484771729,35M 603.2444515228271,35 L 591.2,35 C583.85,35 576.5,35 571.25,67.5 L566,94" id="dep_2_3" num="9" style="stroke-width: 4px; fill: none; stroke: rgb(17, 17, 17); opacity: 0.766;"/><path class="dependency" attr="deprel" marker-end="url(#end)" d="M 978.5,100 L 973.25,67.5 C 968,35 960.65,35 953.3,35 L 953.3,35 944.7555484771729,35M 893.2444515228271,35 L 884.7,35 C877.35,35 870,35 864.75,67.5 L859.5,94" id="dep_4_5" num="10" style="stroke-width: 4px; fill: none; stroke: rgb(17, 17, 17); opacity: 0.766;"/><path class="dependency" attr="deprel" marker-end="url(#end)" d="M 722,100 L 732.5,35 C 743,-30 757.7,-30 772.4000000000001,-30 L 772.4000000000001,-30 826.9983158111572,-30M 888.5016841888428,-30 L 943.0999999999999,-30 C957.8,-30 972.5,-30 983,35 L993.5,94" id="dep_5_3" num="11" style="stroke-width: 4px; fill: none; stroke: rgb(17, 17, 17); opacity: 0.766;"/><line x1="707" y1="-127.5" x2="707" y2="93" class="root-deprel" marker-end="url(#end)" style="stroke: rgb(17, 17, 17); opacity: 0.766; stroke-width: 4px;"/><text id="text-dep_0_3" class="deprel-label" transform="translate(469,-95)" y="-1" text-anchor="middle" dominant-baseline="central" style="cursor: pointer; text-shadow: rgb(255, 255, 255) 1px 1px 5px;">⊲nsubj</text><text id="text-dep_1_3" class="deprel-label" transform="translate(547.5,-30)" y="-1" text-anchor="middle" dominant-baseline="central" style="cursor: pointer; text-shadow: rgb(255, 255, 255) 1px 1px 5px;">⊲advcl</text><text id="text-dep_2_3" class="deprel-label" transform="translate(629,35)" y="-1" text-anchor="middle" dominant-baseline="central" style="cursor: pointer; text-shadow: rgb(255, 255, 255) 1px 1px 5px;">⊲obl</text><text id="text-dep_4_5" class="deprel-label" transform="translate(919,35)" y="-1" text-anchor="middle" dominant-baseline="central" style="cursor: pointer; text-shadow: rgb(255, 255, 255) 1px 1px 5px;">⊲obl</text><text id="text-dep_5_3" class="deprel-label" transform="translate(857.75,-30)" y="-1" text-anchor="middle" dominant-baseline="central" style="cursor: pointer; text-shadow: rgb(255, 255, 255) 1px 1px 5px;">conj⊳</text><text x="707" y="-138.5" class="root-deprel-label" text-anchor="middle" dominant-baseline="central" style="text-shadow: rgb(255, 255, 255) 1px 1px 5px;">ROOT</text></g></svg>