<svg xmlns="http://www.w3.org/2000/svg" width="1440" height="314" id="graph-svg" style="background: white; font-family: Arial; font-size: 20px;"><g id="graph-g" transform="translate(-71.41506895049781,91.7214745975873) scale(0.7900413118634055)"><svg id="token-0" width="52.2471284866333" height="70" y="100" style="overflow: visible; cursor: pointer;" x="192.869676208496"><line x1="26.12356424331665" y1="30" x2="26.12356424331665" y2="40" class="pos-edge" style="stroke: rgb(72, 72, 72); stroke-width: 3;"/><svg x="31.122314453125" width="21.1248140335083" height="30" style="overflow: visible;"><path d="M0,0h16.1248140335083a5,5 0 0 1 5,5v20a5,5 0 0 1 -5,5h-16.1248140335083z" class="tokenNum" style="fill: rgb(175, 162, 255); stroke: rgb(0, 0, 0); stroke-width: 2px;"/><text class="tokenNum-label" x="50%" y="50%" text-anchor="middle" dominant-baseline="central">1</text></svg><svg width="31.122314453125" height="30" id="group-0" class="token" subId="0" style="overflow: visible;"><path d="M31.122314453125,0h-26.122314453125a5,5 1 0 0 -5,5v20a5,5 1 0 0 5,5h26.122314453125z" id="form-0" attr="form" subId="0" class="form" num="1" style="fill: rgb(127, 161, 255); stroke: rgb(0, 0, 0); stroke-width: 2px;"/><text x="50%" y="50%" text-anchor="middle" dominant-baseline="central" id="text-form-0" class="form-label">са</text></svg><svg x="-7.771287441253662" y="40" width="67.78970336914062" height="30" style="overflow: visible;"><rect width="67.78970336914062" height="30" id="pos-0" class="pos" attr="upostag" subId="0" rx="5" ry="5" style="fill: rgb(175, 162, 255); stroke: rgb(0, 0, 0); stroke-width: 2px;"/><text x="50%" y="50%" class="pos-label" id="text-pos-0" text-anchor="middle" dominant-baseline="central">PRON</text></svg></svg><svg id="token-1" width="154.47675800323486" height="70" y="100" style="overflow: visible; cursor: pointer;" x="282.869676208496"><line x1="77.23837900161743" y1="30" x2="77.23837900161743" y2="40" class="pos-edge" style="stroke: rgb(72, 72, 72); stroke-width: 3;"/><svg x="133.35194396972656" width="21.1248140335083" height="30" style="overflow: visible;"><path d="M0,0h16.1248140335083a5,5 0 0 1 5,5v20a5,5 0 0 1 -5,5h-16.1248140335083z" class="tokenNum" style="fill: rgb(175, 162, 255); stroke: rgb(0, 0, 0); stroke-width: 2px;"/><text class="tokenNum-label" x="50%" y="50%" text-anchor="middle" dominant-baseline="central">2</text></svg><svg width="133.35194396972656" height="30" id="group-1" class="token" subId="1" style="overflow: visible;"><path d="M133.35194396972656,0h-128.35194396972656a5,5 1 0 0 -5,5v20a5,5 1 0 0 5,5h128.35194396972656z" id="form-1" attr="form" subId="1" class="form" num="2" style="fill: rgb(127, 161, 255); stroke: rgb(0, 0, 0); stroke-width: 2px;"/><text x="50%" y="50%" text-anchor="middle" dominant-baseline="central" id="text-form-1" class="form-label">зымгIвалагьи</text></svg><svg x="42.794703006744385" y="40" width="68.8873519897461" height="30" style="overflow: visible;"><rect width="68.8873519897461" height="30" id="pos-1" class="pos" attr="upostag" subId="1" rx="5" ry="5" style="fill: rgb(175, 162, 255); stroke: rgb(0, 0, 0); stroke-width: 2px;"/><text x="50%" y="50%" class="pos-label" id="text-pos-1" text-anchor="middle" dominant-baseline="central">NOUN</text></svg></svg><svg id="token-2" width="112.77600574493408" height="70" y="100" style="overflow: visible; cursor: pointer;" x="467.869676208496"><line x1="56.38800287246704" y1="30" x2="56.38800287246704" y2="40" class="pos-edge" style="stroke: rgb(72, 72, 72); stroke-width: 3;"/><svg x="91.65119171142578" width="21.1248140335083" height="30" style="overflow: visible;"><path d="M0,0h16.1248140335083a5,5 0 0 1 5,5v20a5,5 0 0 1 -5,5h-16.1248140335083z" class="tokenNum" style="fill: rgb(175, 162, 255); stroke: rgb(0, 0, 0); stroke-width: 2px;"/><text class="tokenNum-label" x="50%" y="50%" text-anchor="middle" dominant-baseline="central">3</text></svg><svg width="91.65119171142578" height="30" id="group-2" class="token" subId="2" style="overflow: visible;"><path d="M91.65119171142578,0h-86.65119171142578a5,5 1 0 0 -5,5v20a5,5 1 0 0 5,5h86.65119171142578z" id="form-2" attr="form" subId="2" class="form" num="3" style="fill: rgb(127, 161, 255); stroke: rgb(0, 0, 0); stroke-width: 2px;"/><text x="50%" y="50%" text-anchor="middle" dominant-baseline="central" id="text-form-2" class="form-label">сбзабгьи</text></svg><svg x="24.154457569122314" y="40" width="64.46709060668945" height="30" style="overflow: visible;"><rect width="64.46709060668945" height="30" id="pos-2" class="pos" attr="upostag" subId="2" rx="5" ry="5" style="fill: rgb(175, 162, 255); stroke: rgb(0, 0, 0); stroke-width: 2px;"/><text x="50%" y="50%" class="pos-label" id="text-pos-2" text-anchor="middle" dominant-baseline="central">VERB</text></svg></svg><svg id="token-3" width="116.74138355255127" height="70" y="100" style="overflow: visible; cursor: pointer;" x="625.0424671173096"><line x1="58.370691776275635" y1="30" x2="58.370691776275635" y2="40" class="pos-edge" style="stroke: rgb(72, 72, 72); stroke-width: 3;"/><svg x="95.61656951904297" width="21.1248140335083" height="30" style="overflow: visible;"><path d="M0,0h16.1248140335083a5,5 0 0 1 5,5v20a5,5 0 0 1 -5,5h-16.1248140335083z" class="tokenNum root" style="fill: rgb(175, 162, 255); stroke: rgb(0, 0, 0); stroke-width: 4px;"/><text class="tokenNum-label root" x="50%" y="50%" text-anchor="middle" dominant-baseline="central" style="font-weight: 700;">4</text></svg><svg width="95.61656951904297" height="30" id="group-3" class="token" subId="3" style="overflow: visible;"><path d="M95.61656951904297,0h-90.61656951904297a5,5 1 0 0 -5,5v20a5,5 1 0 0 5,5h90.61656951904297z" id="form-3" attr="form" subId="3" class="form root" num="4" style="fill: rgb(127, 161, 255); stroke: rgb(0, 0, 0); stroke-width: 4px;"/><text x="50%" y="50%" text-anchor="middle" dominant-baseline="central" id="text-form-3" class="form-label root" style="font-weight: 700;">гьсхIвум</text></svg><svg x="26.137146472930908" y="40" width="64.46709060668945" height="30" style="overflow: visible;"><rect width="64.46709060668945" height="30" id="pos-3" class="pos" attr="upostag" subId="3" rx="5" ry="5" style="fill: rgb(175, 162, 255); stroke: rgb(0, 0, 0); stroke-width: 2px;"/><text x="50%" y="50%" class="pos-label" id="text-pos-3" text-anchor="middle" dominant-baseline="central">VERB</text></svg></svg><defs><marker id="end" viewBox="0 -5 10 10" refX="2" refY="2" markerWidth="15" markerHeight="15" orient="auto" style="fill: rgb(17, 17, 17);"><path d="M 1 1 L 3 2 L 1 3 Z"/></marker></defs><path class="dependency" attr="deprel" marker-end="url(#end)" d="M 508,100 L 497.5,35 C 487,-30 472.3,-30 457.6,-30 L 457.6,-30 399.31758880615234,-30M 326.68241119384766,-30 L 268.4,-30 C253.7,-30 239,-30 228.5,35 L218,94" id="dep_0_2" num="5" style="stroke-width: 4px; fill: none; stroke: rgb(17, 17, 17); opacity: 0.766;"/><path class="dependency" attr="deprel" marker-end="url(#end)" d="M 508,100 L 502.75,67.5 C 497.5,35 490.15,35 482.79999999999995,35 L 482.79999999999995,35 459.25643157958984,35M 407.74356842041016,35 L 384.20000000000005,35 C376.85,35 369.5,35 364.25,67.5 L359,94" id="dep_1_2" num="6" style="stroke-width: 4px; fill: none; stroke: rgb(17, 17, 17); opacity: 0.766;"/><path class="dependency" attr="deprel" marker-end="url(#end)" d="M 668,100 L 662.75,67.5 C 657.5,35 650.15,35 642.8,35 L 642.8,35 637.365161895752,35M 553.634838104248,35 L 548.2,35 C540.85,35 533.5,35 528.25,67.5 L523,94" id="dep_2_3" num="7" style="stroke-width: 4px; fill: none; stroke: rgb(17, 17, 17); opacity: 0.766;"/><line x1="683" y1="-62.5" x2="683" y2="93" class="root-deprel" marker-end="url(#end)" style="stroke: rgb(17, 17, 17); opacity: 0.766; stroke-width: 4px;"/><text id="text-dep_0_2" class="deprel-label" transform="translate(363,-30)" y="-1" text-anchor="middle" dominant-baseline="central" style="cursor: pointer; text-shadow: rgb(255, 255, 255) 1px 1px 5px;">⊲nsubj</text><text id="text-dep_1_2" class="deprel-label" transform="translate(433.5,35)" y="-1" text-anchor="middle" dominant-baseline="central" style="cursor: pointer; text-shadow: rgb(255, 255, 255) 1px 1px 5px;">⊲obl</text><text id="text-dep_2_3" class="deprel-label" transform="translate(595.5,35)" y="-1" text-anchor="middle" dominant-baseline="central" style="cursor: pointer; text-shadow: rgb(255, 255, 255) 1px 1px 5px;">⊲ccomp</text><text x="683" y="-73.5" class="root-deprel-label" text-anchor="middle" dominant-baseline="central" style="text-shadow: rgb(255, 255, 255) 1px 1px 5px;">ROOT</text></g></svg>