<svg xmlns="http://www.w3.org/2000/svg" width="1792" height="679" id="graph-svg" style="background: white none repeat scroll 0% 0%; font-family: Arial; font-size: 20px;"><g id="graph-g" transform="translate(-43.64139796529014,215.89433140800503) scale(0.8179020585577823)"><svg id="token-0" width="75.58926010131836" height="70" y="100" style="overflow: visible; cursor: pointer;" x="127.88192520141592"><line x1="37.79463005065918" y1="30" x2="37.79463005065918" y2="40" class="pos-edge" style="stroke: rgb(72, 72, 72); stroke-width: 3px;"/><svg x="54.46803283691406" width="21.121227264404297" height="30" style="overflow: visible;"><path d="M0,0h16.121227264404297a5,5 0 0 1 5,5v20a5,5 0 0 1 -5,5h-16.121227264404297z" class="tokenNum" style="fill: rgb(175, 162, 255); stroke: rgb(0, 0, 0); stroke-width: 2px;"/><text class="tokenNum-label" x="50%" y="50%" text-anchor="middle" dominant-baseline="central">1</text></svg><svg width="54.46803283691406" height="30" id="group-0" class="token" subId="0" style="overflow: visible;"><path d="M54.46803283691406,0h-49.46803283691406a5,5 1 0 0 -5,5v20a5,5 1 0 0 5,5h49.46803283691406z" id="form-0" attr="form" subId="0" class="form" num="1" style="fill: rgb(127, 161, 255); stroke: rgb(0, 0, 0); stroke-width: 2px;"/><text x="50%" y="50%" text-anchor="middle" dominant-baseline="central" id="text-form-0" class="form-label">They</text></svg><svg x="3.903066635131836" y="40" width="67.78312683105469" height="30" style="overflow: visible;"><rect width="67.78312683105469" height="30" id="pos-0" class="pos" attr="upostag" subId="0" rx="5" ry="5" style="fill: rgb(175, 162, 255); stroke: rgb(0, 0, 0); stroke-width: 2px;"/><text x="50%" y="50%" class="pos-label" id="text-pos-0" text-anchor="middle" dominant-baseline="central">PRON</text></svg></svg><svg id="token-1" width="66.67877578735352" height="70" y="100" style="overflow: visible; cursor: pointer;" x="279.8819252014159"><line x1="33.33938789367676" y1="30" x2="33.33938789367676" y2="40" class="pos-edge" style="stroke: rgb(72, 72, 72); stroke-width: 3px;"/><svg x="45.55754852294922" width="21.121227264404297" height="30" style="overflow: visible;"><path d="M0,0h16.121227264404297a5,5 0 0 1 5,5v20a5,5 0 0 1 -5,5h-16.121227264404297z" class="tokenNum root" style="fill: rgb(175, 162, 255); stroke: rgb(0, 0, 0); stroke-width: 4px;"/><text class="tokenNum-label root" x="50%" y="50%" text-anchor="middle" dominant-baseline="central" style="font-weight: 700;">2</text></svg><svg width="45.55754852294922" height="30" id="group-1" class="token" subId="1" style="overflow: visible;"><path d="M45.55754852294922,0h-40.55754852294922a5,5 1 0 0 -5,5v20a5,5 1 0 0 5,5h40.55754852294922z" id="form-1" attr="form" subId="1" class="form root" num="2" style="fill: rgb(127, 161, 255); stroke: rgb(0, 0, 0); stroke-width: 4px;"/><text x="50%" y="50%" text-anchor="middle" dominant-baseline="central" id="text-form-1" class="form-label root" style="font-weight: 700;">buy</text></svg><svg x="1.118539810180664" y="40" width="64.44169616699219" height="30" style="overflow: visible;"><rect width="64.44169616699219" height="30" id="pos-1" class="pos" attr="upostag" subId="1" rx="5" ry="5" style="fill: rgb(175, 162, 255); stroke: rgb(0, 0, 0); stroke-width: 2px;"/><text x="50%" y="50%" class="pos-label" id="text-pos-1" text-anchor="middle" dominant-baseline="central">VERB</text></svg></svg><svg id="token-2" width="64.48490905761719" height="70" y="100" style="overflow: visible; cursor: pointer;" x="376.8819252014159"><line x1="32.242454528808594" y1="30" x2="32.242454528808594" y2="40" class="pos-edge" style="stroke: rgb(72, 72, 72); stroke-width: 3px;"/><svg x="43.36368179321289" width="21.121227264404297" height="30" style="overflow: visible;"><path d="M0,0h16.121227264404297a5,5 0 0 1 5,5v20a5,5 0 0 1 -5,5h-16.121227264404297z" class="tokenNum" style="fill: rgb(175, 162, 255); stroke: rgb(0, 0, 0); stroke-width: 2px;"/><text class="tokenNum-label" x="50%" y="50%" text-anchor="middle" dominant-baseline="central">3</text></svg><svg width="43.36368179321289" height="30" id="group-2" class="token" subId="2" style="overflow: visible;"><path d="M43.36368179321289,0h-38.36368179321289a5,5 1 0 0 -5,5v20a5,5 1 0 0 5,5h38.36368179321289z" id="form-2" attr="form" subId="2" class="form" num="3" style="fill: rgb(127, 161, 255); stroke: rgb(0, 0, 0); stroke-width: 2px;"/><text x="50%" y="50%" text-anchor="middle" dominant-baseline="central" id="text-form-2" class="form-label">and</text></svg><svg x="0.0131683349609375" y="40" width="64.45857238769531" height="30" style="overflow: visible;"><rect width="64.45857238769531" height="30" id="pos-2" class="pos error" attr="upostag" subId="2" rx="5" ry="5" style="fill: rgb(175, 162, 255); stroke: rgb(221, 17, 17); stroke-width: 2px;"/><text x="50%" y="50%" class="pos-label" id="text-pos-2" text-anchor="middle" dominant-baseline="central">CONJ</text></svg></svg><svg id="token-3" width="64.46803283691406" height="70" y="100" style="overflow: visible; cursor: pointer;" x="496.75294494628906"><line x1="32.23401641845703" y1="30" x2="32.23401641845703" y2="40" class="pos-edge" style="stroke: rgb(72, 72, 72); stroke-width: 3px;"/><svg x="43.346805572509766" width="21.121227264404297" height="30" style="overflow: visible;"><path d="M0,0h16.121227264404297a5,5 0 0 1 5,5v20a5,5 0 0 1 -5,5h-16.121227264404297z" class="tokenNum root" style="fill: rgb(175, 162, 255); stroke: rgb(0, 0, 0); stroke-width: 4px;"/><text class="tokenNum-label root" x="50%" y="50%" text-anchor="middle" dominant-baseline="central" style="font-weight: 700;">4</text></svg><svg width="43.346805572509766" height="30" id="group-3" class="token" subId="3" style="overflow: visible;"><path d="M43.346805572509766,0h-38.346805572509766a5,5 1 0 0 -5,5v20a5,5 1 0 0 5,5h38.346805572509766z" id="form-3" attr="form" subId="3" class="form root" num="4" style="fill: rgb(127, 161, 255); stroke: rgb(0, 0, 0); stroke-width: 4px;"/><text x="50%" y="50%" text-anchor="middle" dominant-baseline="central" id="text-form-3" class="form-label root" style="font-weight: 700;">sell</text></svg><svg x="0.0131683349609375" y="40" width="64.44169616699219" height="30" style="overflow: visible;"><rect width="64.44169616699219" height="30" id="pos-3" class="pos" attr="upostag" subId="3" rx="5" ry="5" style="fill: rgb(175, 162, 255); stroke: rgb(0, 0, 0); stroke-width: 2px;"/><text x="50%" y="50%" class="pos-label" id="text-pos-3" text-anchor="middle" dominant-baseline="central">VERB</text></svg></svg><svg id="token-4" width="84.49974060058594" height="70" y="100" style="overflow: visible; cursor: pointer;" x="611.784059906006"><line x1="42.24987030029297" y1="30" x2="42.24987030029297" y2="40" class="pos-edge" style="stroke: rgb(72, 72, 72); stroke-width: 3px;"/><svg x="63.37851333618164" width="21.121227264404297" height="30" style="overflow: visible;"><path d="M0,0h16.121227264404297a5,5 0 0 1 5,5v20a5,5 0 0 1 -5,5h-16.121227264404297z" class="tokenNum" style="fill: rgb(175, 162, 255); stroke: rgb(0, 0, 0); stroke-width: 2px;"/><text class="tokenNum-label" x="50%" y="50%" text-anchor="middle" dominant-baseline="central">5</text></svg><svg width="63.37851333618164" height="30" id="group-4" class="token" subId="4" style="overflow: visible;"><path d="M63.37851333618164,0h-58.37851333618164a5,5 1 0 0 -5,5v20a5,5 1 0 0 5,5h58.37851333618164z" id="form-4" attr="form" subId="4" class="form" num="5" style="fill: rgb(127, 161, 255); stroke: rgb(0, 0, 0); stroke-width: 2px;"/><text x="50%" y="50%" text-anchor="middle" dominant-baseline="central" id="text-form-4" class="form-label">books</text></svg><svg x="7.801401138305664" y="40" width="68.89693832397461" height="30" style="overflow: visible;"><rect width="68.89693832397461" height="30" id="pos-4" class="pos" attr="upostag" subId="4" rx="5" ry="5" style="fill: rgb(175, 162, 255); stroke: rgb(0, 0, 0); stroke-width: 2px;"/><text x="50%" y="50%" class="pos-label" id="text-pos-4" text-anchor="middle" dominant-baseline="central">NOUN</text></svg></svg><svg id="token-5" width="41.1212272644043" height="70" y="100" style="overflow: visible; cursor: pointer;" x="744.784059906006"><line x1="20.56061363220215" y1="30" x2="20.56061363220215" y2="40" class="pos-edge" style="stroke: rgb(72, 72, 72); stroke-width: 3px;"/><svg x="20" width="21.121227264404297" height="30" style="overflow: visible;"><path d="M0,0h16.121227264404297a5,5 0 0 1 5,5v20a5,5 0 0 1 -5,5h-16.121227264404297z" class="tokenNum" style="fill: rgb(175, 162, 255); stroke: rgb(0, 0, 0); stroke-width: 2px;"/><text class="tokenNum-label" x="50%" y="50%" text-anchor="middle" dominant-baseline="central">6</text></svg><svg width="20" height="30" id="group-5" class="token" subId="5" style="overflow: visible;"><path d="M20,0h-15a5,5 1 0 0 -5,5v20a5,5 1 0 0 5,5h15z" id="form-5" attr="form" subId="5" class="form" num="6" style="fill: rgb(127, 161, 255); stroke: rgb(0, 0, 0); stroke-width: 2px;"/><text x="50%" y="50%" text-anchor="middle" dominant-baseline="central" id="text-form-5" class="form-label">.</text></svg><svg x="-18.883127212524414" y="40" width="78.88748168945312" height="30" style="overflow: visible;"><rect width="78.88748168945312" height="30" id="pos-5" class="pos" attr="upostag" subId="5" rx="5" ry="5" style="fill: rgb(175, 162, 255); stroke: rgb(0, 0, 0); stroke-width: 2px;"/><text x="50%" y="50%" class="pos-label" id="text-pos-5" text-anchor="middle" dominant-baseline="central">PUNCT</text></svg></svg><defs><marker id="end" viewBox="0 -5 10 10" refX="2" refY="2" markerWidth="15" markerHeight="15" orient="auto" style="fill: rgb(17, 17, 17);"><path d="M 1 1 L 3 2 L 1 3 Z"/></marker></defs><path class="dependency" attr="deprel" style="stroke-width: 4px; fill: none; stroke: rgb(17, 17, 17); opacity: 0.766;" marker-end="url(#end)" d="M 297,100 L 291.75,67.5 C 286.5,35 279.15,35 271.79999999999995,35 L 271.79999999999995,35 266.50635147094727,35M 194.99364852905273,35 L 189.7,35 C182.35,35 175,35 169.75,67.5 L164.5,94" id="dep_0_1" num="7"/><path class="dependency" attr="deprel" style="stroke-width: 4px; fill: none; stroke: rgb(17, 17, 17); opacity: 0.766;" marker-end="url(#end)" d="M 513,170 L 507.75,202.5 C 502.5,235 495.15,235 487.79999999999995,235 L 487.79999999999995,235 374.50635147094727,235M 302.99364852905273,235 L 189.7,235 C182.35,235 175,235 169.75,202.5 L164.5,176" id="dep_0_3" num="8"/><path class="dependency" attr="deprel" style="stroke-width: 4px; fill: none; stroke: rgb(17, 17, 17); opacity: 0.766;" marker-end="url(#end)" d="M 513,100 L 507.75,67.5 C 502.5,35 495.15,35 487.79999999999995,35 L 487.79999999999995,35 482.359037399292,35M 438.640962600708,35 L 433.20000000000005,35 C425.85,35 418.5,35 413.25,67.5 L408,94" id="dep_2_3" num="9"/><path class="dependency" attr="deprel" style="stroke-width: 4px; fill: none; stroke: rgb(17, 17, 17); opacity: 0.766;" marker-end="url(#end)" d="M 327,100 L 337.5,35 C 348,-30 362.7,-30 377.4,-30 L 377.4,-30 397.3042621612549,-30M 457.6957378387451,-30 L 477.6,-30 C492.3,-30 507,-30 517.5,35 L528,94" id="dep_3_1" num="10"/><path class="dependency" attr="deprel" style="stroke-width: 4px; fill: none; stroke: rgb(17, 17, 17); opacity: 0.766;" marker-end="url(#end)" d="M 327,100 L 342.75,2.5 C 358.5,-95 380.55,-95 402.6,-95 L 402.6,-95 464.80797004699707,-95M 515.1920299530029,-95 L 577.4000000000001,-95 C599.45,-95 621.5,-95 637.25,2.5 L653,94" id="dep_4_1" num="11"/><path class="dependency" attr="deprel" style="stroke-width: 4px; fill: none; stroke: rgb(17, 17, 17); opacity: 0.766;" marker-end="url(#end)" d="M 543,170 L 548.25,202.5 C 553.5,235 560.85,235 568.2,235 L 568.2,235 572.8079700469971,235M 623.1920299530029,235 L 627.8,235 C635.15,235 642.5,235 647.75,202.5 L653,176" id="dep_4_3" num="12"/><path class="dependency" attr="deprel" style="stroke-width: 4px; fill: none; stroke: rgb(17, 17, 17); opacity: 0.766;" marker-end="url(#end)" d="M 327,100 L 348,-30 C 369,-160 398.4,-160 427.79999999999995,-160 L 427.79999999999995,-160 509.4367427825928,-160M 582.0632572174072,-160 L 663.7,-160 C693.1,-160 722.5,-160 743.5,-30 L764.5,94" id="dep_5_1" num="13"/><line x1="528" y1="-192.5" x2="528" y2="93" class="root-deprel" marker-end="url(#end)" style="stroke: rgb(17, 17, 17); opacity: 0.766; stroke-width: 4px;"/><text id="text-dep_0_1" class="deprel-label" style="cursor: pointer; text-shadow: rgb(255, 255, 255) 1px 1px 5px;" transform="translate(230.75,35)" y="-1" text-anchor="middle" dominant-baseline="central">⊲nsubj</text><text id="text-dep_0_3" class="deprel-label" style="cursor: pointer; text-shadow: rgb(255, 255, 255) 1px 1px 5px;" transform="translate(338.75,235)" y="-1" text-anchor="middle" dominant-baseline="central">⊲nsubj</text><text id="text-dep_2_3" class="deprel-label" style="cursor: pointer; text-shadow: rgb(255, 255, 255) 1px 1px 5px;" transform="translate(460.5,35)" y="-1" text-anchor="middle" dominant-baseline="central">⊲cc</text><text id="text-dep_3_1" class="deprel-label" style="cursor: pointer; text-shadow: rgb(255, 255, 255) 1px 1px 5px;" transform="translate(427.5,-30)" y="-1" text-anchor="middle" dominant-baseline="central">conj⊳</text><text id="text-dep_4_1" class="deprel-label" style="cursor: pointer; text-shadow: rgb(255, 255, 255) 1px 1px 5px;" transform="translate(490,-95)" y="-1" text-anchor="middle" dominant-baseline="central">obj⊳</text><text id="text-dep_4_3" class="deprel-label" style="cursor: pointer; text-shadow: rgb(255, 255, 255) 1px 1px 5px;" transform="translate(598,235)" y="-1" text-anchor="middle" dominant-baseline="central">obj⊳</text><text id="text-dep_5_1" class="deprel-label" style="cursor: pointer; text-shadow: rgb(255, 255, 255) 1px 1px 5px;" transform="translate(545.75,-160)" y="-1" text-anchor="middle" dominant-baseline="central">punct⊳</text><text x="528" y="-203.5" class="root-deprel-label" text-anchor="middle" dominant-baseline="central" style="text-shadow: rgb(255, 255, 255) 1px 1px 5px;">ROOT</text></g></svg>