<svg xmlns="http://www.w3.org/2000/svg" width="1440" height="371" id="graph-svg" style="background: white; font-family: Arial; font-size: 20px;"><g id="graph-g" transform="translate(-72.41002134412088,105.19043572083757) scale(0.8010698775896505)"><svg id="token-0" width="121.90062808990479" height="70" y="100" style="overflow: visible; cursor: pointer;" x="200"><line x1="60.95031404495239" y1="30" x2="60.95031404495239" y2="40" class="pos-edge" style="stroke: rgb(72, 72, 72); stroke-width: 3;"/><svg x="100.77448272705078" width="21.126145362854004" height="30" style="overflow: visible;"><path d="M0,0h16.126145362854004a5,5 0 0 1 5,5v20a5,5 0 0 1 -5,5h-16.126145362854004z" class="tokenNum" style="fill: rgb(175, 162, 255); stroke: rgb(0, 0, 0); stroke-width: 2px;"/><text class="tokenNum-label" x="50%" y="50%" text-anchor="middle" dominant-baseline="central">1</text></svg><svg width="100.77448272705078" height="30" id="group-0" class="token" subId="0" style="overflow: visible;"><path d="M100.77448272705078,0h-95.77448272705078a5,5 1 0 0 -5,5v20a5,5 1 0 0 5,5h95.77448272705078z" id="form-0" attr="form" subId="0" class="form" num="1" style="fill: rgb(127, 161, 255); stroke: rgb(0, 0, 0); stroke-width: 2px;"/><text x="50%" y="50%" text-anchor="middle" dominant-baseline="central" id="text-form-0" class="form-label">хвабыжта</text></svg><svg x="35.3936562538147" y="40" width="51.11331558227539" height="30" style="overflow: visible;"><rect width="51.11331558227539" height="30" id="pos-0" class="pos" attr="upostag" subId="0" rx="5" ry="5" style="fill: rgb(175, 162, 255); stroke: rgb(0, 0, 0); stroke-width: 2px;"/><text x="50%" y="50%" class="pos-label" id="text-pos-0" text-anchor="middle" dominant-baseline="central">ADV</text></svg></svg><svg id="token-1" width="143.6651315689087" height="70" y="100" style="overflow: visible; cursor: pointer;" x="351.9006280899048"><line x1="71.83256578445435" y1="30" x2="71.83256578445435" y2="40" class="pos-edge" style="stroke: rgb(72, 72, 72); stroke-width: 3;"/><svg x="122.53898620605469" width="21.126145362854004" height="30" style="overflow: visible;"><path d="M0,0h16.126145362854004a5,5 0 0 1 5,5v20a5,5 0 0 1 -5,5h-16.126145362854004z" class="tokenNum root" style="fill: rgb(175, 162, 255); stroke: rgb(0, 0, 0); stroke-width: 4px;"/><text class="tokenNum-label root" x="50%" y="50%" text-anchor="middle" dominant-baseline="central" style="font-weight: 700;">2</text></svg><svg width="122.53898620605469" height="30" id="group-1" class="token" subId="1" style="overflow: visible;"><path d="M122.53898620605469,0h-117.53898620605469a5,5 1 0 0 -5,5v20a5,5 1 0 0 5,5h117.53898620605469z" id="form-1" attr="form" subId="1" class="form root" num="2" style="fill: rgb(127, 161, 255); stroke: rgb(0, 0, 0); stroke-width: 4px;"/><text x="50%" y="50%" text-anchor="middle" dominant-baseline="central" id="text-form-1" class="form-label root" style="font-weight: 700;">сырзыразб</text></svg><svg x="39.60370492935181" y="40" width="64.45772171020508" height="30" style="overflow: visible;"><rect width="64.45772171020508" height="30" id="pos-1" class="pos" attr="upostag" subId="1" rx="5" ry="5" style="fill: rgb(175, 162, 255); stroke: rgb(0, 0, 0); stroke-width: 2px;"/><text x="50%" y="50%" class="pos-label" id="text-pos-1" text-anchor="middle" dominant-baseline="central">VERB</text></svg></svg><svg id="token-2" width="162.27064609527588" height="70" y="100" style="overflow: visible; cursor: pointer;" x="525.5657596588135"><line x1="81.13532304763794" y1="30" x2="81.13532304763794" y2="40" class="pos-edge" style="stroke: rgb(72, 72, 72); stroke-width: 3;"/><svg x="141.14450073242188" width="21.126145362854004" height="30" style="overflow: visible;"><path d="M0,0h16.126145362854004a5,5 0 0 1 5,5v20a5,5 0 0 1 -5,5h-16.126145362854004z" class="tokenNum" style="fill: rgb(175, 162, 255); stroke: rgb(0, 0, 0); stroke-width: 2px;"/><text class="tokenNum-label" x="50%" y="50%" text-anchor="middle" dominant-baseline="central">3</text></svg><svg width="141.14450073242188" height="30" id="group-2" class="token" subId="2" style="overflow: visible;"><path d="M141.14450073242188,0h-136.14450073242188a5,5 1 0 0 -5,5v20a5,5 1 0 0 5,5h136.14450073242188z" id="form-2" attr="form" subId="2" class="form" num="3" style="fill: rgb(127, 161, 255); stroke: rgb(0, 0, 0); stroke-width: 2px;"/><text x="50%" y="50%" text-anchor="middle" dominant-baseline="central" id="text-form-2" class="form-label">зымгIвадзугьи</text></svg><svg x="57.245264530181885" y="40" width="47.78011703491211" height="30" style="overflow: visible;"><rect width="47.78011703491211" height="30" id="pos-2" class="pos" attr="upostag" subId="2" rx="5" ry="5" style="fill: rgb(175, 162, 255); stroke: rgb(0, 0, 0); stroke-width: 2px;"/><text x="50%" y="50%" class="pos-label" id="text-pos-2" text-anchor="middle" dominant-baseline="central">ADJ</text></svg></svg><svg id="token-3" width="128.69477939605713" height="70" y="100" style="overflow: visible; cursor: pointer;" x="717.8364057540894"><line x1="64.34738969802856" y1="30" x2="64.34738969802856" y2="40" class="pos-edge" style="stroke: rgb(72, 72, 72); stroke-width: 3;"/><svg x="107.56863403320312" width="21.126145362854004" height="30" style="overflow: visible;"><path d="M0,0h16.126145362854004a5,5 0 0 1 5,5v20a5,5 0 0 1 -5,5h-16.126145362854004z" class="tokenNum" style="fill: rgb(175, 162, 255); stroke: rgb(0, 0, 0); stroke-width: 2px;"/><text class="tokenNum-label" x="50%" y="50%" text-anchor="middle" dominant-baseline="central">4</text></svg><svg width="107.56863403320312" height="30" id="group-3" class="token" subId="3" style="overflow: visible;"><path d="M107.56863403320312,0h-102.56863403320312a5,5 1 0 0 -5,5v20a5,5 1 0 0 5,5h102.56863403320312z" id="form-3" attr="form" subId="3" class="form" num="4" style="fill: rgb(127, 161, 255); stroke: rgb(0, 0, 0); stroke-width: 2px;"/><text x="50%" y="50%" text-anchor="middle" dominant-baseline="central" id="text-form-3" class="form-label">анхагIвчва</text></svg><svg x="29.911882877349854" y="40" width="68.87101364135742" height="30" style="overflow: visible;"><rect width="68.87101364135742" height="30" id="pos-3" class="pos" attr="upostag" subId="3" rx="5" ry="5" style="fill: rgb(175, 162, 255); stroke: rgb(0, 0, 0); stroke-width: 2px;"/><text x="50%" y="50%" class="pos-label" id="text-pos-3" text-anchor="middle" dominant-baseline="central">NOUN</text></svg></svg><defs><marker id="end" viewBox="0 -5 10 10" refX="2" refY="2" markerWidth="15" markerHeight="15" orient="auto" style="fill: rgb(17, 17, 17);"><path d="M 1 1 L 3 2 L 1 3 Z"/></marker></defs><path class="dependency" attr="deprel" marker-end="url(#end)" d="M 407.5,100 L 402.25,67.5 C 397,35 389.65,35 382.29999999999995,35 L 382.29999999999995,35 381.977352142334,35M 286.022647857666,35 L 285.70000000000005,35 C278.35,35 271,35 265.75,67.5 L260.5,94" id="dep_0_1" num="5" style="stroke-width: 4px; fill: none; stroke: rgb(17, 17, 17); opacity: 0.766;"/><path class="dependency" attr="deprel" marker-end="url(#end)" d="M 766,100 L 760.75,67.5 C 755.5,35 748.15,35 740.8,35 L 740.8,35 723.4202880859375,35M 648.5797119140625,35 L 631.2,35 C623.85,35 616.5,35 611.25,67.5 L606,94" id="dep_2_3" num="6" style="stroke-width: 4px; fill: none; stroke: rgb(17, 17, 17); opacity: 0.766;"/><path class="dependency" attr="deprel" marker-end="url(#end)" d="M 437.5,100 L 448,35 C 458.5,-30 473.2,-30 487.9,-30 L 487.9,-30 581.277645111084,-30M 637.222354888916,-30 L 730.5999999999999,-30 C745.3,-30 760,-30 770.5,35 L781,94" id="dep_3_1" num="7" style="stroke-width: 4px; fill: none; stroke: rgb(17, 17, 17); opacity: 0.766;"/><line x1="422.5" y1="-62.5" x2="422.5" y2="93" class="root-deprel" marker-end="url(#end)" style="stroke: rgb(17, 17, 17); opacity: 0.766; stroke-width: 4px;"/><text id="text-dep_0_1" class="deprel-label" transform="translate(334,35)" y="-1" text-anchor="middle" dominant-baseline="central" style="cursor: pointer; text-shadow: rgb(255, 255, 255) 1px 1px 5px;">⊲advmod</text><text id="text-dep_2_3" class="deprel-label" transform="translate(686,35)" y="-1" text-anchor="middle" dominant-baseline="central" style="cursor: pointer; text-shadow: rgb(255, 255, 255) 1px 1px 5px;">⊲amod</text><text id="text-dep_3_1" class="deprel-label" transform="translate(609.25,-30)" y="-1" text-anchor="middle" dominant-baseline="central" style="cursor: pointer; text-shadow: rgb(255, 255, 255) 1px 1px 5px;">iobj⊳</text><text x="422.5" y="-73.5" class="root-deprel-label" text-anchor="middle" dominant-baseline="central" style="text-shadow: rgb(255, 255, 255) 1px 1px 5px;">ROOT</text></g></svg>