<svg xmlns="http://www.w3.org/2000/svg" width="1440" height="314" id="graph-svg" style="background: white; font-family: Arial; font-size: 20px;"><g id="graph-g" transform="translate(-64.35881687536983,95.04627392122876) scale(0.7599624282007863)"><svg id="token-0" width="71.17440509796143" height="70" y="100" style="overflow: visible; cursor: pointer;" x="131.97107849121085"><line x1="35.58720254898071" y1="30" x2="35.58720254898071" y2="40" class="pos-edge" style="stroke: rgb(72, 72, 72); stroke-width: 3;"/><svg x="50.05132293701172" width="21.123082160949707" height="30" style="overflow: visible;"><path d="M0,0h16.123082160949707a5,5 0 0 1 5,5v20a5,5 0 0 1 -5,5h-16.123082160949707z" class="tokenNum" style="fill: rgb(175, 162, 255); stroke: rgb(0, 0, 0); stroke-width: 2px;"/><text class="tokenNum-label" x="50%" y="50%" text-anchor="middle" dominant-baseline="central">1</text></svg><svg width="50.05132293701172" height="30" id="group-0" class="token" subId="0" style="overflow: visible;"><path d="M50.05132293701172,0h-45.05132293701172a5,5 1 0 0 -5,5v20a5,5 1 0 0 5,5h45.05132293701172z" id="form-0" attr="form" subId="0" class="form" num="1" style="fill: rgb(127, 161, 255); stroke: rgb(0, 0, 0); stroke-width: 2px;"/><text x="50%" y="50%" text-anchor="middle" dominant-baseline="central" id="text-form-0" class="form-label">йгьи</text></svg><svg x="4.845798969268799" y="40" width="61.48280715942383" height="30" style="overflow: visible;"><rect width="61.48280715942383" height="30" id="pos-0" class="pos" attr="upostag" subId="0" rx="5" ry="5" style="fill: rgb(175, 162, 255); stroke: rgb(0, 0, 0); stroke-width: 2px;"/><text x="50%" y="50%" class="pos-label" id="text-pos-0" text-anchor="middle" dominant-baseline="central">PART</text></svg></svg><svg id="token-1" width="71.6370096206665" height="70" y="100" style="overflow: visible; cursor: pointer;" x="232.97107849121085"><line x1="35.81850481033325" y1="30" x2="35.81850481033325" y2="40" class="pos-edge" style="stroke: rgb(72, 72, 72); stroke-width: 3;"/><svg x="50.5139274597168" width="21.123082160949707" height="30" style="overflow: visible;"><path d="M0,0h16.123082160949707a5,5 0 0 1 5,5v20a5,5 0 0 1 -5,5h-16.123082160949707z" class="tokenNum" style="fill: rgb(175, 162, 255); stroke: rgb(0, 0, 0); stroke-width: 2px;"/><text class="tokenNum-label" x="50%" y="50%" text-anchor="middle" dominant-baseline="central">2</text></svg><svg width="50.5139274597168" height="30" id="group-1" class="token" subId="1" style="overflow: visible;"><path d="M50.5139274597168,0h-45.5139274597168a5,5 1 0 0 -5,5v20a5,5 1 0 0 5,5h45.5139274597168z" id="form-1" attr="form" subId="1" class="form" num="2" style="fill: rgb(127, 161, 255); stroke: rgb(0, 0, 0); stroke-width: 2px;"/><text x="50%" y="50%" text-anchor="middle" dominant-baseline="central" id="text-form-1" class="form-label">ауат</text></svg><svg x="1.3813996315002441" y="40" width="68.87421035766602" height="30" style="overflow: visible;"><rect width="68.87421035766602" height="30" id="pos-1" class="pos" attr="upostag" subId="1" rx="5" ry="5" style="fill: rgb(175, 162, 255); stroke: rgb(0, 0, 0); stroke-width: 2px;"/><text x="50%" y="50%" class="pos-label" id="text-pos-1" text-anchor="middle" dominant-baseline="central">NOUN</text></svg></svg><svg id="token-2" width="129.16452503204346" height="70" y="100" style="overflow: visible; cursor: pointer;" x="402.81141471862793"><line x1="64.58226251602173" y1="30" x2="64.58226251602173" y2="40" class="pos-edge" style="stroke: rgb(72, 72, 72); stroke-width: 3;"/><svg x="108.04144287109375" width="21.123082160949707" height="30" style="overflow: visible;"><path d="M0,0h16.123082160949707a5,5 0 0 1 5,5v20a5,5 0 0 1 -5,5h-16.123082160949707z" class="tokenNum" style="fill: rgb(175, 162, 255); stroke: rgb(0, 0, 0); stroke-width: 2px;"/><text class="tokenNum-label" x="50%" y="50%" text-anchor="middle" dominant-baseline="central">3</text></svg><svg width="108.04144287109375" height="30" id="group-2" class="token" subId="2" style="overflow: visible;"><path d="M108.04144287109375,0h-103.04144287109375a5,5 1 0 0 -5,5v20a5,5 1 0 0 5,5h103.04144287109375z" id="form-2" attr="form" subId="2" class="form" num="3" style="fill: rgb(127, 161, 255); stroke: rgb(0, 0, 0); stroke-width: 2px;"/><text x="50%" y="50%" text-anchor="middle" dominant-baseline="central" id="text-form-2" class="form-label">рыбызшва</text></svg><svg x="30.14515733718872" y="40" width="68.87421035766602" height="30" style="overflow: visible;"><rect width="68.87421035766602" height="30" id="pos-2" class="pos" attr="upostag" subId="2" rx="5" ry="5" style="fill: rgb(175, 162, 255); stroke: rgb(0, 0, 0); stroke-width: 2px;"/><text x="50%" y="50%" class="pos-label" id="text-pos-2" text-anchor="middle" dominant-baseline="central">NOUN</text></svg></svg><svg id="token-3" width="183.56688404083252" height="70" y="100" style="overflow: visible; cursor: pointer;" x="561.9759397506714"><line x1="91.78344202041626" y1="30" x2="91.78344202041626" y2="40" class="pos-edge" style="stroke: rgb(72, 72, 72); stroke-width: 3;"/><svg x="162.4438018798828" width="21.123082160949707" height="30" style="overflow: visible;"><path d="M0,0h16.123082160949707a5,5 0 0 1 5,5v20a5,5 0 0 1 -5,5h-16.123082160949707z" class="tokenNum root" style="fill: rgb(175, 162, 255); stroke: rgb(0, 0, 0); stroke-width: 4px;"/><text class="tokenNum-label root" x="50%" y="50%" text-anchor="middle" dominant-baseline="central" style="font-weight: 700;">4</text></svg><svg width="162.4438018798828" height="30" id="group-3" class="token" subId="3" style="overflow: visible;"><path d="M162.4438018798828,0h-157.4438018798828a5,5 1 0 0 -5,5v20a5,5 1 0 0 5,5h157.4438018798828z" id="form-3" attr="form" subId="3" class="form root" num="4" style="fill: rgb(127, 161, 255); stroke: rgb(0, 0, 0); stroke-width: 4px;"/><text x="50%" y="50%" text-anchor="middle" dominant-baseline="central" id="text-form-3" class="form-label root" style="font-weight: 700;">абазабызшвапI</text></svg><svg x="59.55656099319458" y="40" width="64.45376205444336" height="30" style="overflow: visible;"><rect width="64.45376205444336" height="30" id="pos-3" class="pos" attr="upostag" subId="3" rx="5" ry="5" style="fill: rgb(175, 162, 255); stroke: rgb(0, 0, 0); stroke-width: 2px;"/><text x="50%" y="50%" class="pos-label" id="text-pos-3" text-anchor="middle" dominant-baseline="central">VERB</text></svg></svg><defs><marker id="end" viewBox="0 -5 10 10" refX="2" refY="2" markerWidth="15" markerHeight="15" orient="auto" style="fill: rgb(17, 17, 17);"><path d="M 1 1 L 3 2 L 1 3 Z"/></marker></defs><path class="dependency" attr="deprel" marker-end="url(#end)" d="M 637.5,100 L 627,35 C 616.5,-30 601.8,-30 587.0999999999999,-30 L 587.0999999999999,-30 457.19779205322266,-30M 346.80220794677734,-30 L 216.89999999999998,-30 C202.2,-30 187.5,-30 177,35 L166.5,94" id="dep_0_3" num="5" style="stroke-width: 4px; fill: none; stroke: rgb(17, 17, 17); opacity: 0.766;"/><path class="dependency" attr="deprel" marker-end="url(#end)" d="M 451.5,100 L 446.25,67.5 C 441,35 433.65,35 426.29999999999995,35 L 426.29999999999995,35 420.81446075439453,35M 298.18553924560547,35 L 292.70000000000005,35 C285.35,35 278,35 272.75,67.5 L267.5,94" id="dep_1_2" num="6" style="stroke-width: 4px; fill: none; stroke: rgb(17, 17, 17); opacity: 0.766;"/><path class="dependency" attr="deprel" marker-end="url(#end)" d="M 637.5,100 L 632.25,67.5 C 627,35 619.65,35 612.3,35 L 612.3,35 588.3132247924805,35M 515.6867752075195,35 L 491.70000000000005,35 C484.35,35 477,35 471.75,67.5 L466.5,94" id="dep_2_3" num="7" style="stroke-width: 4px; fill: none; stroke: rgb(17, 17, 17); opacity: 0.766;"/><line x1="652.5" y1="-62.5" x2="652.5" y2="93" class="root-deprel" marker-end="url(#end)" style="stroke: rgb(17, 17, 17); opacity: 0.766; stroke-width: 4px;"/><text id="text-dep_0_3" class="deprel-label" transform="translate(402,-30)" y="-1" text-anchor="middle" dominant-baseline="central" style="cursor: pointer; text-shadow: rgb(255, 255, 255) 1px 1px 5px;">⊲discourse</text><text id="text-dep_1_2" class="deprel-label" transform="translate(359.5,35)" y="-1" text-anchor="middle" dominant-baseline="central" style="cursor: pointer; text-shadow: rgb(255, 255, 255) 1px 1px 5px;">⊲nmod:poss</text><text id="text-dep_2_3" class="deprel-label" transform="translate(552,35)" y="-1" text-anchor="middle" dominant-baseline="central" style="cursor: pointer; text-shadow: rgb(255, 255, 255) 1px 1px 5px;">⊲nsubj</text><text x="652.5" y="-73.5" class="root-deprel-label" text-anchor="middle" dominant-baseline="central" style="text-shadow: rgb(255, 255, 255) 1px 1px 5px;">ROOT</text></g></svg>