<svg xmlns="http://www.w3.org/2000/svg" width="1440" height="371" id="graph-svg" style="background: white; font-family: Arial; font-size: 20px;"><g id="graph-g" transform="translate(-51.41506895049781,99.7214745975873) scale(0.7900413118634055)"><svg id="token-0" width="79.16423511505127" height="70" y="100" style="overflow: visible; cursor: pointer;" x="200"><line x1="39.582117557525635" y1="30" x2="39.582117557525635" y2="40" class="pos-edge" style="stroke: rgb(72, 72, 72); stroke-width: 3;"/><svg x="58.03942108154297" width="21.1248140335083" height="30" style="overflow: visible;"><path d="M0,0h16.1248140335083a5,5 0 0 1 5,5v20a5,5 0 0 1 -5,5h-16.1248140335083z" class="tokenNum root" style="fill: rgb(175, 162, 255); stroke: rgb(0, 0, 0); stroke-width: 4px;"/><text class="tokenNum-label root" x="50%" y="50%" text-anchor="middle" dominant-baseline="central" style="font-weight: 700;">1</text></svg><svg width="58.03942108154297" height="30" id="group-0" class="token" subId="0" style="overflow: visible;"><path d="M58.03942108154297,0h-53.03942108154297a5,5 1 0 0 -5,5v20a5,5 1 0 0 5,5h53.03942108154297z" id="form-0" attr="form" subId="0" class="form root" num="1" style="fill: rgb(127, 161, 255); stroke: rgb(0, 0, 0); stroke-width: 4px;"/><text x="50%" y="50%" text-anchor="middle" dominant-baseline="central" id="text-form-0" class="form-label root" style="font-weight: 700;">йцан</text></svg><svg x="7.348572254180908" y="40" width="64.46709060668945" height="30" style="overflow: visible;"><rect width="64.46709060668945" height="30" id="pos-0" class="pos" attr="upostag" subId="0" rx="5" ry="5" style="fill: rgb(175, 162, 255); stroke: rgb(0, 0, 0); stroke-width: 2px;"/><text x="50%" y="50%" class="pos-label" id="text-pos-0" text-anchor="middle" dominant-baseline="central">VERB</text></svg></svg><svg id="token-1" width="87.342209815979" height="70" y="100" style="overflow: visible; cursor: pointer;" x="344.0351776123048"><line x1="43.6711049079895" y1="30" x2="43.6711049079895" y2="40" class="pos-edge" style="stroke: rgb(72, 72, 72); stroke-width: 3;"/><svg x="66.2173957824707" width="21.1248140335083" height="30" style="overflow: visible;"><path d="M0,0h16.1248140335083a5,5 0 0 1 5,5v20a5,5 0 0 1 -5,5h-16.1248140335083z" class="tokenNum" style="fill: rgb(175, 162, 255); stroke: rgb(0, 0, 0); stroke-width: 2px;"/><text class="tokenNum-label" x="50%" y="50%" text-anchor="middle" dominant-baseline="central">2</text></svg><svg width="66.2173957824707" height="30" id="group-1" class="token" subId="1" style="overflow: visible;"><path d="M66.2173957824707,0h-61.2173957824707a5,5 1 0 0 -5,5v20a5,5 1 0 0 5,5h61.2173957824707z" id="form-1" attr="form" subId="1" class="form" num="2" style="fill: rgb(127, 161, 255); stroke: rgb(0, 0, 0); stroke-width: 2px;"/><text x="50%" y="50%" text-anchor="middle" dominant-baseline="central" id="text-form-1" class="form-label">заман</text></svg><svg x="9.227428913116455" y="40" width="68.8873519897461" height="30" style="overflow: visible;"><rect width="68.8873519897461" height="30" id="pos-1" class="pos" attr="upostag" subId="1" rx="5" ry="5" style="fill: rgb(175, 162, 255); stroke: rgb(0, 0, 0); stroke-width: 2px;"/><text x="50%" y="50%" class="pos-label" id="text-pos-1" text-anchor="middle" dominant-baseline="central">NOUN</text></svg></svg><svg id="token-2" width="134.94653034210205" height="70" y="100" style="overflow: visible; cursor: pointer;" x="461.0351776123048"><line x1="67.47326517105103" y1="30" x2="67.47326517105103" y2="40" class="pos-edge" style="stroke: rgb(72, 72, 72); stroke-width: 3;"/><svg x="113.82171630859375" width="21.1248140335083" height="30" style="overflow: visible;"><path d="M0,0h16.1248140335083a5,5 0 0 1 5,5v20a5,5 0 0 1 -5,5h-16.1248140335083z" class="tokenNum" style="fill: rgb(175, 162, 255); stroke: rgb(0, 0, 0); stroke-width: 2px;"/><text class="tokenNum-label" x="50%" y="50%" text-anchor="middle" dominant-baseline="central">3</text></svg><svg width="113.82171630859375" height="30" id="group-2" class="token" subId="2" style="overflow: visible;"><path d="M113.82171630859375,0h-108.82171630859375a5,5 1 0 0 -5,5v20a5,5 1 0 0 5,5h108.82171630859375z" id="form-2" attr="form" subId="2" class="form" num="3" style="fill: rgb(127, 161, 255); stroke: rgb(0, 0, 0); stroke-width: 2px;"/><text x="50%" y="50%" text-anchor="middle" dominant-baseline="central" id="text-form-2" class="form-label">апегIамбар</text></svg><svg x="33.02958917617798" y="40" width="68.8873519897461" height="30" style="overflow: visible;"><rect width="68.8873519897461" height="30" id="pos-2" class="pos" attr="upostag" subId="2" rx="5" ry="5" style="fill: rgb(175, 162, 255); stroke: rgb(0, 0, 0); stroke-width: 2px;"/><text x="50%" y="50%" class="pos-label" id="text-pos-2" text-anchor="middle" dominant-baseline="central">NOUN</text></svg></svg><svg id="token-3" width="92.66234302520752" height="70" y="100" style="overflow: visible; cursor: pointer;" x="626.0351776123048"><line x1="46.33117151260376" y1="30" x2="46.33117151260376" y2="40" class="pos-edge" style="stroke: rgb(72, 72, 72); stroke-width: 3;"/><svg x="71.53752899169922" width="21.1248140335083" height="30" style="overflow: visible;"><path d="M0,0h16.1248140335083a5,5 0 0 1 5,5v20a5,5 0 0 1 -5,5h-16.1248140335083z" class="tokenNum" style="fill: rgb(175, 162, 255); stroke: rgb(0, 0, 0); stroke-width: 2px;"/><text class="tokenNum-label" x="50%" y="50%" text-anchor="middle" dominant-baseline="central">4</text></svg><svg width="71.53752899169922" height="30" id="group-3" class="token" subId="3" style="overflow: visible;"><path d="M71.53752899169922,0h-66.53752899169922a5,5 1 0 0 -5,5v20a5,5 1 0 0 5,5h66.53752899169922z" id="form-3" attr="form" subId="3" class="form" num="4" style="fill: rgb(127, 161, 255); stroke: rgb(0, 0, 0); stroke-width: 2px;"/><text x="50%" y="50%" text-anchor="middle" dominant-baseline="central" id="text-form-3" class="form-label">дгIайтI</text></svg><svg x="14.097626209259033" y="40" width="64.46709060668945" height="30" style="overflow: visible;"><rect width="64.46709060668945" height="30" id="pos-3" class="pos" attr="upostag" subId="3" rx="5" ry="5" style="fill: rgb(175, 162, 255); stroke: rgb(0, 0, 0); stroke-width: 2px;"/><text x="50%" y="50%" class="pos-label" id="text-pos-3" text-anchor="middle" dominant-baseline="central">VERB</text></svg></svg><defs><marker id="end" viewBox="0 -5 10 10" refX="2" refY="2" markerWidth="15" markerHeight="15" orient="auto" style="fill: rgb(17, 17, 17);"><path d="M 1 1 L 3 2 L 1 3 Z"/></marker></defs><path class="dependency" attr="deprel" marker-end="url(#end)" d="M 254.5,100 L 259.75,67.5 C 265,35 272.35,35 279.70000000000005,35 L 279.70000000000005,35 284.68241119384766,35M 357.31758880615234,35 L 362.29999999999995,35 C369.65,35 377,35 382.25,67.5 L387.5,94" id="dep_1_0" num="5" style="stroke-width: 4px; fill: none; stroke: rgb(17, 17, 17); opacity: 0.766;"/><path class="dependency" attr="deprel" marker-end="url(#end)" d="M 657,100 L 651.75,67.5 C 646.5,35 639.15,35 631.8,35 L 631.8,35 628.8175888061523,35M 556.1824111938477,35 L 553.2,35 C545.85,35 538.5,35 533.25,67.5 L528,94" id="dep_2_3" num="6" style="stroke-width: 4px; fill: none; stroke: rgb(17, 17, 17); opacity: 0.766;"/><path class="dependency" attr="deprel" marker-end="url(#end)" d="M 254.5,100 L 265,35 C 275.5,-30 290.2,-30 304.9,-30 L 304.9,-30 410.2600212097168,-30M 516.2399787902832,-30 L 621.5999999999999,-30 C636.3,-30 651,-30 661.5,35 L672,94" id="dep_3_0" num="7" style="stroke-width: 4px; fill: none; stroke: rgb(17, 17, 17); opacity: 0.766;"/><line x1="239.5" y1="-62.5" x2="239.5" y2="93" class="root-deprel" marker-end="url(#end)" style="stroke: rgb(17, 17, 17); opacity: 0.766; stroke-width: 4px;"/><text id="text-dep_1_0" class="deprel-label" transform="translate(321,35)" y="-1" text-anchor="middle" dominant-baseline="central" style="cursor: pointer; text-shadow: rgb(255, 255, 255) 1px 1px 5px;">nsubj⊳</text><text id="text-dep_2_3" class="deprel-label" transform="translate(592.5,35)" y="-1" text-anchor="middle" dominant-baseline="central" style="cursor: pointer; text-shadow: rgb(255, 255, 255) 1px 1px 5px;">⊲nsubj</text><text id="text-dep_3_0" class="deprel-label" transform="translate(463.25,-30)" y="-1" text-anchor="middle" dominant-baseline="central" style="cursor: pointer; text-shadow: rgb(255, 255, 255) 1px 1px 5px;">parataxis⊳</text><text x="239.5" y="-73.5" class="root-deprel-label" text-anchor="middle" dominant-baseline="central" style="text-shadow: rgb(255, 255, 255) 1px 1px 5px;">ROOT</text></g></svg>