<svg xmlns="http://www.w3.org/2000/svg" width="1440" height="371" id="graph-svg" style="background: white; font-family: Arial; font-size: 20px;"><g id="graph-g" transform="translate(-71.41506895049781,91.7214745975873) scale(0.7900413118634055)"><svg id="token-0" width="77.21615695953369" height="70" y="100" style="overflow: visible; cursor: pointer;" x="201.9517741203308"><line x1="38.608078479766846" y1="30" x2="38.608078479766846" y2="40" class="pos-edge" style="stroke: rgb(72, 72, 72); stroke-width: 3;"/><svg x="56.09134292602539" width="21.1248140335083" height="30" style="overflow: visible;"><path d="M0,0h16.1248140335083a5,5 0 0 1 5,5v20a5,5 0 0 1 -5,5h-16.1248140335083z" class="tokenNum" style="fill: rgb(175, 162, 255); stroke: rgb(0, 0, 0); stroke-width: 2px;"/><text class="tokenNum-label" x="50%" y="50%" text-anchor="middle" dominant-baseline="central">1</text></svg><svg width="56.09134292602539" height="30" id="group-0" class="token" subId="0" style="overflow: visible;"><path d="M56.09134292602539,0h-51.09134292602539a5,5 1 0 0 -5,5v20a5,5 1 0 0 5,5h51.09134292602539z" id="form-0" attr="form" subId="0" class="form" num="1" style="fill: rgb(127, 161, 255); stroke: rgb(0, 0, 0); stroke-width: 2px;"/><text x="50%" y="50%" text-anchor="middle" dominant-baseline="central" id="text-form-0" class="form-label">ажьи</text></svg><svg x="-1.9517741203308105" y="40" width="81.11970520019531" height="30" style="overflow: visible;"><rect width="81.11970520019531" height="30" id="pos-0" class="pos" attr="upostag" subId="0" rx="5" ry="5" style="fill: rgb(175, 162, 255); stroke: rgb(0, 0, 0); stroke-width: 2px;"/><text x="50%" y="50%" class="pos-label" id="text-pos-0" text-anchor="middle" dominant-baseline="central">PROPN</text></svg></svg><svg id="token-1" width="103.47071552276611" height="70" y="100" style="overflow: visible; cursor: pointer;" x="311.1197052001953"><line x1="51.73535776138306" y1="30" x2="51.73535776138306" y2="40" class="pos-edge" style="stroke: rgb(72, 72, 72); stroke-width: 3;"/><svg x="82.34590148925781" width="21.1248140335083" height="30" style="overflow: visible;"><path d="M0,0h16.1248140335083a5,5 0 0 1 5,5v20a5,5 0 0 1 -5,5h-16.1248140335083z" class="tokenNum" style="fill: rgb(175, 162, 255); stroke: rgb(0, 0, 0); stroke-width: 2px;"/><text class="tokenNum-label" x="50%" y="50%" text-anchor="middle" dominant-baseline="central">2</text></svg><svg width="82.34590148925781" height="30" id="group-1" class="token" subId="1" style="overflow: visible;"><path d="M82.34590148925781,0h-77.34590148925781a5,5 1 0 0 -5,5v20a5,5 1 0 0 5,5h77.34590148925781z" id="form-1" attr="form" subId="1" class="form" num="2" style="fill: rgb(127, 161, 255); stroke: rgb(0, 0, 0); stroke-width: 2px;"/><text x="50%" y="50%" text-anchor="middle" dominant-baseline="central" id="text-form-1" class="form-label">фатима</text></svg><svg x="11.1755051612854" y="40" width="81.11970520019531" height="30" style="overflow: visible;"><rect width="81.11970520019531" height="30" id="pos-1" class="pos" attr="upostag" subId="1" rx="5" ry="5" style="fill: rgb(175, 162, 255); stroke: rgb(0, 0, 0); stroke-width: 2px;"/><text x="50%" y="50%" class="pos-label" id="text-pos-1" text-anchor="middle" dominant-baseline="central">PROPN</text></svg></svg><svg id="token-2" width="149.32473468780518" height="70" y="100" style="overflow: visible; cursor: pointer;" x="444.5904207229614"><line x1="74.66236734390259" y1="30" x2="74.66236734390259" y2="40" class="pos-edge" style="stroke: rgb(72, 72, 72); stroke-width: 3;"/><svg x="128.19992065429688" width="21.1248140335083" height="30" style="overflow: visible;"><path d="M0,0h16.1248140335083a5,5 0 0 1 5,5v20a5,5 0 0 1 -5,5h-16.1248140335083z" class="tokenNum" style="fill: rgb(175, 162, 255); stroke: rgb(0, 0, 0); stroke-width: 2px;"/><text class="tokenNum-label" x="50%" y="50%" text-anchor="middle" dominant-baseline="central">3</text></svg><svg width="128.19992065429688" height="30" id="group-2" class="token" subId="2" style="overflow: visible;"><path d="M128.19992065429688,0h-123.19992065429688a5,5 1 0 0 -5,5v20a5,5 1 0 0 5,5h123.19992065429688z" id="form-2" attr="form" subId="2" class="form" num="3" style="fill: rgb(127, 161, 255); stroke: rgb(0, 0, 0); stroke-width: 2px;"/><text x="50%" y="50%" text-anchor="middle" dominant-baseline="central" id="text-form-2" class="form-label">абиблиотека</text></svg><svg x="40.21869134902954" y="40" width="68.8873519897461" height="30" style="overflow: visible;"><rect width="68.8873519897461" height="30" id="pos-2" class="pos" attr="upostag" subId="2" rx="5" ry="5" style="fill: rgb(175, 162, 255); stroke: rgb(0, 0, 0); stroke-width: 2px;"/><text x="50%" y="50%" class="pos-label" id="text-pos-2" text-anchor="middle" dominant-baseline="central">NOUN</text></svg></svg><svg id="token-3" width="107.55476093292236" height="70" y="100" style="overflow: visible; cursor: pointer;" x="623.9151554107666"><line x1="53.77738046646118" y1="30" x2="53.77738046646118" y2="40" class="pos-edge" style="stroke: rgb(72, 72, 72); stroke-width: 3;"/><svg x="86.42994689941406" width="21.1248140335083" height="30" style="overflow: visible;"><path d="M0,0h16.1248140335083a5,5 0 0 1 5,5v20a5,5 0 0 1 -5,5h-16.1248140335083z" class="tokenNum root" style="fill: rgb(175, 162, 255); stroke: rgb(0, 0, 0); stroke-width: 4px;"/><text class="tokenNum-label root" x="50%" y="50%" text-anchor="middle" dominant-baseline="central" style="font-weight: 700;">4</text></svg><svg width="86.42994689941406" height="30" id="group-3" class="token" subId="3" style="overflow: visible;"><path d="M86.42994689941406,0h-81.42994689941406a5,5 1 0 0 -5,5v20a5,5 1 0 0 5,5h81.42994689941406z" id="form-3" attr="form" subId="3" class="form root" num="4" style="fill: rgb(127, 161, 255); stroke: rgb(0, 0, 0); stroke-width: 4px;"/><text x="50%" y="50%" text-anchor="middle" dominant-baseline="central" id="text-form-3" class="form-label root" style="font-weight: 700;">дынхун</text></svg><svg x="21.543835163116455" y="40" width="64.46709060668945" height="30" style="overflow: visible;"><rect width="64.46709060668945" height="30" id="pos-3" class="pos" attr="upostag" subId="3" rx="5" ry="5" style="fill: rgb(175, 162, 255); stroke: rgb(0, 0, 0); stroke-width: 2px;"/><text x="50%" y="50%" class="pos-label" id="text-pos-3" text-anchor="middle" dominant-baseline="central">VERB</text></svg></svg><defs><marker id="end" viewBox="0 -5 10 10" refX="2" refY="2" markerWidth="15" markerHeight="15" orient="auto" style="fill: rgb(17, 17, 17);"><path d="M 1 1 L 3 2 L 1 3 Z"/></marker></defs><path class="dependency" attr="deprel" marker-end="url(#end)" d="M 661.5,100 L 651,35 C 640.5,-30 625.8,-30 611.0999999999999,-30 L 611.0999999999999,-30 486.81758880615234,-30M 414.18241119384766,-30 L 289.9,-30 C275.2,-30 260.5,-30 250,35 L239.5,94" id="dep_0_3" num="5" style="stroke-width: 4px; fill: none; stroke: rgb(17, 17, 17); opacity: 0.766;"/><path class="dependency" attr="deprel" marker-end="url(#end)" d="M 254.5,100 L 259.75,67.5 C 265,35 272.35,35 279.70000000000005,35 L 279.70000000000005,35 282.7485122680664,35M 334.2514877319336,35 L 337.29999999999995,35 C344.65,35 352,35 357.25,67.5 L362.5,94" id="dep_1_0" num="6" style="stroke-width: 4px; fill: none; stroke: rgb(17, 17, 17); opacity: 0.766;"/><path class="dependency" attr="deprel" marker-end="url(#end)" d="M 661.5,100 L 656.25,67.5 C 651,35 643.65,35 636.3,35 L 636.3,35 615.7564315795898,35M 564.2435684204102,35 L 543.7,35 C536.35,35 529,35 523.75,67.5 L518.5,94" id="dep_2_3" num="7" style="stroke-width: 4px; fill: none; stroke: rgb(17, 17, 17); opacity: 0.766;"/><line x1="676.5" y1="-62.5" x2="676.5" y2="93" class="root-deprel" marker-end="url(#end)" style="stroke: rgb(17, 17, 17); opacity: 0.766; stroke-width: 4px;"/><text id="text-dep_0_3" class="deprel-label" transform="translate(450.5,-30)" y="-1" text-anchor="middle" dominant-baseline="central" style="cursor: pointer; text-shadow: rgb(255, 255, 255) 1px 1px 5px;">⊲nsubj</text><text id="text-dep_1_0" class="deprel-label" transform="translate(308.5,35)" y="-1" text-anchor="middle" dominant-baseline="central" style="cursor: pointer; text-shadow: rgb(255, 255, 255) 1px 1px 5px;">flat⊳</text><text id="text-dep_2_3" class="deprel-label" transform="translate(590,35)" y="-1" text-anchor="middle" dominant-baseline="central" style="cursor: pointer; text-shadow: rgb(255, 255, 255) 1px 1px 5px;">⊲obl</text><text x="676.5" y="-73.5" class="root-deprel-label" text-anchor="middle" dominant-baseline="central" style="text-shadow: rgb(255, 255, 255) 1px 1px 5px;">ROOT</text></g></svg>