<svg xmlns="http://www.w3.org/2000/svg" width="1440" height="314" id="graph-svg" style="background: white; font-family: Arial; font-size: 20px;"><g id="graph-g" transform="translate(-70.97841568595686,128.9249330713468) scale(0.741233504901446)"><svg id="token-0" width="88.48804187774658" height="70" y="100" style="overflow: visible; cursor: pointer;" x="167.48266372680655"><line x1="44.24402093887329" y1="30" x2="44.24402093887329" y2="40" class="pos-edge" style="stroke: rgb(72, 72, 72); stroke-width: 3;"/><svg x="67.36848449707031" width="21.11955738067627" height="30" style="overflow: visible;"><path d="M0,0h16.11955738067627a5,5 0 0 1 5,5v20a5,5 0 0 1 -5,5h-16.11955738067627z" class="tokenNum" style="fill: rgb(175, 162, 255); stroke: rgb(0, 0, 0); stroke-width: 2px;"/><text class="tokenNum-label" x="50%" y="50%" text-anchor="middle" dominant-baseline="central">1</text></svg><svg width="67.36848449707031" height="30" id="group-0" class="token" subId="0" style="overflow: visible;"><path d="M67.36848449707031,0h-62.36848449707031a5,5 1 0 0 -5,5v20a5,5 1 0 0 5,5h62.36848449707031z" id="form-0" attr="form" subId="0" class="form" num="1" style="fill: rgb(127, 161, 255); stroke: rgb(0, 0, 0); stroke-width: 2px;"/><text x="50%" y="50%" text-anchor="middle" dominant-baseline="central" id="text-form-0" class="form-label">адзын</text></svg><svg x="9.806177616119385" y="40" width="68.87568664550781" height="30" style="overflow: visible;"><rect width="68.87568664550781" height="30" id="pos-0" class="pos" attr="upostag" subId="0" rx="5" ry="5" style="fill: rgb(175, 162, 255); stroke: rgb(0, 0, 0); stroke-width: 2px;"/><text x="50%" y="50%" class="pos-label" id="text-pos-0" text-anchor="middle" dominant-baseline="central">NOUN</text></svg></svg><svg id="token-1" width="83.7661828994751" height="70" y="100" style="overflow: visible; cursor: pointer;" x="318.4880418777466"><line x1="41.88309144973755" y1="30" x2="41.88309144973755" y2="40" class="pos-edge" style="stroke: rgb(72, 72, 72); stroke-width: 3;"/><svg x="62.64662551879883" width="21.11955738067627" height="30" style="overflow: visible;"><path d="M0,0h16.11955738067627a5,5 0 0 1 5,5v20a5,5 0 0 1 -5,5h-16.11955738067627z" class="tokenNum root" style="fill: rgb(175, 162, 255); stroke: rgb(0, 0, 0); stroke-width: 4px;"/><text class="tokenNum-label root" x="50%" y="50%" text-anchor="middle" dominant-baseline="central" style="font-weight: 700;">2</text></svg><svg width="62.64662551879883" height="30" id="group-1" class="token" subId="1" style="overflow: visible;"><path d="M62.64662551879883,0h-57.64662551879883a5,5 1 0 0 -5,5v20a5,5 1 0 0 5,5h57.64662551879883z" id="form-1" attr="form" subId="1" class="form root" num="2" style="fill: rgb(127, 161, 255); stroke: rgb(0, 0, 0); stroke-width: 4px;"/><text x="50%" y="50%" text-anchor="middle" dominant-baseline="central" id="text-form-1" class="form-label root" style="font-weight: 700;">гIайтI</text></svg><svg x="9.658621311187744" y="40" width="64.44894027709961" height="30" style="overflow: visible;"><rect width="64.44894027709961" height="30" id="pos-1" class="pos" attr="upostag" subId="1" rx="5" ry="5" style="fill: rgb(175, 162, 255); stroke: rgb(0, 0, 0); stroke-width: 2px;"/><text x="50%" y="50%" class="pos-label" id="text-pos-1" text-anchor="middle" dominant-baseline="central">VERB</text></svg></svg><svg id="token-2" width="110.2528657913208" height="70" y="100" style="overflow: visible; cursor: pointer;" x="432.2542247772217"><line x1="55.1264328956604" y1="30" x2="55.1264328956604" y2="40" class="pos-edge" style="stroke: rgb(72, 72, 72); stroke-width: 3;"/><svg x="89.13330841064453" width="21.11955738067627" height="30" style="overflow: visible;"><path d="M0,0h16.11955738067627a5,5 0 0 1 5,5v20a5,5 0 0 1 -5,5h-16.11955738067627z" class="tokenNum" style="fill: rgb(175, 162, 255); stroke: rgb(0, 0, 0); stroke-width: 2px;"/><text class="tokenNum-label" x="50%" y="50%" text-anchor="middle" dominant-baseline="central">3</text></svg><svg width="89.13330841064453" height="30" id="group-2" class="token" subId="2" style="overflow: visible;"><path d="M89.13330841064453,0h-84.13330841064453a5,5 1 0 0 -5,5v20a5,5 1 0 0 5,5h84.13330841064453z" id="form-2" attr="form" subId="2" class="form" num="3" style="fill: rgb(127, 161, 255); stroke: rgb(0, 0, 0); stroke-width: 2px;"/><text x="50%" y="50%" text-anchor="middle" dominant-baseline="central" id="text-form-2" class="form-label">алыгажв</text></svg><svg x="20.688589572906494" y="40" width="68.87568664550781" height="30" style="overflow: visible;"><rect width="68.87568664550781" height="30" id="pos-2" class="pos" attr="upostag" subId="2" rx="5" ry="5" style="fill: rgb(175, 162, 255); stroke: rgb(0, 0, 0); stroke-width: 2px;"/><text x="50%" y="50%" class="pos-label" id="text-pos-2" text-anchor="middle" dominant-baseline="central">NOUN</text></svg></svg><svg id="token-3" width="90.63817310333252" height="70" y="100" style="overflow: visible; cursor: pointer;" x="572.5070905685425"><line x1="45.31908655166626" y1="30" x2="45.31908655166626" y2="40" class="pos-edge" style="stroke: rgb(72, 72, 72); stroke-width: 3;"/><svg x="69.51861572265625" width="21.11955738067627" height="30" style="overflow: visible;"><path d="M0,0h16.11955738067627a5,5 0 0 1 5,5v20a5,5 0 0 1 -5,5h-16.11955738067627z" class="tokenNum" style="fill: rgb(175, 162, 255); stroke: rgb(0, 0, 0); stroke-width: 2px;"/><text class="tokenNum-label" x="50%" y="50%" text-anchor="middle" dominant-baseline="central">4</text></svg><svg width="69.51861572265625" height="30" id="group-3" class="token" subId="3" style="overflow: visible;"><path d="M69.51861572265625,0h-64.51861572265625a5,5 1 0 0 -5,5v20a5,5 1 0 0 5,5h64.51861572265625z" id="form-3" attr="form" subId="3" class="form" num="4" style="fill: rgb(127, 161, 255); stroke: rgb(0, 0, 0); stroke-width: 2px;"/><text x="50%" y="50%" text-anchor="middle" dominant-baseline="central" id="text-form-3" class="form-label">ацыца</text></svg><svg x="10.881243228912354" y="40" width="68.87568664550781" height="30" style="overflow: visible;"><rect width="68.87568664550781" height="30" id="pos-3" class="pos" attr="upostag" subId="3" rx="5" ry="5" style="fill: rgb(175, 162, 255); stroke: rgb(0, 0, 0); stroke-width: 2px;"/><text x="50%" y="50%" class="pos-label" id="text-pos-3" text-anchor="middle" dominant-baseline="central">NOUN</text></svg></svg><svg id="token-4" width="123.7965898513794" height="70" y="100" style="overflow: visible; cursor: pointer;" x="693.145263671875"><line x1="61.8982949256897" y1="30" x2="61.8982949256897" y2="40" class="pos-edge" style="stroke: rgb(72, 72, 72); stroke-width: 3;"/><svg x="102.67703247070312" width="21.11955738067627" height="30" style="overflow: visible;"><path d="M0,0h16.11955738067627a5,5 0 0 1 5,5v20a5,5 0 0 1 -5,5h-16.11955738067627z" class="tokenNum" style="fill: rgb(175, 162, 255); stroke: rgb(0, 0, 0); stroke-width: 2px;"/><text class="tokenNum-label" x="50%" y="50%" text-anchor="middle" dominant-baseline="central">5</text></svg><svg width="102.67703247070312" height="30" id="group-4" class="token" subId="4" style="overflow: visible;"><path d="M102.67703247070312,0h-97.67703247070312a5,5 1 0 0 -5,5v20a5,5 1 0 0 5,5h97.67703247070312z" id="form-4" attr="form" subId="4" class="form" num="5" style="fill: rgb(127, 161, 255); stroke: rgb(0, 0, 0); stroke-width: 2px;"/><text x="50%" y="50%" text-anchor="middle" dominant-baseline="central" id="text-form-4" class="form-label">гIалиххитI</text></svg><svg x="29.673824787139893" y="40" width="64.44894027709961" height="30" style="overflow: visible;"><rect width="64.44894027709961" height="30" id="pos-4" class="pos" attr="upostag" subId="4" rx="5" ry="5" style="fill: rgb(175, 162, 255); stroke: rgb(0, 0, 0); stroke-width: 2px;"/><text x="50%" y="50%" class="pos-label" id="text-pos-4" text-anchor="middle" dominant-baseline="central">VERB</text></svg></svg><defs><marker id="end" viewBox="0 -5 10 10" refX="2" refY="2" markerWidth="15" markerHeight="15" orient="auto" style="fill: rgb(17, 17, 17);"><path d="M 1 1 L 3 2 L 1 3 Z"/></marker></defs><path class="dependency" attr="deprel" marker-end="url(#end)" d="M 344.5,100 L 339.25,67.5 C 334,35 326.65,35 319.29999999999995,35 L 319.29999999999995,35 314.0586681365967,35M 241.44133186340332,35 L 236.2,35 C228.85,35 221.5,35 216.25,67.5 L211,94" id="dep_0_1" num="6" style="stroke-width: 4px; fill: none; stroke: rgb(17, 17, 17); opacity: 0.766;"/><path class="dependency" attr="deprel" marker-end="url(#end)" d="M 739.5,100 L 729,35 C 718.5,-30 703.8,-30 689.0999999999999,-30 L 689.0999999999999,-30 649.5586681365967,-30M 576.9413318634033,-30 L 537.4000000000001,-30 C522.7,-30 508,-30 497.5,35 L487,94" id="dep_2_4" num="7" style="stroke-width: 4px; fill: none; stroke: rgb(17, 17, 17); opacity: 0.766;"/><path class="dependency" attr="deprel" marker-end="url(#end)" d="M 739.5,100 L 734.25,67.5 C 729,35 721.65,35 714.3,35 L 714.3,35 704.0029945373535,35M 652.4970054626465,35 L 642.2,35 C634.85,35 627.5,35 622.25,67.5 L617,94" id="dep_3_4" num="8" style="stroke-width: 4px; fill: none; stroke: rgb(17, 17, 17); opacity: 0.766;"/><path class="dependency" attr="deprel" marker-end="url(#end)" d="M 374.5,100 L 390.25,2.5 C 406,-95 428.05,-95 450.1,-95 L 450.1,-95 511.52253341674805,-95M 617.477466583252,-95 L 678.9000000000001,-95 C700.95,-95 723,-95 738.75,2.5 L754.5,94" id="dep_4_1" num="9" style="stroke-width: 4px; fill: none; stroke: rgb(17, 17, 17); opacity: 0.766;"/><line x1="359.5" y1="-127.5" x2="359.5" y2="93" class="root-deprel" marker-end="url(#end)" style="stroke: rgb(17, 17, 17); opacity: 0.766; stroke-width: 4px;"/><text id="text-dep_0_1" class="deprel-label" transform="translate(277.75,35)" y="-1" text-anchor="middle" dominant-baseline="central" style="cursor: pointer; text-shadow: rgb(255, 255, 255) 1px 1px 5px;">⊲nsubj</text><text id="text-dep_2_4" class="deprel-label" transform="translate(613.25,-30)" y="-1" text-anchor="middle" dominant-baseline="central" style="cursor: pointer; text-shadow: rgb(255, 255, 255) 1px 1px 5px;">⊲nsubj</text><text id="text-dep_3_4" class="deprel-label" transform="translate(678.25,35)" y="-1" text-anchor="middle" dominant-baseline="central" style="cursor: pointer; text-shadow: rgb(255, 255, 255) 1px 1px 5px;">⊲obj</text><text id="text-dep_4_1" class="deprel-label" transform="translate(564.5,-95)" y="-1" text-anchor="middle" dominant-baseline="central" style="cursor: pointer; text-shadow: rgb(255, 255, 255) 1px 1px 5px;">parataxis⊳</text><text x="359.5" y="-138.5" class="root-deprel-label" text-anchor="middle" dominant-baseline="central" style="text-shadow: rgb(255, 255, 255) 1px 1px 5px;">ROOT</text></g></svg>