<svg xmlns="http://www.w3.org/2000/svg" width="1440" height="332" id="graph-svg" style="background: white; font-family: Arial; font-size: 20px;"><g id="graph-g" transform="translate(-90.63067194187693,138.4080041656477) scale(0.7290046894083171)"><svg id="token-0" width="74.49425411224365" height="70" y="100" style="overflow: visible; cursor: pointer;" x="200"><line x1="37.247127056121826" y1="30" x2="37.247127056121826" y2="40" class="pos-edge" style="stroke: rgb(72, 72, 72); stroke-width: 3;"/><svg x="53.37035369873047" width="21.123900413513184" height="30" style="overflow: visible;"><path d="M0,0h16.123900413513184a5,5 0 0 1 5,5v20a5,5 0 0 1 -5,5h-16.123900413513184z" class="tokenNum" style="fill: rgb(175, 162, 255); stroke: rgb(0, 0, 0); stroke-width: 2px;"/><text class="tokenNum-label" x="50%" y="50%" text-anchor="middle" dominant-baseline="central">1</text></svg><svg width="53.37035369873047" height="30" id="group-0" class="token" subId="0" style="overflow: visible;"><path d="M53.37035369873047,0h-48.37035369873047a5,5 1 0 0 -5,5v20a5,5 1 0 0 5,5h48.37035369873047z" id="form-0" attr="form" subId="0" class="form" num="1" style="fill: rgb(127, 161, 255); stroke: rgb(0, 0, 0); stroke-width: 2px;"/><text x="50%" y="50%" text-anchor="middle" dominant-baseline="central" id="text-form-0" class="form-label">сара</text></svg><svg x="3.3549914360046387" y="40" width="67.78427124023438" height="30" style="overflow: visible;"><rect width="67.78427124023438" height="30" id="pos-0" class="pos" attr="upostag" subId="0" rx="5" ry="5" style="fill: rgb(175, 162, 255); stroke: rgb(0, 0, 0); stroke-width: 2px;"/><text x="50%" y="50%" class="pos-label" id="text-pos-0" text-anchor="middle" dominant-baseline="central">PRON</text></svg></svg><svg id="token-1" width="175.8524923324585" height="70" y="100" style="overflow: visible; cursor: pointer;" x="304.49425411224365"><line x1="87.92624616622925" y1="30" x2="87.92624616622925" y2="40" class="pos-edge" style="stroke: rgb(72, 72, 72); stroke-width: 3;"/><svg x="154.7285919189453" width="21.123900413513184" height="30" style="overflow: visible;"><path d="M0,0h16.123900413513184a5,5 0 0 1 5,5v20a5,5 0 0 1 -5,5h-16.123900413513184z" class="tokenNum" style="fill: rgb(175, 162, 255); stroke: rgb(0, 0, 0); stroke-width: 2px;"/><text class="tokenNum-label" x="50%" y="50%" text-anchor="middle" dominant-baseline="central">2</text></svg><svg width="154.7285919189453" height="30" id="group-1" class="token" subId="1" style="overflow: visible;"><path d="M154.7285919189453,0h-149.7285919189453a5,5 1 0 0 -5,5v20a5,5 1 0 0 5,5h149.7285919189453z" id="form-1" attr="form" subId="1" class="form" num="2" style="fill: rgb(127, 161, 255); stroke: rgb(0, 0, 0); stroke-width: 2px;"/><text x="50%" y="50%" text-anchor="middle" dominant-baseline="central" id="text-form-1" class="form-label">йшвасхiвырныс</text></svg><svg x="55.68983602523804" y="40" width="64.47282028198242" height="30" style="overflow: visible;"><rect width="64.47282028198242" height="30" id="pos-1" class="pos" attr="upostag" subId="1" rx="5" ry="5" style="fill: rgb(175, 162, 255); stroke: rgb(0, 0, 0); stroke-width: 2px;"/><text x="50%" y="50%" class="pos-label" id="text-pos-1" text-anchor="middle" dominant-baseline="central">VERB</text></svg></svg><svg id="token-2" width="135.8793249130249" height="70" y="100" style="overflow: visible; cursor: pointer;" x="510.34674644470215"><line x1="67.93966245651245" y1="30" x2="67.93966245651245" y2="40" class="pos-edge" style="stroke: rgb(72, 72, 72); stroke-width: 3;"/><svg x="114.75542449951172" width="21.123900413513184" height="30" style="overflow: visible;"><path d="M0,0h16.123900413513184a5,5 0 0 1 5,5v20a5,5 0 0 1 -5,5h-16.123900413513184z" class="tokenNum root" style="fill: rgb(175, 162, 255); stroke: rgb(0, 0, 0); stroke-width: 4px;"/><text class="tokenNum-label root" x="50%" y="50%" text-anchor="middle" dominant-baseline="central" style="font-weight: 700;">3</text></svg><svg width="114.75542449951172" height="30" id="group-2" class="token" subId="2" style="overflow: visible;"><path d="M114.75542449951172,0h-109.75542449951172a5,5 1 0 0 -5,5v20a5,5 1 0 0 5,5h109.75542449951172z" id="form-2" attr="form" subId="2" class="form root" num="3" style="fill: rgb(127, 161, 255); stroke: rgb(0, 0, 0); stroke-width: 4px;"/><text x="50%" y="50%" text-anchor="middle" dominant-baseline="central" id="text-form-2" class="form-label root" style="font-weight: 700;">йстахъыпi</text></svg><svg x="35.70325231552124" y="40" width="64.47282028198242" height="30" style="overflow: visible;"><rect width="64.47282028198242" height="30" id="pos-2" class="pos" attr="upostag" subId="2" rx="5" ry="5" style="fill: rgb(175, 162, 255); stroke: rgb(0, 0, 0); stroke-width: 2px;"/><text x="50%" y="50%" class="pos-label" id="text-pos-2" text-anchor="middle" dominant-baseline="central">VERB</text></svg></svg><svg id="token-3" width="188.36956691741943" height="70" y="100" style="overflow: visible; cursor: pointer;" x="676.226071357727"><line x1="94.18478345870972" y1="30" x2="94.18478345870972" y2="40" class="pos-edge" style="stroke: rgb(72, 72, 72); stroke-width: 3;"/><svg x="167.24566650390625" width="21.123900413513184" height="30" style="overflow: visible;"><path d="M0,0h16.123900413513184a5,5 0 0 1 5,5v20a5,5 0 0 1 -5,5h-16.123900413513184z" class="tokenNum" style="fill: rgb(175, 162, 255); stroke: rgb(0, 0, 0); stroke-width: 2px;"/><text class="tokenNum-label" x="50%" y="50%" text-anchor="middle" dominant-baseline="central">4</text></svg><svg width="167.24566650390625" height="30" id="group-3" class="token" subId="3" style="overflow: visible;"><path d="M167.24566650390625,0h-162.24566650390625a5,5 1 0 0 -5,5v20a5,5 1 0 0 5,5h162.24566650390625z" id="form-3" attr="form" subId="3" class="form" num="4" style="fill: rgb(127, 161, 255); stroke: rgb(0, 0, 0); stroke-width: 2px;"/><text x="50%" y="50%" text-anchor="middle" dominant-baseline="central" id="text-form-3" class="form-label">сшарыпхьагiвхаз</text></svg><svg x="61.948373317718506" y="40" width="64.47282028198242" height="30" style="overflow: visible;"><rect width="64.47282028198242" height="30" id="pos-3" class="pos" attr="upostag" subId="3" rx="5" ry="5" style="fill: rgb(175, 162, 255); stroke: rgb(0, 0, 0); stroke-width: 2px;"/><text x="50%" y="50%" class="pos-label" id="text-pos-3" text-anchor="middle" dominant-baseline="central">VERB</text></svg></svg><defs><marker id="end" viewBox="0 -5 10 10" refX="2" refY="2" markerWidth="15" markerHeight="15" orient="auto" style="fill: rgb(17, 17, 17);"><path d="M 1 1 L 3 2 L 1 3 Z"/></marker></defs><path class="dependency" attr="deprel" marker-end="url(#end)" d="M 562.5,100 L 552,35 C 541.5,-30 526.8,-30 512.0999999999999,-30 L 512.0999999999999,-30 436.06945991516113,-30M 363.43054008483887,-30 L 287.4,-30 C272.7,-30 258,-30 247.5,35 L237,94" id="dep_0_2" num="5" style="stroke-width: 4px; fill: none; stroke: rgb(17, 17, 17); opacity: 0.766;"/><path class="dependency" attr="deprel" marker-end="url(#end)" d="M 562.5,100 L 557.25,67.5 C 552,35 544.65,35 537.3,35 L 537.3,35 518.8653373718262,35M 435.1346626281738,35 L 416.70000000000005,35 C409.35,35 402,35 396.75,67.5 L391.5,94" id="dep_1_2" num="6" style="stroke-width: 4px; fill: none; stroke: rgb(17, 17, 17); opacity: 0.766;"/><path class="dependency" attr="deprel" marker-end="url(#end)" d="M 406.5,100 L 417,2.5 C 427.5,-95 442.2,-95 456.9,-95 L 456.9,-95 548.59765625,-95M 627.90234375,-95 L 719.5999999999999,-95 C734.3,-95 749,-95 759.5,2.5 L770,94" id="dep_3_1" num="7" style="stroke-width: 4px; fill: none; stroke: rgb(17, 17, 17); opacity: 0.766;"/><line x1="577.5" y1="-127.5" x2="577.5" y2="93" class="root-deprel" marker-end="url(#end)" style="stroke: rgb(17, 17, 17); opacity: 0.766; stroke-width: 4px;"/><text id="text-dep_0_2" class="deprel-label" transform="translate(399.75,-30)" y="-1" text-anchor="middle" dominant-baseline="central" style="cursor: pointer; text-shadow: rgb(255, 255, 255) 1px 1px 5px;">⊲nsubj</text><text id="text-dep_1_2" class="deprel-label" transform="translate(477,35)" y="-1" text-anchor="middle" dominant-baseline="central" style="cursor: pointer; text-shadow: rgb(255, 255, 255) 1px 1px 5px;">⊲xcomp</text><text id="text-dep_3_1" class="deprel-label" transform="translate(588.25,-95)" y="-1" text-anchor="middle" dominant-baseline="central" style="cursor: pointer; text-shadow: rgb(255, 255, 255) 1px 1px 5px;">obj:rel⊳</text><text x="577.5" y="-138.5" class="root-deprel-label" text-anchor="middle" dominant-baseline="central" style="text-shadow: rgb(255, 255, 255) 1px 1px 5px;">ROOT</text></g></svg>