<svg xmlns="http://www.w3.org/2000/svg" width="1303" height="313" id="graph-svg" style="background: white; font-family: Arial; font-size: 20px;"><g id="graph-g" transform="translate(-97.16619492096396,73.91732385367233) scale(0.6346354430099282)"><svg id="token-0" width="115.35493755340576" height="70" y="100" style="overflow: visible; cursor: pointer;" x="200"><line x1="57.67746877670288" y1="30" x2="57.67746877670288" y2="40" class="pos-edge" style="stroke: rgb(72, 72, 72); stroke-width: 3;"/><svg x="94.22650146484375" width="21.12843608856201" height="30" style="overflow: visible;"><path d="M0,0h16.12843608856201a5,5 0 0 1 5,5v20a5,5 0 0 1 -5,5h-16.12843608856201z" class="tokenNum" style="fill: rgb(175, 162, 255); stroke: rgb(0, 0, 0); stroke-width: 2px;"/><text class="tokenNum-label" x="50%" y="50%" text-anchor="middle" dominant-baseline="central">1</text></svg><svg width="94.22650146484375" height="30" id="group-0" class="token" subId="0" style="overflow: visible;"><path d="M94.22650146484375,0h-89.22650146484375a5,5 1 0 0 -5,5v20a5,5 1 0 0 5,5h89.22650146484375z" id="form-0" attr="form" subId="0" class="form" num="1" style="fill: rgb(127, 161, 255); stroke: rgb(0, 0, 0); stroke-width: 2px;"/><text x="50%" y="50%" text-anchor="middle" dominant-baseline="central" id="text-form-0" class="form-label">апхьарта</text></svg><svg x="23.237584590911865" y="40" width="68.87976837158203" height="30" style="overflow: visible;"><rect width="68.87976837158203" height="30" id="pos-0" class="pos" attr="upostag" subId="0" rx="5" ry="5" style="fill: rgb(175, 162, 255); stroke: rgb(0, 0, 0); stroke-width: 2px;"/><text x="50%" y="50%" class="pos-label" id="text-pos-0" text-anchor="middle" dominant-baseline="central">NOUN</text></svg></svg><svg id="token-1" width="116.90602397918701" height="70" y="100" style="overflow: visible; cursor: pointer;" x="345.35493755340576"><line x1="58.453011989593506" y1="30" x2="58.453011989593506" y2="40" class="pos-edge" style="stroke: rgb(72, 72, 72); stroke-width: 3;"/><svg x="95.777587890625" width="21.12843608856201" height="30" style="overflow: visible;"><path d="M0,0h16.12843608856201a5,5 0 0 1 5,5v20a5,5 0 0 1 -5,5h-16.12843608856201z" class="tokenNum" style="fill: rgb(175, 162, 255); stroke: rgb(0, 0, 0); stroke-width: 2px;"/><text class="tokenNum-label" x="50%" y="50%" text-anchor="middle" dominant-baseline="central">2</text></svg><svg width="95.777587890625" height="30" id="group-1" class="token" subId="1" style="overflow: visible;"><path d="M95.777587890625,0h-90.777587890625a5,5 1 0 0 -5,5v20a5,5 1 0 0 5,5h90.777587890625z" id="form-1" attr="form" subId="1" class="form" num="2" style="fill: rgb(127, 161, 255); stroke: rgb(0, 0, 0); stroke-width: 2px;"/><text x="50%" y="50%" text-anchor="middle" dominant-baseline="central" id="text-form-1" class="form-label">сангIалга</text></svg><svg x="26.222812175750732" y="40" width="64.46039962768555" height="30" style="overflow: visible;"><rect width="64.46039962768555" height="30" id="pos-1" class="pos" attr="upostag" subId="1" rx="5" ry="5" style="fill: rgb(175, 162, 255); stroke: rgb(0, 0, 0); stroke-width: 2px;"/><text x="50%" y="50%" class="pos-label" id="text-pos-1" text-anchor="middle" dominant-baseline="central">VERB</text></svg></svg><svg id="token-2" width="123.33195781707764" height="70" y="100" style="overflow: visible; cursor: pointer;" x="492.2609615325928"><line x1="61.66597890853882" y1="30" x2="61.66597890853882" y2="40" class="pos-edge" style="stroke: rgb(72, 72, 72); stroke-width: 3;"/><svg x="102.20352172851562" width="21.12843608856201" height="30" style="overflow: visible;"><path d="M0,0h16.12843608856201a5,5 0 0 1 5,5v20a5,5 0 0 1 -5,5h-16.12843608856201z" class="tokenNum" style="fill: rgb(175, 162, 255); stroke: rgb(0, 0, 0); stroke-width: 2px;"/><text class="tokenNum-label" x="50%" y="50%" text-anchor="middle" dominant-baseline="central">3</text></svg><svg width="102.20352172851562" height="30" id="group-2" class="token" subId="2" style="overflow: visible;"><path d="M102.20352172851562,0h-97.20352172851562a5,5 1 0 0 -5,5v20a5,5 1 0 0 5,5h97.20352172851562z" id="form-2" attr="form" subId="2" class="form" num="3" style="fill: rgb(127, 161, 255); stroke: rgb(0, 0, 0); stroke-width: 2px;"/><text x="50%" y="50%" text-anchor="middle" dominant-baseline="central" id="text-form-2" class="form-label">аинститут</text></svg><svg x="27.226094722747803" y="40" width="68.87976837158203" height="30" style="overflow: visible;"><rect width="68.87976837158203" height="30" id="pos-2" class="pos" attr="upostag" subId="2" rx="5" ry="5" style="fill: rgb(175, 162, 255); stroke: rgb(0, 0, 0); stroke-width: 2px;"/><text x="50%" y="50%" class="pos-label" id="text-pos-2" text-anchor="middle" dominant-baseline="central">NOUN</text></svg></svg><svg id="token-3" width="81.25564098358154" height="70" y="100" style="overflow: visible; cursor: pointer;" x="645.5929193496704"><line x1="40.62782049179077" y1="30" x2="40.62782049179077" y2="40" class="pos-edge" style="stroke: rgb(72, 72, 72); stroke-width: 3;"/><svg x="60.12720489501953" width="21.12843608856201" height="30" style="overflow: visible;"><path d="M0,0h16.12843608856201a5,5 0 0 1 5,5v20a5,5 0 0 1 -5,5h-16.12843608856201z" class="tokenNum root" style="fill: rgb(175, 162, 255); stroke: rgb(0, 0, 0); stroke-width: 4px;"/><text class="tokenNum-label root" x="50%" y="50%" text-anchor="middle" dominant-baseline="central" style="font-weight: 700;">4</text></svg><svg width="60.12720489501953" height="30" id="group-3" class="token" subId="3" style="overflow: visible;"><path d="M60.12720489501953,0h-55.12720489501953a5,5 1 0 0 -5,5v20a5,5 1 0 0 5,5h55.12720489501953z" id="form-3" attr="form" subId="3" class="form root" num="4" style="fill: rgb(127, 161, 255); stroke: rgb(0, 0, 0); stroke-width: 4px;"/><text x="50%" y="50%" text-anchor="middle" dominant-baseline="central" id="text-form-3" class="form-label root" style="font-weight: 700;">сцатI</text></svg><svg x="8.397620677947998" y="40" width="64.46039962768555" height="30" style="overflow: visible;"><rect width="64.46039962768555" height="30" id="pos-3" class="pos" attr="upostag" subId="3" rx="5" ry="5" style="fill: rgb(175, 162, 255); stroke: rgb(0, 0, 0); stroke-width: 2px;"/><text x="50%" y="50%" class="pos-label" id="text-pos-3" text-anchor="middle" dominant-baseline="central">VERB</text></svg></svg><defs><marker id="end" viewBox="0 -5 10 10" refX="2" refY="2" markerWidth="15" markerHeight="15" orient="auto" style="fill: rgb(17, 17, 17);"><path d="M 1 1 L 3 2 L 1 3 Z"/></marker></defs><path class="dependency" attr="deprel" marker-end="url(#end)" d="M 388,100 L 382.75,67.5 C 377.5,35 370.15,35 362.79999999999995,35 L 362.79999999999995,35 348.50502586364746,35M 296.99497413635254,35 L 282.70000000000005,35 C275.35,35 268,35 262.75,67.5 L257.5,94" id="dep_0_1" num="5" style="stroke-width: 4px; fill: none; stroke: rgb(17, 17, 17); opacity: 0.766;"/><path class="dependency" attr="deprel" marker-end="url(#end)" d="M 670.5,100 L 660,35 C 649.5,-30 634.8,-30 620.0999999999999,-30 L 620.0999999999999,-30 576.3971061706543,-30M 497.1028938293457,-30 L 453.4,-30 C438.7,-30 424,-30 413.5,35 L403,94" id="dep_1_3" num="6" style="stroke-width: 4px; fill: none; stroke: rgb(17, 17, 17); opacity: 0.766;"/><path class="dependency" attr="deprel" marker-end="url(#end)" d="M 670.5,100 L 665.25,67.5 C 660,35 652.65,35 645.3,35 L 645.3,35 637.7550258636475,35M 586.2449741363525,35 L 578.7,35 C571.35,35 564,35 558.75,67.5 L553.5,94" id="dep_2_3" num="7" style="stroke-width: 4px; fill: none; stroke: rgb(17, 17, 17); opacity: 0.766;"/><line x1="685.5" y1="-62.5" x2="685.5" y2="93" class="root-deprel" marker-end="url(#end)" style="stroke: rgb(17, 17, 17); opacity: 0.766; stroke-width: 4px;"/><text id="text-dep_0_1" class="deprel-label" transform="translate(322.75,35)" y="-1" text-anchor="middle" dominant-baseline="central" style="cursor: pointer; text-shadow: rgb(255, 255, 255) 1px 1px 5px;">⊲obl</text><text id="text-dep_1_3" class="deprel-label" transform="translate(536.75,-30)" y="-1" text-anchor="middle" dominant-baseline="central" style="cursor: pointer; text-shadow: rgb(255, 255, 255) 1px 1px 5px;">⊲obl:rel</text><text id="text-dep_2_3" class="deprel-label" transform="translate(612,35)" y="-1" text-anchor="middle" dominant-baseline="central" style="cursor: pointer; text-shadow: rgb(255, 255, 255) 1px 1px 5px;">⊲obl</text><text x="685.5" y="-73.5" class="root-deprel-label" text-anchor="middle" dominant-baseline="central" style="text-shadow: rgb(255, 255, 255) 1px 1px 5px;">ROOT</text></g></svg>