<svg xmlns="http://www.w3.org/2000/svg" width="1303" height="370" id="graph-svg" style="background: white; font-family: Arial; font-size: 20px;"><g id="graph-g" transform="translate(-121.24542963942417,206.41213226331416) scale(0.6820739174397087)"><svg id="token-0" width="150.8280258178711" height="70" y="100" style="overflow: visible; cursor: pointer;" x="200"><line x1="75.41401290893555" y1="30" x2="75.41401290893555" y2="40" class="pos-edge" style="stroke: rgb(72, 72, 72); stroke-width: 3;"/><svg x="129.7061538696289" width="21.121871948242188" height="30" style="overflow: visible;"><path d="M0,0h16.121871948242188a5,5 0 0 1 5,5v20a5,5 0 0 1 -5,5h-16.121871948242188z" class="tokenNum" style="fill: rgb(175, 162, 255); stroke: rgb(0, 0, 0); stroke-width: 2px;"/><text class="tokenNum-label" x="50%" y="50%" text-anchor="middle" dominant-baseline="central">1</text></svg><svg width="129.7061538696289" height="30" id="group-0" class="token" subId="0" style="overflow: visible;"><path d="M129.7061538696289,0h-124.7061538696289a5,5 1 0 0 -5,5v20a5,5 1 0 0 5,5h124.7061538696289z" id="form-0" attr="form" subId="0" class="form" num="1" style="fill: rgb(127, 161, 255); stroke: rgb(0, 0, 0); stroke-width: 2px;"/><text x="50%" y="50%" text-anchor="middle" dominant-baseline="central" id="text-form-0" class="form-label">ауищтарагьи</text></svg><svg x="49.854013442993164" y="40" width="51.119998931884766" height="30" style="overflow: visible;"><rect width="51.119998931884766" height="30" id="pos-0" class="pos" attr="upostag" subId="0" rx="5" ry="5" style="fill: rgb(175, 162, 255); stroke: rgb(0, 0, 0); stroke-width: 2px;"/><text x="50%" y="50%" class="pos-label" id="text-pos-0" text-anchor="middle" dominant-baseline="central">ADV</text></svg></svg><svg id="token-1" width="74.48686218261719" height="70" y="100" style="overflow: visible; cursor: pointer;" x="380.8280258178711"><line x1="37.243431091308594" y1="30" x2="37.243431091308594" y2="40" class="pos-edge" style="stroke: rgb(72, 72, 72); stroke-width: 3;"/><svg x="53.364990234375" width="21.121871948242188" height="30" style="overflow: visible;"><path d="M0,0h16.121871948242188a5,5 0 0 1 5,5v20a5,5 0 0 1 -5,5h-16.121871948242188z" class="tokenNum" style="fill: rgb(175, 162, 255); stroke: rgb(0, 0, 0); stroke-width: 2px;"/><text class="tokenNum-label" x="50%" y="50%" text-anchor="middle" dominant-baseline="central">2</text></svg><svg width="53.364990234375" height="30" id="group-1" class="token" subId="1" style="overflow: visible;"><path d="M53.364990234375,0h-48.364990234375a5,5 1 0 0 -5,5v20a5,5 1 0 0 5,5h48.364990234375z" id="form-1" attr="form" subId="1" class="form" num="2" style="fill: rgb(127, 161, 255); stroke: rgb(0, 0, 0); stroke-width: 2px;"/><text x="50%" y="50%" text-anchor="middle" dominant-baseline="central" id="text-form-1" class="form-label">сара</text></svg><svg x="3.350618362426758" y="40" width="67.78562545776367" height="30" style="overflow: visible;"><rect width="67.78562545776367" height="30" id="pos-1" class="pos" attr="upostag" subId="1" rx="5" ry="5" style="fill: rgb(175, 162, 255); stroke: rgb(0, 0, 0); stroke-width: 2px;"/><text x="50%" y="50%" class="pos-label" id="text-pos-1" text-anchor="middle" dominant-baseline="central">PRON</text></svg></svg><svg id="token-2" width="115.35487365722656" height="70" y="100" style="overflow: visible; cursor: pointer;" x="485.3148880004883"><line x1="57.67743682861328" y1="30" x2="57.67743682861328" y2="40" class="pos-edge" style="stroke: rgb(72, 72, 72); stroke-width: 3;"/><svg x="94.23300170898438" width="21.121871948242188" height="30" style="overflow: visible;"><path d="M0,0h16.121871948242188a5,5 0 0 1 5,5v20a5,5 0 0 1 -5,5h-16.121871948242188z" class="tokenNum" style="fill: rgb(175, 162, 255); stroke: rgb(0, 0, 0); stroke-width: 2px;"/><text class="tokenNum-label" x="50%" y="50%" text-anchor="middle" dominant-baseline="central">3</text></svg><svg width="94.23300170898438" height="30" id="group-2" class="token" subId="2" style="overflow: visible;"><path d="M94.23300170898438,0h-89.23300170898438a5,5 1 0 0 -5,5v20a5,5 1 0 0 5,5h89.23300170898438z" id="form-2" attr="form" subId="2" class="form" num="3" style="fill: rgb(127, 161, 255); stroke: rgb(0, 0, 0); stroke-width: 2px;"/><text x="50%" y="50%" text-anchor="middle" dominant-baseline="central" id="text-form-2" class="form-label">апхьарта</text></svg><svg x="23.234830856323242" y="40" width="68.88521194458008" height="30" style="overflow: visible;"><rect width="68.88521194458008" height="30" id="pos-2" class="pos" attr="upostag" subId="2" rx="5" ry="5" style="fill: rgb(175, 162, 255); stroke: rgb(0, 0, 0); stroke-width: 2px;"/><text x="50%" y="50%" class="pos-label" id="text-pos-2" text-anchor="middle" dominant-baseline="central">NOUN</text></svg></svg><svg id="token-3" width="116.2597427368164" height="70" y="100" style="overflow: visible; cursor: pointer;" x="630.6697616577148"><line x1="58.1298713684082" y1="30" x2="58.1298713684082" y2="40" class="pos-edge" style="stroke: rgb(72, 72, 72); stroke-width: 3;"/><svg x="95.13787078857422" width="21.121871948242188" height="30" style="overflow: visible;"><path d="M0,0h16.121871948242188a5,5 0 0 1 5,5v20a5,5 0 0 1 -5,5h-16.121871948242188z" class="tokenNum" style="fill: rgb(175, 162, 255); stroke: rgb(0, 0, 0); stroke-width: 2px;"/><text class="tokenNum-label" x="50%" y="50%" text-anchor="middle" dominant-baseline="central">4</text></svg><svg width="95.13787078857422" height="30" id="group-3" class="token" subId="3" style="overflow: visible;"><path d="M95.13787078857422,0h-90.13787078857422a5,5 1 0 0 -5,5v20a5,5 1 0 0 5,5h90.13787078857422z" id="form-3" attr="form" subId="3" class="form" num="4" style="fill: rgb(127, 161, 255); stroke: rgb(0, 0, 0); stroke-width: 2px;"/><text x="50%" y="50%" text-anchor="middle" dominant-baseline="central" id="text-form-3" class="form-label">асабиква</text></svg><svg x="23.687265396118164" y="40" width="68.88521194458008" height="30" style="overflow: visible;"><rect width="68.88521194458008" height="30" id="pos-3" class="pos" attr="upostag" subId="3" rx="5" ry="5" style="fill: rgb(175, 162, 255); stroke: rgb(0, 0, 0); stroke-width: 2px;"/><text x="50%" y="50%" class="pos-label" id="text-pos-3" text-anchor="middle" dominant-baseline="central">NOUN</text></svg></svg><svg id="token-4" width="201.34034729003906" height="70" y="100" style="overflow: visible; cursor: pointer;" x="776.9295043945312"><line x1="100.67017364501953" y1="30" x2="100.67017364501953" y2="40" class="pos-edge" style="stroke: rgb(72, 72, 72); stroke-width: 3;"/><svg x="180.21847534179688" width="21.121871948242188" height="30" style="overflow: visible;"><path d="M0,0h16.121871948242188a5,5 0 0 1 5,5v20a5,5 0 0 1 -5,5h-16.121871948242188z" class="tokenNum" style="fill: rgb(175, 162, 255); stroke: rgb(0, 0, 0); stroke-width: 2px;"/><text class="tokenNum-label" x="50%" y="50%" text-anchor="middle" dominant-baseline="central">5</text></svg><svg width="180.21847534179688" height="30" id="group-4" class="token" subId="4" style="overflow: visible;"><path d="M180.21847534179688,0h-175.21847534179688a5,5 1 0 0 -5,5v20a5,5 1 0 0 5,5h175.21847534179688z" id="form-4" attr="form" subId="4" class="form" num="5" style="fill: rgb(127, 161, 255); stroke: rgb(0, 0, 0); stroke-width: 2px;"/><text x="50%" y="50%" text-anchor="middle" dominant-baseline="central" id="text-form-4" class="form-label">ангьлызбызшвала</text></svg><svg x="66.22756767272949" y="40" width="68.88521194458008" height="30" style="overflow: visible;"><rect width="68.88521194458008" height="30" id="pos-4" class="pos" attr="upostag" subId="4" rx="5" ry="5" style="fill: rgb(175, 162, 255); stroke: rgb(0, 0, 0); stroke-width: 2px;"/><text x="50%" y="50%" class="pos-label" id="text-pos-4" text-anchor="middle" dominant-baseline="central">NOUN</text></svg></svg><svg id="token-5" width="155.44400787353516" height="70" y="100" style="overflow: visible; cursor: pointer;" x="1008.2698516845703"><line x1="77.72200393676758" y1="30" x2="77.72200393676758" y2="40" class="pos-edge" style="stroke: rgb(72, 72, 72); stroke-width: 3;"/><svg x="134.32213592529297" width="21.121871948242188" height="30" style="overflow: visible;"><path d="M0,0h16.121871948242188a5,5 0 0 1 5,5v20a5,5 0 0 1 -5,5h-16.121871948242188z" class="tokenNum root" style="fill: rgb(175, 162, 255); stroke: rgb(0, 0, 0); stroke-width: 4px;"/><text class="tokenNum-label root" x="50%" y="50%" text-anchor="middle" dominant-baseline="central" style="font-weight: 700;">6</text></svg><svg width="134.32213592529297" height="30" id="group-5" class="token" subId="5" style="overflow: visible;"><path d="M134.32213592529297,0h-129.32213592529297a5,5 1 0 0 -5,5v20a5,5 1 0 0 5,5h129.32213592529297z" id="form-5" attr="form" subId="5" class="form root" num="6" style="fill: rgb(127, 161, 255); stroke: rgb(0, 0, 0); stroke-width: 4px;"/><text x="50%" y="50%" text-anchor="middle" dominant-baseline="central" id="text-form-5" class="form-label root" style="font-weight: 700;">йасрыпхьид</text></svg><svg x="45.49002647399902" y="40" width="64.46395492553711" height="30" style="overflow: visible;"><rect width="64.46395492553711" height="30" id="pos-5" class="pos" attr="upostag" subId="5" rx="5" ry="5" style="fill: rgb(175, 162, 255); stroke: rgb(0, 0, 0); stroke-width: 2px;"/><text x="50%" y="50%" class="pos-label" id="text-pos-5" text-anchor="middle" dominant-baseline="central">VERB</text></svg></svg><defs><marker id="end" viewBox="0 -5 10 10" refX="2" refY="2" markerWidth="15" markerHeight="15" orient="auto" style="fill: rgb(17, 17, 17);"><path d="M 1 1 L 3 2 L 1 3 Z"/></marker></defs><path class="dependency" attr="deprel" marker-end="url(#end)" d="M 1070.5,100 L 1044.25,-62.5 C 1018,-225 981.25,-225 944.5,-225 L 944.5,-225 720.7370071411133,-225M 624.7629928588867,-225 L 401,-225 C364.25,-225 327.5,-225 301.25,-62.5 L275,94" id="dep_0_5" num="7" style="stroke-width: 4px; fill: none; stroke: rgb(17, 17, 17); opacity: 0.766;"/><path class="dependency" attr="deprel" marker-end="url(#end)" d="M 1070.5,100 L 1049.5,-30 C 1028.5,-160 999.1,-160 969.7,-160 L 969.7,-160 780.0653419494629,-160M 707.4346580505371,-160 L 517.8,-160 C488.4,-160 459,-160 438,-30 L417,94" id="dep_1_5" num="8" style="stroke-width: 4px; fill: none; stroke: rgb(17, 17, 17); opacity: 0.766;"/><path class="dependency" attr="deprel" marker-end="url(#end)" d="M 1070.5,100 L 1054.75,2.5 C 1039,-95 1016.95,-95 994.9000000000001,-95 L 994.9000000000001,-95 832.2547187805176,-95M 780.7452812194824,-95 L 618.0999999999999,-95 C596.05,-95 574,-95 558.25,2.5 L542.5,94" id="dep_2_5" num="9" style="stroke-width: 4px; fill: none; stroke: rgb(17, 17, 17); opacity: 0.766;"/><path class="dependency" attr="deprel" marker-end="url(#end)" d="M 1070.5,100 L 1060,35 C 1049.5,-30 1034.8,-30 1020.0999999999999,-30 L 1020.0999999999999,-30 905.0047187805176,-30M 853.4952812194824,-30 L 738.4000000000001,-30 C723.7,-30 709,-30 698.5,35 L688,94" id="dep_3_5" num="10" style="stroke-width: 4px; fill: none; stroke: rgb(17, 17, 17); opacity: 0.766;"/><path class="dependency" attr="deprel" marker-end="url(#end)" d="M 1070.5,100 L 1065.25,67.5 C 1060,35 1052.65,35 1045.3000000000002,35 L 1045.3000000000002,35 999.2547187805176,35M 947.7452812194824,35 L 901.7,35 C894.35,35 887,35 881.75,67.5 L876.5,94" id="dep_4_5" num="11" style="stroke-width: 4px; fill: none; stroke: rgb(17, 17, 17); opacity: 0.766;"/><line x1="1085.5" y1="-257.5" x2="1085.5" y2="93" class="root-deprel" marker-end="url(#end)" style="stroke: rgb(17, 17, 17); opacity: 0.766; stroke-width: 4px;"/><text id="text-dep_0_5" class="deprel-label" transform="translate(672.75,-225)" y="-1" text-anchor="middle" dominant-baseline="central" style="cursor: pointer; text-shadow: rgb(255, 255, 255) 1px 1px 5px;">⊲advmod</text><text id="text-dep_1_5" class="deprel-label" transform="translate(743.75,-160)" y="-1" text-anchor="middle" dominant-baseline="central" style="cursor: pointer; text-shadow: rgb(255, 255, 255) 1px 1px 5px;">⊲nsubj</text><text id="text-dep_2_5" class="deprel-label" transform="translate(806.5,-95)" y="-1" text-anchor="middle" dominant-baseline="central" style="cursor: pointer; text-shadow: rgb(255, 255, 255) 1px 1px 5px;">⊲obl</text><text id="text-dep_3_5" class="deprel-label" transform="translate(879.25,-30)" y="-1" text-anchor="middle" dominant-baseline="central" style="cursor: pointer; text-shadow: rgb(255, 255, 255) 1px 1px 5px;">⊲obj</text><text id="text-dep_4_5" class="deprel-label" transform="translate(973.5,35)" y="-1" text-anchor="middle" dominant-baseline="central" style="cursor: pointer; text-shadow: rgb(255, 255, 255) 1px 1px 5px;">⊲obl</text><text x="1085.5" y="-268.5" class="root-deprel-label" text-anchor="middle" dominant-baseline="central" style="text-shadow: rgb(255, 255, 255) 1px 1px 5px;">ROOT</text></g></svg>