<svg xmlns="http://www.w3.org/2000/svg" width="1440" height="332" id="graph-svg" style="background: white; font-family: Arial; font-size: 20px;"><g id="graph-g" transform="translate(-33.12098139831937,71.6187431164476) scale(0.8585654364377865)"><svg id="token-0" width="74.49678611755371" height="70" y="100" style="overflow: visible; cursor: pointer;" x="116.94844207763663"><line x1="37.248393058776855" y1="30" x2="37.248393058776855" y2="40" class="pos-edge" style="stroke: rgb(72, 72, 72); stroke-width: 3;"/><svg x="53.36812210083008" width="21.128664016723633" height="30" style="overflow: visible;"><path d="M0,0h16.128664016723633a5,5 0 0 1 5,5v20a5,5 0 0 1 -5,5h-16.128664016723633z" class="tokenNum" style="fill: rgb(175, 162, 255); stroke: rgb(0, 0, 0); stroke-width: 2px;"/><text class="tokenNum-label" x="50%" y="50%" text-anchor="middle" dominant-baseline="central">1</text></svg><svg width="53.36812210083008" height="30" id="group-0" class="token" subId="0" style="overflow: visible;"><path d="M53.36812210083008,0h-48.36812210083008a5,5 1 0 0 -5,5v20a5,5 1 0 0 5,5h48.36812210083008z" id="form-0" attr="form" subId="0" class="form" num="1" style="fill: rgb(127, 161, 255); stroke: rgb(0, 0, 0); stroke-width: 2px;"/><text x="50%" y="50%" text-anchor="middle" dominant-baseline="central" id="text-form-0" class="form-label">сара</text></svg><svg x="12.247736930847168" y="40" width="50.001312255859375" height="30" style="overflow: visible;"><rect width="50.001312255859375" height="30" id="pos-0" class="pos" attr="upostag" subId="0" rx="5" ry="5" style="fill: rgb(175, 162, 255); stroke: rgb(0, 0, 0); stroke-width: 2px;"/><text x="50%" y="50%" class="pos-label" id="text-pos-0" text-anchor="middle" dominant-baseline="central">DET</text></svg></svg><svg id="token-1" width="96.26274299621582" height="70" y="100" style="overflow: visible; cursor: pointer;" x="304.4967861175537"><line x1="48.13137149810791" y1="30" x2="48.13137149810791" y2="40" class="pos-edge" style="stroke: rgb(72, 72, 72); stroke-width: 3;"/><svg x="75.13407897949219" width="21.128664016723633" height="30" style="overflow: visible;"><path d="M0,0h16.128664016723633a5,5 0 0 1 5,5v20a5,5 0 0 1 -5,5h-16.128664016723633z" class="tokenNum" style="fill: rgb(175, 162, 255); stroke: rgb(0, 0, 0); stroke-width: 2px;"/><text class="tokenNum-label" x="50%" y="50%" text-anchor="middle" dominant-baseline="central">2</text></svg><svg width="75.13407897949219" height="30" id="group-1" class="token" subId="1" style="overflow: visible;"><path d="M75.13407897949219,0h-70.13407897949219a5,5 1 0 0 -5,5v20a5,5 1 0 0 5,5h70.13407897949219z" id="form-1" attr="form" subId="1" class="form" num="2" style="fill: rgb(127, 161, 255); stroke: rgb(0, 0, 0); stroke-width: 2px;"/><text x="50%" y="50%" text-anchor="middle" dominant-baseline="central" id="text-form-1" class="form-label">сыхьиз</text></svg><svg x="13.6900053024292" y="40" width="68.88273239135742" height="30" style="overflow: visible;"><rect width="68.88273239135742" height="30" id="pos-1" class="pos" attr="upostag" subId="1" rx="5" ry="5" style="fill: rgb(175, 162, 255); stroke: rgb(0, 0, 0); stroke-width: 2px;"/><text x="50%" y="50%" class="pos-label" id="text-pos-1" text-anchor="middle" dominant-baseline="central">NOUN</text></svg></svg><svg id="token-2" width="125.12629127502441" height="70" y="100" style="overflow: visible; cursor: pointer;" x="430.75952911376953"><line x1="62.56314563751221" y1="30" x2="62.56314563751221" y2="40" class="pos-edge" style="stroke: rgb(72, 72, 72); stroke-width: 3;"/><svg x="103.99762725830078" width="21.128664016723633" height="30" style="overflow: visible;"><path d="M0,0h16.128664016723633a5,5 0 0 1 5,5v20a5,5 0 0 1 -5,5h-16.128664016723633z" class="tokenNum root" style="fill: rgb(175, 162, 255); stroke: rgb(0, 0, 0); stroke-width: 4px;"/><text class="tokenNum-label root" x="50%" y="50%" text-anchor="middle" dominant-baseline="central" style="font-weight: 700;">3</text></svg><svg width="103.99762725830078" height="30" id="group-2" class="token" subId="2" style="overflow: visible;"><path d="M103.99762725830078,0h-98.99762725830078a5,5 1 0 0 -5,5v20a5,5 1 0 0 5,5h98.99762725830078z" id="form-2" attr="form" subId="2" class="form root" num="3" style="fill: rgb(127, 161, 255); stroke: rgb(0, 0, 0); stroke-width: 4px;"/><text x="50%" y="50%" text-anchor="middle" dominant-baseline="central" id="text-form-2" class="form-label root" style="font-weight: 700;">фатимапI</text></svg><svg x="30.332953453063965" y="40" width="64.46038436889648" height="30" style="overflow: visible;"><rect width="64.46038436889648" height="30" id="pos-2" class="pos" attr="upostag" subId="2" rx="5" ry="5" style="fill: rgb(175, 162, 255); stroke: rgb(0, 0, 0); stroke-width: 2px;"/><text x="50%" y="50%" class="pos-label" id="text-pos-2" text-anchor="middle" dominant-baseline="central">VERB</text></svg></svg><defs><marker id="end" viewBox="0 -5 10 10" refX="2" refY="2" markerWidth="15" markerHeight="15" orient="auto" style="fill: rgb(17, 17, 17);"><path d="M 1 1 L 3 2 L 1 3 Z"/></marker></defs><path class="dependency" attr="deprel" marker-end="url(#end)" d="M 337,100 L 331.75,67.5 C 326.5,35 319.15,35 311.79999999999995,35 L 311.79999999999995,35 306.32577896118164,35M 183.67422103881836,35 L 178.2,35 C170.85,35 163.5,35 158.25,67.5 L153,94" id="dep_0_1" num="4" style="stroke-width: 4px; fill: none; stroke: rgb(17, 17, 17); opacity: 0.766;"/><path class="dependency" attr="deprel" marker-end="url(#end)" d="M 477.5,100 L 472.25,67.5 C 467,35 459.65,35 452.29999999999995,35 L 452.29999999999995,35 451.0704097747803,35M 378.4295902252197,35 L 377.20000000000005,35 C369.85,35 362.5,35 357.25,67.5 L352,94" id="dep_1_2" num="5" style="stroke-width: 4px; fill: none; stroke: rgb(17, 17, 17); opacity: 0.766;"/><line x1="492.5" y1="2.5" x2="492.5" y2="93" class="root-deprel" marker-end="url(#end)" style="stroke: rgb(17, 17, 17); opacity: 0.766; stroke-width: 4px;"/><text id="text-dep_0_1" class="deprel-label" transform="translate(245,35)" y="-1" text-anchor="middle" dominant-baseline="central" style="cursor: pointer; text-shadow: rgb(255, 255, 255) 1px 1px 5px;">⊲nmod:poss</text><text id="text-dep_1_2" class="deprel-label" transform="translate(414.75,35)" y="-1" text-anchor="middle" dominant-baseline="central" style="cursor: pointer; text-shadow: rgb(255, 255, 255) 1px 1px 5px;">⊲nsubj</text><text x="492.5" y="-8.5" class="root-deprel-label" text-anchor="middle" dominant-baseline="central" style="text-shadow: rgb(255, 255, 255) 1px 1px 5px;">ROOT</text></g></svg>