<svg xmlns="http://www.w3.org/2000/svg" width="1440" height="304" id="graph-svg" style="background: white; font-family: Arial; font-size: 20px;"><g id="graph-g" transform="translate(-102.07143914019593,170.43489419822458) scale(0.5570968254096877)"><svg id="token-0" width="92.26357936859131" height="70" y="100" style="overflow: visible; cursor: pointer;" x="200"><line x1="46.131789684295654" y1="30" x2="46.131789684295654" y2="40" class="pos-edge" style="stroke: rgb(72, 72, 72); stroke-width: 3;"/><svg x="71.12884521484375" width="21.13473415374756" height="30" style="overflow: visible;"><path d="M0,0h16.13473415374756a5,5 0 0 1 5,5v20a5,5 0 0 1 -5,5h-16.13473415374756z" class="tokenNum" style="fill: rgb(175, 162, 255); stroke: rgb(0, 0, 0); stroke-width: 2px;"/><text class="tokenNum-label" x="50%" y="50%" text-anchor="middle" dominant-baseline="central">1</text></svg><svg width="71.12884521484375" height="30" id="group-0" class="token" subId="0" style="overflow: visible;"><path d="M71.12884521484375,0h-66.12884521484375a5,5 1 0 0 -5,5v20a5,5 1 0 0 5,5h66.12884521484375z" id="form-0" attr="form" subId="0" class="form" num="1" style="fill: rgb(127, 161, 255); stroke: rgb(0, 0, 0); stroke-width: 2px;"/><text x="50%" y="50%" text-anchor="middle" dominant-baseline="central" id="text-form-0" class="form-label">саргьи</text></svg><svg x="12.243186473846436" y="40" width="67.77720642089844" height="30" style="overflow: visible;"><rect width="67.77720642089844" height="30" id="pos-0" class="pos" attr="upostag" subId="0" rx="5" ry="5" style="fill: rgb(175, 162, 255); stroke: rgb(0, 0, 0); stroke-width: 2px;"/><text x="50%" y="50%" class="pos-label" id="text-pos-0" text-anchor="middle" dominant-baseline="central">PRON</text></svg></svg><svg id="token-1" width="63.20669460296631" height="70" y="100" style="overflow: visible; cursor: pointer;" x="324.5488352775574"><line x1="31.603347301483154" y1="30" x2="31.603347301483154" y2="40" class="pos-edge" style="stroke: rgb(72, 72, 72); stroke-width: 3;"/><svg x="42.07196044921875" width="21.13473415374756" height="30" style="overflow: visible;"><path d="M0,0h16.13473415374756a5,5 0 0 1 5,5v20a5,5 0 0 1 -5,5h-16.13473415374756z" class="tokenNum" style="fill: rgb(175, 162, 255); stroke: rgb(0, 0, 0); stroke-width: 2px;"/><text class="tokenNum-label" x="50%" y="50%" text-anchor="middle" dominant-baseline="central">2</text></svg><svg width="42.07196044921875" height="30" id="group-1" class="token" subId="1" style="overflow: visible;"><path d="M42.07196044921875,0h-37.07196044921875a5,5 1 0 0 -5,5v20a5,5 1 0 0 5,5h37.07196044921875z" id="form-1" attr="form" subId="1" class="form" num="2" style="fill: rgb(127, 161, 255); stroke: rgb(0, 0, 0); stroke-width: 2px;"/><text x="50%" y="50%" text-anchor="middle" dominant-baseline="central" id="text-form-1" class="form-label">ауи</text></svg><svg x="-2.2852559089660645" y="40" width="67.77720642089844" height="30" style="overflow: visible;"><rect width="67.77720642089844" height="30" id="pos-1" class="pos" attr="upostag" subId="1" rx="5" ry="5" style="fill: rgb(175, 162, 255); stroke: rgb(0, 0, 0); stroke-width: 2px;"/><text x="50%" y="50%" class="pos-label" id="text-pos-1" text-anchor="middle" dominant-baseline="central">PRON</text></svg></svg><svg id="token-2" width="74.7621374130249" height="70" y="100" style="overflow: visible; cursor: pointer;" x="420.04078578948975"><line x1="37.38106870651245" y1="30" x2="37.38106870651245" y2="40" class="pos-edge" style="stroke: rgb(72, 72, 72); stroke-width: 3;"/><svg x="53.627403259277344" width="21.13473415374756" height="30" style="overflow: visible;"><path d="M0,0h16.13473415374756a5,5 0 0 1 5,5v20a5,5 0 0 1 -5,5h-16.13473415374756z" class="tokenNum" style="fill: rgb(175, 162, 255); stroke: rgb(0, 0, 0); stroke-width: 2px;"/><text class="tokenNum-label" x="50%" y="50%" text-anchor="middle" dominant-baseline="central">3</text></svg><svg width="53.627403259277344" height="30" id="group-2" class="token" subId="2" style="overflow: visible;"><path d="M53.627403259277344,0h-48.627403259277344a5,5 1 0 0 -5,5v20a5,5 1 0 0 5,5h48.627403259277344z" id="form-2" attr="form" subId="2" class="form" num="3" style="fill: rgb(127, 161, 255); stroke: rgb(0, 0, 0); stroke-width: 2px;"/><text x="50%" y="50%" text-anchor="middle" dominant-baseline="central" id="text-form-2" class="form-label">схъа</text></svg><svg x="2.938533306121826" y="40" width="68.88507080078125" height="30" style="overflow: visible;"><rect width="68.88507080078125" height="30" id="pos-2" class="pos" attr="upostag" subId="2" rx="5" ry="5" style="fill: rgb(175, 162, 255); stroke: rgb(0, 0, 0); stroke-width: 2px;"/><text x="50%" y="50%" class="pos-label" id="text-pos-2" text-anchor="middle" dominant-baseline="central">NOUN</text></svg></svg><svg id="token-3" width="120.18455410003662" height="70" y="100" style="overflow: visible; cursor: pointer;" x="524.8029232025146"><line x1="60.09227705001831" y1="30" x2="60.09227705001831" y2="40" class="pos-edge" style="stroke: rgb(72, 72, 72); stroke-width: 3;"/><svg x="99.04981994628906" width="21.13473415374756" height="30" style="overflow: visible;"><path d="M0,0h16.13473415374756a5,5 0 0 1 5,5v20a5,5 0 0 1 -5,5h-16.13473415374756z" class="tokenNum root" style="fill: rgb(175, 162, 255); stroke: rgb(0, 0, 0); stroke-width: 4px;"/><text class="tokenNum-label root" x="50%" y="50%" text-anchor="middle" dominant-baseline="central" style="font-weight: 700;">4</text></svg><svg width="99.04981994628906" height="30" id="group-3" class="token" subId="3" style="overflow: visible;"><path d="M99.04981994628906,0h-94.04981994628906a5,5 1 0 0 -5,5v20a5,5 1 0 0 5,5h94.04981994628906z" id="form-3" attr="form" subId="3" class="form root" num="4" style="fill: rgb(127, 161, 255); stroke: rgb(0, 0, 0); stroke-width: 4px;"/><text x="50%" y="50%" text-anchor="middle" dominant-baseline="central" id="text-form-3" class="form-label root" style="font-weight: 700;">йтаскIын</text></svg><svg x="27.865468502044678" y="40" width="64.45361709594727" height="30" style="overflow: visible;"><rect width="64.45361709594727" height="30" id="pos-3" class="pos" attr="upostag" subId="3" rx="5" ry="5" style="fill: rgb(175, 162, 255); stroke: rgb(0, 0, 0); stroke-width: 2px;"/><text x="50%" y="50%" class="pos-label" id="text-pos-3" text-anchor="middle" dominant-baseline="central">VERB</text></svg></svg><svg id="token-4" width="115.36044216156006" height="70" y="100" style="overflow: visible; cursor: pointer;" x="674.9874773025513"><line x1="57.68022108078003" y1="30" x2="57.68022108078003" y2="40" class="pos-edge" style="stroke: rgb(72, 72, 72); stroke-width: 3;"/><svg x="94.2257080078125" width="21.13473415374756" height="30" style="overflow: visible;"><path d="M0,0h16.13473415374756a5,5 0 0 1 5,5v20a5,5 0 0 1 -5,5h-16.13473415374756z" class="tokenNum" style="fill: rgb(175, 162, 255); stroke: rgb(0, 0, 0); stroke-width: 2px;"/><text class="tokenNum-label" x="50%" y="50%" text-anchor="middle" dominant-baseline="central">5</text></svg><svg width="94.2257080078125" height="30" id="group-4" class="token" subId="4" style="overflow: visible;"><path d="M94.2257080078125,0h-89.2257080078125a5,5 1 0 0 -5,5v20a5,5 1 0 0 5,5h89.2257080078125z" id="form-4" attr="form" subId="4" class="form" num="5" style="fill: rgb(127, 161, 255); stroke: rgb(0, 0, 0); stroke-width: 2px;"/><text x="50%" y="50%" text-anchor="middle" dominant-baseline="central" id="text-form-4" class="form-label">апхьарта</text></svg><svg x="23.237685680389404" y="40" width="68.88507080078125" height="30" style="overflow: visible;"><rect width="68.88507080078125" height="30" id="pos-4" class="pos" attr="upostag" subId="4" rx="5" ry="5" style="fill: rgb(175, 162, 255); stroke: rgb(0, 0, 0); stroke-width: 2px;"/><text x="50%" y="50%" class="pos-label" id="text-pos-4" text-anchor="middle" dominant-baseline="central">NOUN</text></svg></svg><svg id="token-5" width="176.0124807357788" height="70" y="100" style="overflow: visible; cursor: pointer;" x="820.3479194641113"><line x1="88.0062403678894" y1="30" x2="88.0062403678894" y2="40" class="pos-edge" style="stroke: rgb(72, 72, 72); stroke-width: 3;"/><svg x="154.87774658203125" width="21.13473415374756" height="30" style="overflow: visible;"><path d="M0,0h16.13473415374756a5,5 0 0 1 5,5v20a5,5 0 0 1 -5,5h-16.13473415374756z" class="tokenNum" style="fill: rgb(175, 162, 255); stroke: rgb(0, 0, 0); stroke-width: 2px;"/><text class="tokenNum-label" x="50%" y="50%" text-anchor="middle" dominant-baseline="central">6</text></svg><svg width="154.87774658203125" height="30" id="group-5" class="token" subId="5" style="overflow: visible;"><path d="M154.87774658203125,0h-149.87774658203125a5,5 1 0 0 -5,5v20a5,5 1 0 0 5,5h149.87774658203125z" id="form-5" attr="form" subId="5" class="form" num="6" style="fill: rgb(127, 161, 255); stroke: rgb(0, 0, 0); stroke-width: 2px;"/><text x="50%" y="50%" text-anchor="middle" dominant-baseline="central" id="text-form-5" class="form-label">съадзапхьузгьи</text></svg><svg x="55.77943181991577" y="40" width="64.45361709594727" height="30" style="overflow: visible;"><rect width="64.45361709594727" height="30" id="pos-5" class="pos" attr="upostag" subId="5" rx="5" ry="5" style="fill: rgb(175, 162, 255); stroke: rgb(0, 0, 0); stroke-width: 2px;"/><text x="50%" y="50%" class="pos-label" id="text-pos-5" text-anchor="middle" dominant-baseline="central">VERB</text></svg></svg><svg id="token-6" width="145.80566310882568" height="70" y="100" style="overflow: visible; cursor: pointer;" x="1026.3604001998901"><line x1="72.90283155441284" y1="30" x2="72.90283155441284" y2="40" class="pos-edge" style="stroke: rgb(72, 72, 72); stroke-width: 3;"/><svg x="124.67092895507812" width="21.13473415374756" height="30" style="overflow: visible;"><path d="M0,0h16.13473415374756a5,5 0 0 1 5,5v20a5,5 0 0 1 -5,5h-16.13473415374756z" class="tokenNum" style="fill: rgb(175, 162, 255); stroke: rgb(0, 0, 0); stroke-width: 2px;"/><text class="tokenNum-label" x="50%" y="50%" text-anchor="middle" dominant-baseline="central">7</text></svg><svg width="124.67092895507812" height="30" id="group-6" class="token" subId="6" style="overflow: visible;"><path d="M124.67092895507812,0h-119.67092895507812a5,5 1 0 0 -5,5v20a5,5 1 0 0 5,5h119.67092895507812z" id="form-6" attr="form" subId="6" class="form" num="7" style="fill: rgb(127, 161, 255); stroke: rgb(0, 0, 0); stroke-width: 2px;"/><text x="50%" y="50%" text-anchor="middle" dominant-baseline="central" id="text-form-6" class="form-label">сангIалгагьи</text></svg><svg x="40.67602300643921" y="40" width="64.45361709594727" height="30" style="overflow: visible;"><rect width="64.45361709594727" height="30" id="pos-6" class="pos" attr="upostag" subId="6" rx="5" ry="5" style="fill: rgb(175, 162, 255); stroke: rgb(0, 0, 0); stroke-width: 2px;"/><text x="50%" y="50%" class="pos-label" id="text-pos-6" text-anchor="middle" dominant-baseline="central">VERB</text></svg></svg><svg id="token-7" width="63.20669460296631" height="70" y="100" style="overflow: visible; cursor: pointer;" x="1204.4513192176819"><line x1="31.603347301483154" y1="30" x2="31.603347301483154" y2="40" class="pos-edge" style="stroke: rgb(72, 72, 72); stroke-width: 3;"/><svg x="42.07196044921875" width="21.13473415374756" height="30" style="overflow: visible;"><path d="M0,0h16.13473415374756a5,5 0 0 1 5,5v20a5,5 0 0 1 -5,5h-16.13473415374756z" class="tokenNum" style="fill: rgb(175, 162, 255); stroke: rgb(0, 0, 0); stroke-width: 2px;"/><text class="tokenNum-label" x="50%" y="50%" text-anchor="middle" dominant-baseline="central">8</text></svg><svg width="42.07196044921875" height="30" id="group-7" class="token" subId="7" style="overflow: visible;"><path d="M42.07196044921875,0h-37.07196044921875a5,5 1 0 0 -5,5v20a5,5 1 0 0 5,5h37.07196044921875z" id="form-7" attr="form" subId="7" class="form" num="8" style="fill: rgb(127, 161, 255); stroke: rgb(0, 0, 0); stroke-width: 2px;"/><text x="50%" y="50%" text-anchor="middle" dominant-baseline="central" id="text-form-7" class="form-label">ауи</text></svg><svg x="-2.2852559089660645" y="40" width="67.77720642089844" height="30" style="overflow: visible;"><rect width="67.77720642089844" height="30" id="pos-7" class="pos" attr="upostag" subId="7" rx="5" ry="5" style="fill: rgb(175, 162, 255); stroke: rgb(0, 0, 0); stroke-width: 2px;"/><text x="50%" y="50%" class="pos-label" id="text-pos-7" text-anchor="middle" dominant-baseline="central">PRON</text></svg></svg><svg id="token-8" width="131.13698482513428" height="70" y="100" style="overflow: visible; cursor: pointer;" x="1312.462004089355"><line x1="65.56849241256714" y1="30" x2="65.56849241256714" y2="40" class="pos-edge" style="stroke: rgb(72, 72, 72); stroke-width: 3;"/><svg x="110.00225067138672" width="21.13473415374756" height="30" style="overflow: visible;"><path d="M0,0h16.13473415374756a5,5 0 0 1 5,5v20a5,5 0 0 1 -5,5h-16.13473415374756z" class="tokenNum" style="fill: rgb(175, 162, 255); stroke: rgb(0, 0, 0); stroke-width: 2px;"/><text class="tokenNum-label" x="50%" y="50%" text-anchor="middle" dominant-baseline="central">9</text></svg><svg width="110.00225067138672" height="30" id="group-8" class="token" subId="8" style="overflow: visible;"><path d="M110.00225067138672,0h-105.00225067138672a5,5 1 0 0 -5,5v20a5,5 1 0 0 5,5h105.00225067138672z" id="form-8" attr="form" subId="8" class="form" num="9" style="fill: rgb(127, 161, 255); stroke: rgb(0, 0, 0); stroke-width: 2px;"/><text x="50%" y="50%" text-anchor="middle" dominant-baseline="central" id="text-form-8" class="form-label">акIвымкIва</text></svg><svg x="40.009902477264404" y="40" width="51.11717987060547" height="30" style="overflow: visible;"><rect width="51.11717987060547" height="30" id="pos-8" class="pos" attr="upostag" subId="8" rx="5" ry="5" style="fill: rgb(175, 162, 255); stroke: rgb(0, 0, 0); stroke-width: 2px;"/><text x="50%" y="50%" class="pos-label" id="text-pos-8" text-anchor="middle" dominant-baseline="central">ADP</text></svg></svg><svg id="token-9" width="105.74025344848633" height="70" y="100" style="overflow: visible; cursor: pointer;" x="1474.462004089355"><line x1="52.870126724243164" y1="30" x2="52.870126724243164" y2="40" class="pos-edge" style="stroke: rgb(72, 72, 72); stroke-width: 3;"/><svg x="73.48480987548828" width="32.25544357299805" height="30" style="overflow: visible;"><path d="M0,0h27.255443572998047a5,5 0 0 1 5,5v20a5,5 0 0 1 -5,5h-27.255443572998047z" class="tokenNum" style="fill: rgb(175, 162, 255); stroke: rgb(0, 0, 0); stroke-width: 2px;"/><text class="tokenNum-label" x="50%" y="50%" text-anchor="middle" dominant-baseline="central">10</text></svg><svg width="73.48480987548828" height="30" id="group-9" class="token" subId="9" style="overflow: visible;"><path d="M73.48480987548828,0h-68.48480987548828a5,5 1 0 0 -5,5v20a5,5 1 0 0 5,5h68.48480987548828z" id="form-9" attr="form" subId="9" class="form" num="10" style="fill: rgb(127, 161, 255); stroke: rgb(0, 0, 0); stroke-width: 2px;"/><text x="50%" y="50%" text-anchor="middle" dominant-baseline="central" id="text-form-9" class="form-label">закIгьи</text></svg><svg x="25.095809936523438" y="40" width="55.54863357543945" height="30" style="overflow: visible;"><rect width="55.54863357543945" height="30" id="pos-9" class="pos" attr="upostag" subId="9" rx="5" ry="5" style="fill: rgb(175, 162, 255); stroke: rgb(0, 0, 0); stroke-width: 2px;"/><text x="50%" y="50%" class="pos-label" id="text-pos-9" text-anchor="middle" dominant-baseline="central">NUM</text></svg></svg><svg id="token-10" width="177.41484832763672" height="70" y="100" style="overflow: visible; cursor: pointer;" x="1609.462004089355"><line x1="88.70742416381836" y1="30" x2="88.70742416381836" y2="40" class="pos-edge" style="stroke: rgb(72, 72, 72); stroke-width: 3;"/><svg x="146.64590454101562" width="30.768943786621094" height="30" style="overflow: visible;"><path d="M0,0h25.768943786621094a5,5 0 0 1 5,5v20a5,5 0 0 1 -5,5h-25.768943786621094z" class="tokenNum" style="fill: rgb(175, 162, 255); stroke: rgb(0, 0, 0); stroke-width: 2px;"/><text class="tokenNum-label" x="50%" y="50%" text-anchor="middle" dominant-baseline="central">11</text></svg><svg width="146.64590454101562" height="30" id="group-10" class="token" subId="10" style="overflow: visible;"><path d="M146.64590454101562,0h-141.64590454101562a5,5 1 0 0 -5,5v20a5,5 1 0 0 5,5h141.64590454101562z" id="form-10" attr="form" subId="10" class="form" num="11" style="fill: rgb(127, 161, 255); stroke: rgb(0, 0, 0); stroke-width: 2px;"/><text x="50%" y="50%" text-anchor="middle" dominant-baseline="central" id="text-form-10" class="form-label">гьстахъымызтI</text></svg><svg x="56.48061561584473" y="40" width="64.45361709594727" height="30" style="overflow: visible;"><rect width="64.45361709594727" height="30" id="pos-10" class="pos" attr="upostag" subId="10" rx="5" ry="5" style="fill: rgb(175, 162, 255); stroke: rgb(0, 0, 0); stroke-width: 2px;"/><text x="50%" y="50%" class="pos-label" id="text-pos-10" text-anchor="middle" dominant-baseline="central">VERB</text></svg></svg><defs><marker id="end" viewBox="0 -5 10 10" refX="2" refY="2" markerWidth="15" markerHeight="15" orient="auto" style="fill: rgb(17, 17, 17);"><path d="M 1 1 L 3 2 L 1 3 Z"/></marker></defs><path class="dependency" attr="deprel" marker-end="url(#end)" d="M 569,100 L 553.25,2.5 C 537.5,-95 515.45,-95 493.40000000000003,-95 L 493.40000000000003,-95 443.8146858215332,-95M 371.1853141784668,-95 L 321.6,-95 C299.55,-95 277.5,-95 261.75,2.5 L246,94" id="dep_0_3" num="12" style="stroke-width: 4px; fill: none; stroke: rgb(17, 17, 17); opacity: 0.766;"/><path class="dependency" attr="deprel" marker-end="url(#end)" d="M 569,100 L 558.5,35 C 548,-30 533.3,-30 518.5999999999999,-30 L 518.5999999999999,-30 488.004919052124,-30M 436.495080947876,-30 L 405.9,-30 C391.2,-30 376.5,-30 366,35 L355.5,94" id="dep_1_3" num="13" style="stroke-width: 4px; fill: none; stroke: rgb(17, 17, 17); opacity: 0.766;"/><path class="dependency" attr="deprel" marker-end="url(#end)" d="M 569,100 L 563.75,67.5 C 558.5,35 551.15,35 543.8,35 L 543.8,35 540.9776592254639,35M 485.02234077453613,35 L 482.20000000000005,35 C474.85,35 467.5,35 462.25,67.5 L457,94" id="dep_2_3" num="14" style="stroke-width: 4px; fill: none; stroke: rgb(17, 17, 17); opacity: 0.766;"/><path class="dependency" attr="deprel" marker-end="url(#end)" d="M 893,100 L 887.75,67.5 C 882.5,35 875.15,35 867.8,35 L 867.8,35 838.004919052124,35M 786.495080947876,35 L 756.7,35 C749.35,35 742,35 736.75,67.5 L731.5,94" id="dep_4_5" num="15" style="stroke-width: 4px; fill: none; stroke: rgb(17, 17, 17); opacity: 0.766;"/><path class="dependency" attr="deprel" marker-end="url(#end)" d="M 1682.5,100 L 1661.5,-30 C 1640.5,-160 1611.1,-160 1581.6999999999998,-160 L 1581.6999999999998,-160 1334.8952903747559,-160M 1255.6047096252441,-160 L 1008.8,-160 C979.4,-160 950,-160 929,-30 L908,94" id="dep_5_10" num="16" style="stroke-width: 4px; fill: none; stroke: rgb(17, 17, 17); opacity: 0.766;"/><path class="dependency" attr="deprel" marker-end="url(#end)" d="M 1682.5,100 L 1666.75,2.5 C 1651,-95 1628.95,-95 1606.9,-95 L 1606.9,-95 1430.1452903747559,-95M 1350.8547096252441,-95 L 1174.1,-95 C1152.05,-95 1130,-95 1114.25,2.5 L1098.5,94" id="dep_6_10" num="17" style="stroke-width: 4px; fill: none; stroke: rgb(17, 17, 17); opacity: 0.766;"/><path class="dependency" attr="deprel" marker-end="url(#end)" d="M 1511.5,100 L 1501,35 C 1490.5,-30 1475.8,-30 1461.1,-30 L 1461.1,-30 1410.922550201416,-30M 1336.077449798584,-30 L 1285.9,-30 C1271.2,-30 1256.5,-30 1246,35 L1235.5,94" id="dep_7_9" num="18" style="stroke-width: 4px; fill: none; stroke: rgb(17, 17, 17); opacity: 0.766;"/><path class="dependency" attr="deprel" marker-end="url(#end)" d="M 1250.5,100 L 1255.75,67.5 C 1261,35 1268.35,35 1275.6999999999998,35 L 1275.6999999999998,35 1280.4689979553223,35M 1347.5310020446777,35 L 1352.3000000000002,35 C1359.65,35 1367,35 1372.25,67.5 L1377.5,94" id="dep_8_7" num="19" style="stroke-width: 4px; fill: none; stroke: rgb(17, 17, 17); opacity: 0.766;"/><path class="dependency" attr="deprel" marker-end="url(#end)" d="M 1682.5,100 L 1677.25,67.5 C 1672,35 1664.65,35 1657.3000000000002,35 L 1657.3000000000002,35 1630.254919052124,35M 1578.745080947876,35 L 1551.6999999999998,35 C1544.35,35 1537,35 1531.75,67.5 L1526.5,94" id="dep_9_10" num="20" style="stroke-width: 4px; fill: none; stroke: rgb(17, 17, 17); opacity: 0.766;"/><path class="dependency" attr="deprel" marker-end="url(#end)" d="M 599,100 L 625.25,-62.5 C 651.5,-225 688.25,-225 725,-225 L 725,-225 1117.4956684112549,-225M 1179.0043315887451,-225 L 1571.5,-225 C1608.25,-225 1645,-225 1671.25,-62.5 L1697.5,94" id="dep_10_3" num="21" style="stroke-width: 4px; fill: none; stroke: rgb(17, 17, 17); opacity: 0.766;"/><line x1="584" y1="-257.5" x2="584" y2="93" class="root-deprel" marker-end="url(#end)" style="stroke: rgb(17, 17, 17); opacity: 0.766; stroke-width: 4px;"/><text id="text-dep_0_3" class="deprel-label" transform="translate(407.5,-95)" y="-1" text-anchor="middle" dominant-baseline="central" style="cursor: pointer; text-shadow: rgb(255, 255, 255) 1px 1px 5px;">⊲nsubj</text><text id="text-dep_1_3" class="deprel-label" transform="translate(462.25,-30)" y="-1" text-anchor="middle" dominant-baseline="central" style="cursor: pointer; text-shadow: rgb(255, 255, 255) 1px 1px 5px;">⊲obj</text><text id="text-dep_2_3" class="deprel-label" transform="translate(513,35)" y="-1" text-anchor="middle" dominant-baseline="central" style="cursor: pointer; text-shadow: rgb(255, 255, 255) 1px 1px 5px;">⊲iobj</text><text id="text-dep_4_5" class="deprel-label" transform="translate(812.25,35)" y="-1" text-anchor="middle" dominant-baseline="central" style="cursor: pointer; text-shadow: rgb(255, 255, 255) 1px 1px 5px;">⊲obl</text><text id="text-dep_5_10" class="deprel-label" transform="translate(1295.25,-160)" y="-1" text-anchor="middle" dominant-baseline="central" style="cursor: pointer; text-shadow: rgb(255, 255, 255) 1px 1px 5px;">⊲obl:rel</text><text id="text-dep_6_10" class="deprel-label" transform="translate(1390.5,-95)" y="-1" text-anchor="middle" dominant-baseline="central" style="cursor: pointer; text-shadow: rgb(255, 255, 255) 1px 1px 5px;">⊲obl:rel</text><text id="text-dep_7_9" class="deprel-label" transform="translate(1373.5,-30)" y="-1" text-anchor="middle" dominant-baseline="central" style="cursor: pointer; text-shadow: rgb(255, 255, 255) 1px 1px 5px;">⊲nmod</text><text id="text-dep_8_7" class="deprel-label" transform="translate(1314,35)" y="-1" text-anchor="middle" dominant-baseline="central" style="cursor: pointer; text-shadow: rgb(255, 255, 255) 1px 1px 5px;">case⊳</text><text id="text-dep_9_10" class="deprel-label" transform="translate(1604.5,35)" y="-1" text-anchor="middle" dominant-baseline="central" style="cursor: pointer; text-shadow: rgb(255, 255, 255) 1px 1px 5px;">⊲obj</text><text id="text-dep_10_3" class="deprel-label" transform="translate(1148.25,-225)" y="-1" text-anchor="middle" dominant-baseline="central" style="cursor: pointer; text-shadow: rgb(255, 255, 255) 1px 1px 5px;">conj⊳</text><text x="584" y="-268.5" class="root-deprel-label" text-anchor="middle" dominant-baseline="central" style="text-shadow: rgb(255, 255, 255) 1px 1px 5px;">ROOT</text></g></svg>