<svg xmlns="http://www.w3.org/2000/svg" width="1303" height="339" id="graph-svg" style="background: white; font-family: Arial; font-size: 20px;"><g id="graph-g" transform="translate(-26.245429639424174,140.41213226331416) scale(0.6820739174397087)"><svg id="token-0" width="74.48686218261719" height="70" y="100" style="overflow: visible; cursor: pointer;" x="112.62598571777335"><line x1="37.243431091308594" y1="30" x2="37.243431091308594" y2="40" class="pos-edge" style="stroke: rgb(72, 72, 72); stroke-width: 3;"/><svg x="53.364990234375" width="21.121871948242188" height="30" style="overflow: visible;"><path d="M0,0h16.121871948242188a5,5 0 0 1 5,5v20a5,5 0 0 1 -5,5h-16.121871948242188z" class="tokenNum" style="fill: rgb(175, 162, 255); stroke: rgb(0, 0, 0); stroke-width: 2px;"/><text class="tokenNum-label" x="50%" y="50%" text-anchor="middle" dominant-baseline="central">1</text></svg><svg width="53.364990234375" height="30" id="group-0" class="token" subId="0" style="overflow: visible;"><path d="M53.364990234375,0h-48.364990234375a5,5 1 0 0 -5,5v20a5,5 1 0 0 5,5h48.364990234375z" id="form-0" attr="form" subId="0" class="form" num="1" style="fill: rgb(127, 161, 255); stroke: rgb(0, 0, 0); stroke-width: 2px;"/><text x="50%" y="50%" text-anchor="middle" dominant-baseline="central" id="text-form-0" class="form-label">сара</text></svg><svg x="3.350618362426758" y="40" width="67.78562545776367" height="30" style="overflow: visible;"><rect width="67.78562545776367" height="30" id="pos-0" class="pos" attr="upostag" subId="0" rx="5" ry="5" style="fill: rgb(175, 162, 255); stroke: rgb(0, 0, 0); stroke-width: 2px;"/><text x="50%" y="50%" class="pos-label" id="text-pos-0" text-anchor="middle" dominant-baseline="central">PRON</text></svg></svg><svg id="token-1" width="116.2597427368164" height="70" y="100" style="overflow: visible; cursor: pointer;" x="216.62598571777335"><line x1="58.1298713684082" y1="30" x2="58.1298713684082" y2="40" class="pos-edge" style="stroke: rgb(72, 72, 72); stroke-width: 3;"/><svg x="95.13787078857422" width="21.121871948242188" height="30" style="overflow: visible;"><path d="M0,0h16.121871948242188a5,5 0 0 1 5,5v20a5,5 0 0 1 -5,5h-16.121871948242188z" class="tokenNum" style="fill: rgb(175, 162, 255); stroke: rgb(0, 0, 0); stroke-width: 2px;"/><text class="tokenNum-label" x="50%" y="50%" text-anchor="middle" dominant-baseline="central">2</text></svg><svg width="95.13787078857422" height="30" id="group-1" class="token" subId="1" style="overflow: visible;"><path d="M95.13787078857422,0h-90.13787078857422a5,5 1 0 0 -5,5v20a5,5 1 0 0 5,5h90.13787078857422z" id="form-1" attr="form" subId="1" class="form" num="2" style="fill: rgb(127, 161, 255); stroke: rgb(0, 0, 0); stroke-width: 2px;"/><text x="50%" y="50%" text-anchor="middle" dominant-baseline="central" id="text-form-1" class="form-label">асабиква</text></svg><svg x="23.687265396118164" y="40" width="68.88521194458008" height="30" style="overflow: visible;"><rect width="68.88521194458008" height="30" id="pos-1" class="pos" attr="upostag" subId="1" rx="5" ry="5" style="fill: rgb(175, 162, 255); stroke: rgb(0, 0, 0); stroke-width: 2px;"/><text x="50%" y="50%" class="pos-label" id="text-pos-1" text-anchor="middle" dominant-baseline="central">NOUN</text></svg></svg><svg id="token-2" width="62.48303031921387" height="70" y="100" style="overflow: visible; cursor: pointer;" x="362.62598571777335"><line x1="31.241515159606934" y1="30" x2="31.241515159606934" y2="40" class="pos-edge" style="stroke: rgb(72, 72, 72); stroke-width: 3;"/><svg x="41.36115837097168" width="21.121871948242188" height="30" style="overflow: visible;"><path d="M0,0h16.121871948242188a5,5 0 0 1 5,5v20a5,5 0 0 1 -5,5h-16.121871948242188z" class="tokenNum" style="fill: rgb(175, 162, 255); stroke: rgb(0, 0, 0); stroke-width: 2px;"/><text class="tokenNum-label" x="50%" y="50%" text-anchor="middle" dominant-baseline="central">3</text></svg><svg width="41.36115837097168" height="30" id="group-2" class="token" subId="2" style="overflow: visible;"><path d="M41.36115837097168,0h-36.36115837097168a5,5 1 0 0 -5,5v20a5,5 1 0 0 5,5h36.36115837097168z" id="form-2" attr="form" subId="2" class="form" num="3" style="fill: rgb(127, 161, 255); stroke: rgb(0, 0, 0); stroke-width: 2px;"/><text x="50%" y="50%" text-anchor="middle" dominant-baseline="central" id="text-form-2" class="form-label">бзи</text></svg><svg x="5.681515693664551" y="40" width="51.119998931884766" height="30" style="overflow: visible;"><rect width="51.119998931884766" height="30" id="pos-2" class="pos" attr="upostag" subId="2" rx="5" ry="5" style="fill: rgb(175, 162, 255); stroke: rgb(0, 0, 0); stroke-width: 2px;"/><text x="50%" y="50%" class="pos-label" id="text-pos-2" text-anchor="middle" dominant-baseline="central">ADV</text></svg></svg><svg id="token-3" width="109.9371109008789" height="70" y="100" style="overflow: visible; cursor: pointer;" x="510.62598571777335"><line x1="54.96855545043945" y1="30" x2="54.96855545043945" y2="40" class="pos-edge" style="stroke: rgb(72, 72, 72); stroke-width: 3;"/><svg x="88.81523895263672" width="21.121871948242188" height="30" style="overflow: visible;"><path d="M0,0h16.121871948242188a5,5 0 0 1 5,5v20a5,5 0 0 1 -5,5h-16.121871948242188z" class="tokenNum root" style="fill: rgb(175, 162, 255); stroke: rgb(0, 0, 0); stroke-width: 4px;"/><text class="tokenNum-label root" x="50%" y="50%" text-anchor="middle" dominant-baseline="central" style="font-weight: 700;">4</text></svg><svg width="88.81523895263672" height="30" id="group-3" class="token" subId="3" style="overflow: visible;"><path d="M88.81523895263672,0h-83.81523895263672a5,5 1 0 0 -5,5v20a5,5 1 0 0 5,5h83.81523895263672z" id="form-3" attr="form" subId="3" class="form root" num="4" style="fill: rgb(127, 161, 255); stroke: rgb(0, 0, 0); stroke-width: 4px;"/><text x="50%" y="50%" text-anchor="middle" dominant-baseline="central" id="text-form-3" class="form-label root" style="font-weight: 700;">йызбитI</text></svg><svg x="22.7365779876709" y="40" width="64.46395492553711" height="30" style="overflow: visible;"><rect width="64.46395492553711" height="30" id="pos-3" class="pos" attr="upostag" subId="3" rx="5" ry="5" style="fill: rgb(175, 162, 255); stroke: rgb(0, 0, 0); stroke-width: 2px;"/><text x="50%" y="50%" class="pos-label" id="text-pos-3" text-anchor="middle" dominant-baseline="central">VERB</text></svg></svg><svg id="token-4" width="147.05965423583984" height="70" y="100" style="overflow: visible; cursor: pointer;" x="650.6259857177733"><line x1="73.52982711791992" y1="30" x2="73.52982711791992" y2="40" class="pos-edge" style="stroke: rgb(72, 72, 72); stroke-width: 3;"/><svg x="125.93778228759766" width="21.121871948242188" height="30" style="overflow: visible;"><path d="M0,0h16.121871948242188a5,5 0 0 1 5,5v20a5,5 0 0 1 -5,5h-16.121871948242188z" class="tokenNum" style="fill: rgb(175, 162, 255); stroke: rgb(0, 0, 0); stroke-width: 2px;"/><text class="tokenNum-label" x="50%" y="50%" text-anchor="middle" dominant-baseline="central">5</text></svg><svg width="125.93778228759766" height="30" id="group-4" class="token" subId="4" style="overflow: visible;"><path d="M125.93778228759766,0h-120.93778228759766a5,5 1 0 0 -5,5v20a5,5 1 0 0 5,5h120.93778228759766z" id="form-4" attr="form" subId="4" class="form" num="5" style="fill: rgb(127, 161, 255); stroke: rgb(0, 0, 0); stroke-width: 2px;"/><text x="50%" y="50%" text-anchor="middle" dominant-baseline="central" id="text-form-4" class="form-label">сынхартагьи</text></svg><svg x="39.08722114562988" y="40" width="68.88521194458008" height="30" style="overflow: visible;"><rect width="68.88521194458008" height="30" id="pos-4" class="pos" attr="upostag" subId="4" rx="5" ry="5" style="fill: rgb(175, 162, 255); stroke: rgb(0, 0, 0); stroke-width: 2px;"/><text x="50%" y="50%" class="pos-label" id="text-pos-4" text-anchor="middle" dominant-baseline="central">NOUN</text></svg></svg><svg id="token-5" width="114.83943939208984" height="70" y="100" style="overflow: visible; cursor: pointer;" x="827.6259857177733"><line x1="57.41971969604492" y1="30" x2="57.41971969604492" y2="40" class="pos-edge" style="stroke: rgb(72, 72, 72); stroke-width: 3;"/><svg x="93.71756744384766" width="21.121871948242188" height="30" style="overflow: visible;"><path d="M0,0h16.121871948242188a5,5 0 0 1 5,5v20a5,5 0 0 1 -5,5h-16.121871948242188z" class="tokenNum" style="fill: rgb(175, 162, 255); stroke: rgb(0, 0, 0); stroke-width: 2px;"/><text class="tokenNum-label" x="50%" y="50%" text-anchor="middle" dominant-baseline="central">6</text></svg><svg width="93.71756744384766" height="30" id="group-5" class="token" subId="5" style="overflow: visible;"><path d="M93.71756744384766,0h-88.71756744384766a5,5 1 0 0 -5,5v20a5,5 1 0 0 5,5h88.71756744384766z" id="form-5" attr="form" subId="5" class="form" num="6" style="fill: rgb(127, 161, 255); stroke: rgb(0, 0, 0); stroke-width: 2px;"/><text x="50%" y="50%" text-anchor="middle" dominant-baseline="central" id="text-form-5" class="form-label">бзидздза</text></svg><svg x="31.85972023010254" y="40" width="51.119998931884766" height="30" style="overflow: visible;"><rect width="51.119998931884766" height="30" id="pos-5" class="pos" attr="upostag" subId="5" rx="5" ry="5" style="fill: rgb(175, 162, 255); stroke: rgb(0, 0, 0); stroke-width: 2px;"/><text x="50%" y="50%" class="pos-label" id="text-pos-5" text-anchor="middle" dominant-baseline="central">ADV</text></svg></svg><svg id="token-6" width="102.95014953613281" height="70" y="100" style="overflow: visible; cursor: pointer;" x="1005.065839767456"><line x1="51.475074768066406" y1="30" x2="51.475074768066406" y2="40" class="pos-edge" style="stroke: rgb(72, 72, 72); stroke-width: 3;"/><svg x="81.82827758789062" width="21.121871948242188" height="30" style="overflow: visible;"><path d="M0,0h16.121871948242188a5,5 0 0 1 5,5v20a5,5 0 0 1 -5,5h-16.121871948242188z" class="tokenNum" style="fill: rgb(175, 162, 255); stroke: rgb(0, 0, 0); stroke-width: 2px;"/><text class="tokenNum-label" x="50%" y="50%" text-anchor="middle" dominant-baseline="central">7</text></svg><svg width="81.82827758789062" height="30" id="group-6" class="token" subId="6" style="overflow: visible;"><path d="M81.82827758789062,0h-76.82827758789062a5,5 1 0 0 -5,5v20a5,5 1 0 0 5,5h76.82827758789062z" id="form-6" attr="form" subId="6" class="form" num="7" style="fill: rgb(127, 161, 255); stroke: rgb(0, 0, 0); stroke-width: 2px;"/><text x="50%" y="50%" text-anchor="middle" dominant-baseline="central" id="text-form-6" class="form-label">йызбитI</text></svg><svg x="19.24309730529785" y="40" width="64.46395492553711" height="30" style="overflow: visible;"><rect width="64.46395492553711" height="30" id="pos-6" class="pos" attr="upostag" subId="6" rx="5" ry="5" style="fill: rgb(175, 162, 255); stroke: rgb(0, 0, 0); stroke-width: 2px;"/><text x="50%" y="50%" class="pos-label" id="text-pos-6" text-anchor="middle" dominant-baseline="central">VERB</text></svg></svg><defs><marker id="end" viewBox="0 -5 10 10" refX="2" refY="2" markerWidth="15" markerHeight="15" orient="auto" style="fill: rgb(17, 17, 17);"><path d="M 1 1 L 3 2 L 1 3 Z"/></marker></defs><path class="dependency" attr="deprel" marker-end="url(#end)" d="M 549.5,100 L 533.75,2.5 C 518,-95 495.95,-95 473.9,-95 L 473.9,-95 385.5653419494629,-95M 312.9346580505371,-95 L 224.60000000000002,-95 C202.55,-95 180.5,-95 164.75,2.5 L149,94" id="dep_0_3" num="8" style="stroke-width: 4px; fill: none; stroke: rgb(17, 17, 17); opacity: 0.766;"/><path class="dependency" attr="deprel" marker-end="url(#end)" d="M 549.5,100 L 539,35 C 528.5,-30 513.8,-30 499.09999999999997,-30 L 499.09999999999997,-30 437.5047187805176,-30M 385.9952812194824,-30 L 324.4,-30 C309.7,-30 295,-30 284.5,35 L274,94" id="dep_1_3" num="9" style="stroke-width: 4px; fill: none; stroke: rgb(17, 17, 17); opacity: 0.766;"/><path class="dependency" attr="deprel" marker-end="url(#end)" d="M 549.5,100 L 544.25,67.5 C 539,35 531.65,35 524.3,35 L 524.3,35 519.2370071411133,35M 423.2629928588867,35 L 418.20000000000005,35 C410.85,35 403.5,35 398.25,67.5 L393,94" id="dep_2_3" num="10" style="stroke-width: 4px; fill: none; stroke: rgb(17, 17, 17); opacity: 0.766;"/><path class="dependency" attr="deprel" marker-end="url(#end)" d="M 1041,100 L 1030.5,35 C 1020,-30 1005.3,-30 990.5999999999999,-30 L 990.5999999999999,-30 908.0047187805176,-30M 856.4952812194824,-30 L 773.9000000000001,-30 C759.2,-30 744.5,-30 734,35 L723.5,94" id="dep_4_6" num="11" style="stroke-width: 4px; fill: none; stroke: rgb(17, 17, 17); opacity: 0.766;"/><path class="dependency" attr="deprel" marker-end="url(#end)" d="M 1041,100 L 1035.75,67.5 C 1030.5,35 1023.15,35 1015.8,35 L 1015.8,35 1010.4870071411133,35M 914.5129928588867,35 L 909.2,35 C901.85,35 894.5,35 889.25,67.5 L884,94" id="dep_5_6" num="12" style="stroke-width: 4px; fill: none; stroke: rgb(17, 17, 17); opacity: 0.766;"/><path class="dependency" attr="deprel" marker-end="url(#end)" d="M 579.5,100 L 595.25,2.5 C 611,-95 633.05,-95 655.0999999999999,-95 L 655.0999999999999,-95 786.9955940246582,-95M 848.5044059753418,-95 L 980.4000000000001,-95 C1002.45,-95 1024.5,-95 1040.25,2.5 L1056,94" id="dep_6_3" num="13" style="stroke-width: 4px; fill: none; stroke: rgb(17, 17, 17); opacity: 0.766;"/><line x1="564.5" y1="-127.5" x2="564.5" y2="93" class="root-deprel" marker-end="url(#end)" style="stroke: rgb(17, 17, 17); opacity: 0.766; stroke-width: 4px;"/><text id="text-dep_0_3" class="deprel-label" transform="translate(349.25,-95)" y="-1" text-anchor="middle" dominant-baseline="central" style="cursor: pointer; text-shadow: rgb(255, 255, 255) 1px 1px 5px;">⊲nsubj</text><text id="text-dep_1_3" class="deprel-label" transform="translate(411.75,-30)" y="-1" text-anchor="middle" dominant-baseline="central" style="cursor: pointer; text-shadow: rgb(255, 255, 255) 1px 1px 5px;">⊲obj</text><text id="text-dep_2_3" class="deprel-label" transform="translate(471.25,35)" y="-1" text-anchor="middle" dominant-baseline="central" style="cursor: pointer; text-shadow: rgb(255, 255, 255) 1px 1px 5px;">⊲advmod</text><text id="text-dep_4_6" class="deprel-label" transform="translate(882.25,-30)" y="-1" text-anchor="middle" dominant-baseline="central" style="cursor: pointer; text-shadow: rgb(255, 255, 255) 1px 1px 5px;">⊲obj</text><text id="text-dep_5_6" class="deprel-label" transform="translate(962.5,35)" y="-1" text-anchor="middle" dominant-baseline="central" style="cursor: pointer; text-shadow: rgb(255, 255, 255) 1px 1px 5px;">⊲advmod</text><text id="text-dep_6_3" class="deprel-label" transform="translate(817.75,-95)" y="-1" text-anchor="middle" dominant-baseline="central" style="cursor: pointer; text-shadow: rgb(255, 255, 255) 1px 1px 5px;">conj⊳</text><text x="564.5" y="-138.5" class="root-deprel-label" text-anchor="middle" dominant-baseline="central" style="text-shadow: rgb(255, 255, 255) 1px 1px 5px;">ROOT</text></g></svg>