<svg xmlns="http://www.w3.org/2000/svg" width="1303" height="370" id="graph-svg" style="background: white; font-family: Arial; font-size: 20px;"><g id="graph-g" transform="translate(-90.24542963942417,68.41213226331416) scale(0.6820739174397087)"><svg id="token-0" width="185.06927680969238" height="70" y="100" style="overflow: visible; cursor: pointer;" x="179.63362274169913"><line x1="92.53463840484619" y1="30" x2="92.53463840484619" y2="40" class="pos-edge" style="stroke: rgb(72, 72, 72); stroke-width: 3;"/><svg x="163.9469757080078" width="21.12230110168457" height="30" style="overflow: visible;"><path d="M0,0h16.12230110168457a5,5 0 0 1 5,5v20a5,5 0 0 1 -5,5h-16.12230110168457z" class="tokenNum" style="fill: rgb(175, 162, 255); stroke: rgb(0, 0, 0); stroke-width: 2px;"/><text class="tokenNum-label" x="50%" y="50%" text-anchor="middle" dominant-baseline="central">1</text></svg><svg width="163.9469757080078" height="30" id="group-0" class="token" subId="0" style="overflow: visible;"><path d="M163.9469757080078,0h-158.9469757080078a5,5 1 0 0 -5,5v20a5,5 1 0 0 5,5h158.9469757080078z" id="form-0" attr="form" subId="0" class="form" num="1" style="fill: rgb(127, 161, 255); stroke: rgb(0, 0, 0); stroke-width: 2px;"/><text x="50%" y="50%" text-anchor="middle" dominant-baseline="central" id="text-form-0" class="form-label">йсгвапхадзауата</text></svg><svg x="60.30289936065674" y="40" width="64.4634780883789" height="30" style="overflow: visible;"><rect width="64.4634780883789" height="30" id="pos-0" class="pos" attr="upostag" subId="0" rx="5" ry="5" style="fill: rgb(175, 162, 255); stroke: rgb(0, 0, 0); stroke-width: 2px;"/><text x="50%" y="50%" class="pos-label" id="text-pos-0" text-anchor="middle" dominant-baseline="central">VERB</text></svg></svg><svg id="token-1" width="114.82965278625488" height="70" y="100" style="overflow: visible; cursor: pointer;" x="394.6336227416991"><line x1="57.41482639312744" y1="30" x2="57.41482639312744" y2="40" class="pos-edge" style="stroke: rgb(72, 72, 72); stroke-width: 3;"/><svg x="93.70735168457031" width="21.12230110168457" height="30" style="overflow: visible;"><path d="M0,0h16.12230110168457a5,5 0 0 1 5,5v20a5,5 0 0 1 -5,5h-16.12230110168457z" class="tokenNum" style="fill: rgb(175, 162, 255); stroke: rgb(0, 0, 0); stroke-width: 2px;"/><text class="tokenNum-label" x="50%" y="50%" text-anchor="middle" dominant-baseline="central">2</text></svg><svg width="93.70735168457031" height="30" id="group-1" class="token" subId="1" style="overflow: visible;"><path d="M93.70735168457031,0h-88.70735168457031a5,5 1 0 0 -5,5v20a5,5 1 0 0 5,5h88.70735168457031z" id="form-1" attr="form" subId="1" class="form" num="2" style="fill: rgb(127, 161, 255); stroke: rgb(0, 0, 0); stroke-width: 2px;"/><text x="50%" y="50%" text-anchor="middle" dominant-baseline="central" id="text-form-1" class="form-label">бзидздза</text></svg><svg x="31.855233192443848" y="40" width="51.11918640136719" height="30" style="overflow: visible;"><rect width="51.11918640136719" height="30" id="pos-1" class="pos" attr="upostag" subId="1" rx="5" ry="5" style="fill: rgb(175, 162, 255); stroke: rgb(0, 0, 0); stroke-width: 2px;"/><text x="50%" y="50%" class="pos-label" id="text-pos-1" text-anchor="middle" dominant-baseline="central">ADV</text></svg></svg><svg id="token-2" width="128.0134677886963" height="70" y="100" style="overflow: visible; cursor: pointer;" x="559.8989295959473"><line x1="64.00673389434814" y1="30" x2="64.00673389434814" y2="40" class="pos-edge" style="stroke: rgb(72, 72, 72); stroke-width: 3;"/><svg x="106.89116668701172" width="21.12230110168457" height="30" style="overflow: visible;"><path d="M0,0h16.12230110168457a5,5 0 0 1 5,5v20a5,5 0 0 1 -5,5h-16.12230110168457z" class="tokenNum" style="fill: rgb(175, 162, 255); stroke: rgb(0, 0, 0); stroke-width: 2px;"/><text class="tokenNum-label" x="50%" y="50%" text-anchor="middle" dominant-baseline="central">3</text></svg><svg width="106.89116668701172" height="30" id="group-2" class="token" subId="2" style="overflow: visible;"><path d="M106.89116668701172,0h-101.89116668701172a5,5 1 0 0 -5,5v20a5,5 1 0 0 5,5h101.89116668701172z" id="form-2" attr="form" subId="2" class="form" num="3" style="fill: rgb(127, 161, 255); stroke: rgb(0, 0, 0); stroke-width: 2px;"/><text x="50%" y="50%" text-anchor="middle" dominant-baseline="central" id="text-form-2" class="form-label">йызбауата</text></svg><svg x="31.77499485015869" y="40" width="64.4634780883789" height="30" style="overflow: visible;"><rect width="64.4634780883789" height="30" id="pos-2" class="pos" attr="upostag" subId="2" rx="5" ry="5" style="fill: rgb(175, 162, 255); stroke: rgb(0, 0, 0); stroke-width: 2px;"/><text x="50%" y="50%" class="pos-label" id="text-pos-2" text-anchor="middle" dominant-baseline="central">VERB</text></svg></svg><svg id="token-3" width="108.89200019836426" height="70" y="100" style="overflow: visible; cursor: pointer;" x="717.9123973846436"><line x1="54.44600009918213" y1="30" x2="54.44600009918213" y2="40" class="pos-edge" style="stroke: rgb(72, 72, 72); stroke-width: 3;"/><svg x="87.76969909667969" width="21.12230110168457" height="30" style="overflow: visible;"><path d="M0,0h16.12230110168457a5,5 0 0 1 5,5v20a5,5 0 0 1 -5,5h-16.12230110168457z" class="tokenNum" style="fill: rgb(175, 162, 255); stroke: rgb(0, 0, 0); stroke-width: 2px;"/><text class="tokenNum-label" x="50%" y="50%" text-anchor="middle" dominant-baseline="central">4</text></svg><svg width="87.76969909667969" height="30" id="group-3" class="token" subId="3" style="overflow: visible;"><path d="M87.76969909667969,0h-82.76969909667969a5,5 1 0 0 -5,5v20a5,5 1 0 0 5,5h82.76969909667969z" id="form-3" attr="form" subId="3" class="form" num="4" style="fill: rgb(127, 161, 255); stroke: rgb(0, 0, 0); stroke-width: 2px;"/><text x="50%" y="50%" text-anchor="middle" dominant-baseline="central" id="text-form-3" class="form-label">сапхьатI</text></svg><svg x="22.214261054992676" y="40" width="64.4634780883789" height="30" style="overflow: visible;"><rect width="64.4634780883789" height="30" id="pos-3" class="pos" attr="upostag" subId="3" rx="5" ry="5" style="fill: rgb(175, 162, 255); stroke: rgb(0, 0, 0); stroke-width: 2px;"/><text x="50%" y="50%" class="pos-label" id="text-pos-3" text-anchor="middle" dominant-baseline="central">VERB</text></svg></svg><defs><marker id="end" viewBox="0 -5 10 10" refX="2" refY="2" markerWidth="15" markerHeight="15" orient="auto" style="fill: rgb(17, 17, 17);"><path d="M 1 1 L 3 2 L 1 3 Z"/></marker></defs><path class="dependency" attr="deprel" marker-end="url(#end)" d="M 756,100 L 745.5,35 C 735,-30 720.3,-30 705.5999999999999,-30 L 705.5999999999999,-30 549.5060634613037,-30M 477.9939365386963,-30 L 321.9,-30 C307.2,-30 292.5,-30 282,35 L271.5,94" id="dep_0_3" num="5" style="stroke-width: 4px; fill: none; stroke: rgb(17, 17, 17); opacity: 0.766;"/><path class="dependency" attr="deprel" marker-end="url(#end)" d="M 608,100 L 602.75,67.5 C 597.5,35 590.15,35 582.8,35 L 582.8,35 577.4831886291504,35M 481.5168113708496,35 L 476.20000000000005,35 C468.85,35 461.5,35 456.25,67.5 L451,94" id="dep_1_2" num="6" style="stroke-width: 4px; fill: none; stroke: rgb(17, 17, 17); opacity: 0.766;"/><path class="dependency" attr="deprel" marker-end="url(#end)" d="M 756,100 L 750.75,67.5 C 745.5,35 738.15,35 730.8,35 L 730.8,35 725.2560634613037,35M 653.7439365386963,35 L 648.2,35 C640.85,35 633.5,35 628.25,67.5 L623,94" id="dep_2_3" num="7" style="stroke-width: 4px; fill: none; stroke: rgb(17, 17, 17); opacity: 0.766;"/><text id="text-dep_0_3" class="deprel-label" transform="translate(513.75,-30)" y="-1" text-anchor="middle" dominant-baseline="central" style="cursor: pointer; text-shadow: rgb(255, 255, 255) 1px 1px 5px;">⊲advcl</text><text id="text-dep_1_2" class="deprel-label" transform="translate(529.5,35)" y="-1" text-anchor="middle" dominant-baseline="central" style="cursor: pointer; text-shadow: rgb(255, 255, 255) 1px 1px 5px;">⊲advmod</text><text id="text-dep_2_3" class="deprel-label" transform="translate(689.5,35)" y="-1" text-anchor="middle" dominant-baseline="central" style="cursor: pointer; text-shadow: rgb(255, 255, 255) 1px 1px 5px;">⊲advcl</text></g></svg>