<svg xmlns="http://www.w3.org/2000/svg" width="1303" height="370" id="graph-svg" style="background: white; font-family: Arial; font-size: 20px;"><g id="graph-g" transform="translate(-95.24542963942417,138.41213226331416) scale(0.6820739174397087)"><svg id="token-0" width="115.35487365722656" height="70" y="100" style="overflow: visible; cursor: pointer;" x="200"><line x1="57.67743682861328" y1="30" x2="57.67743682861328" y2="40" class="pos-edge" style="stroke: rgb(72, 72, 72); stroke-width: 3;"/><svg x="94.23300170898438" width="21.121871948242188" height="30" style="overflow: visible;"><path d="M0,0h16.121871948242188a5,5 0 0 1 5,5v20a5,5 0 0 1 -5,5h-16.121871948242188z" class="tokenNum" style="fill: rgb(175, 162, 255); stroke: rgb(0, 0, 0); stroke-width: 2px;"/><text class="tokenNum-label" x="50%" y="50%" text-anchor="middle" dominant-baseline="central">1</text></svg><svg width="94.23300170898438" height="30" id="group-0" class="token" subId="0" style="overflow: visible;"><path d="M94.23300170898438,0h-89.23300170898438a5,5 1 0 0 -5,5v20a5,5 1 0 0 5,5h89.23300170898438z" id="form-0" attr="form" subId="0" class="form" num="1" style="fill: rgb(127, 161, 255); stroke: rgb(0, 0, 0); stroke-width: 2px;"/><text x="50%" y="50%" text-anchor="middle" dominant-baseline="central" id="text-form-0" class="form-label">апхьарта</text></svg><svg x="23.234830856323242" y="40" width="68.88521194458008" height="30" style="overflow: visible;"><rect width="68.88521194458008" height="30" id="pos-0" class="pos" attr="upostag" subId="0" rx="5" ry="5" style="fill: rgb(175, 162, 255); stroke: rgb(0, 0, 0); stroke-width: 2px;"/><text x="50%" y="50%" class="pos-label" id="text-pos-0" text-anchor="middle" dominant-baseline="central">NOUN</text></svg></svg><svg id="token-1" width="153.98934173583984" height="70" y="100" style="overflow: visible; cursor: pointer;" x="345.35487365722656"><line x1="76.99467086791992" y1="30" x2="76.99467086791992" y2="40" class="pos-edge" style="stroke: rgb(72, 72, 72); stroke-width: 3;"/><svg x="132.86746978759766" width="21.121871948242188" height="30" style="overflow: visible;"><path d="M0,0h16.121871948242188a5,5 0 0 1 5,5v20a5,5 0 0 1 -5,5h-16.121871948242188z" class="tokenNum" style="fill: rgb(175, 162, 255); stroke: rgb(0, 0, 0); stroke-width: 2px;"/><text class="tokenNum-label" x="50%" y="50%" text-anchor="middle" dominant-baseline="central">2</text></svg><svg width="132.86746978759766" height="30" id="group-1" class="token" subId="1" style="overflow: visible;"><path d="M132.86746978759766,0h-127.86746978759766a5,5 1 0 0 -5,5v20a5,5 1 0 0 5,5h127.86746978759766z" id="form-1" attr="form" subId="1" class="form" num="2" style="fill: rgb(127, 161, 255); stroke: rgb(0, 0, 0); stroke-width: 2px;"/><text x="50%" y="50%" text-anchor="middle" dominant-baseline="central" id="text-form-1" class="form-label">сгIалгищтара</text></svg><svg x="44.76269340515137" y="40" width="64.46395492553711" height="30" style="overflow: visible;"><rect width="64.46395492553711" height="30" id="pos-1" class="pos" attr="upostag" subId="1" rx="5" ry="5" style="fill: rgb(175, 162, 255); stroke: rgb(0, 0, 0); stroke-width: 2px;"/><text x="50%" y="50%" class="pos-label" id="text-pos-1" text-anchor="middle" dominant-baseline="central">VERB</text></svg></svg><svg id="token-2" width="90.91195297241211" height="70" y="100" style="overflow: visible; cursor: pointer;" x="529.3442153930664"><line x1="45.455976486206055" y1="30" x2="45.455976486206055" y2="40" class="pos-edge" style="stroke: rgb(72, 72, 72); stroke-width: 3;"/><svg x="69.79008102416992" width="21.121871948242188" height="30" style="overflow: visible;"><path d="M0,0h16.121871948242188a5,5 0 0 1 5,5v20a5,5 0 0 1 -5,5h-16.121871948242188z" class="tokenNum" style="fill: rgb(175, 162, 255); stroke: rgb(0, 0, 0); stroke-width: 2px;"/><text class="tokenNum-label" x="50%" y="50%" text-anchor="middle" dominant-baseline="central">3</text></svg><svg width="69.79008102416992" height="30" id="group-2" class="token" subId="2" style="overflow: visible;"><path d="M69.79008102416992,0h-64.79008102416992a5,5 1 0 0 -5,5v20a5,5 1 0 0 5,5h64.79008102416992z" id="form-2" attr="form" subId="2" class="form" num="3" style="fill: rgb(127, 161, 255); stroke: rgb(0, 0, 0); stroke-width: 2px;"/><text x="50%" y="50%" text-anchor="middle" dominant-baseline="central" id="text-form-2" class="form-label">сквшы</text></svg><svg x="11.013370513916016" y="40" width="68.88521194458008" height="30" style="overflow: visible;"><rect width="68.88521194458008" height="30" id="pos-2" class="pos" attr="upostag" subId="2" rx="5" ry="5" style="fill: rgb(175, 162, 255); stroke: rgb(0, 0, 0); stroke-width: 2px;"/><text x="50%" y="50%" class="pos-label" id="text-pos-2" text-anchor="middle" dominant-baseline="central">NOUN</text></svg></svg><svg id="token-3" width="149.55663299560547" height="70" y="100" style="overflow: visible; cursor: pointer;" x="677.5288070678712"><line x1="74.77831649780273" y1="30" x2="74.77831649780273" y2="40" class="pos-edge" style="stroke: rgb(72, 72, 72); stroke-width: 3;"/><svg x="128.43476104736328" width="21.121871948242188" height="30" style="overflow: visible;"><path d="M0,0h16.121871948242188a5,5 0 0 1 5,5v20a5,5 0 0 1 -5,5h-16.121871948242188z" class="tokenNum" style="fill: rgb(175, 162, 255); stroke: rgb(0, 0, 0); stroke-width: 2px;"/><text class="tokenNum-label" x="50%" y="50%" text-anchor="middle" dominant-baseline="central">4</text></svg><svg width="128.43476104736328" height="30" id="group-3" class="token" subId="3" style="overflow: visible;"><path d="M128.43476104736328,0h-123.43476104736328a5,5 1 0 0 -5,5v20a5,5 1 0 0 5,5h123.43476104736328z" id="form-3" attr="form" subId="3" class="form" num="4" style="fill: rgb(127, 161, 255); stroke: rgb(0, 0, 0); stroke-width: 2px;"/><text x="50%" y="50%" text-anchor="middle" dominant-baseline="central" id="text-form-3" class="form-label">гIвынгIважви</text></svg><svg x="47.00196075439453" y="40" width="55.552711486816406" height="30" style="overflow: visible;"><rect width="55.552711486816406" height="30" id="pos-3" class="pos" attr="upostag" subId="3" rx="5" ry="5" style="fill: rgb(175, 162, 255); stroke: rgb(0, 0, 0); stroke-width: 2px;"/><text x="50%" y="50%" class="pos-label" id="text-pos-3" text-anchor="middle" dominant-baseline="central">NUM</text></svg></svg><svg id="token-4" width="76.29660034179688" height="70" y="100" style="overflow: visible; cursor: pointer;" x="856.5288070678712"><line x1="38.14830017089844" y1="30" x2="38.14830017089844" y2="40" class="pos-edge" style="stroke: rgb(72, 72, 72); stroke-width: 3;"/><svg x="55.17472839355469" width="21.121871948242188" height="30" style="overflow: visible;"><path d="M0,0h16.121871948242188a5,5 0 0 1 5,5v20a5,5 0 0 1 -5,5h-16.121871948242188z" class="tokenNum" style="fill: rgb(175, 162, 255); stroke: rgb(0, 0, 0); stroke-width: 2px;"/><text class="tokenNum-label" x="50%" y="50%" text-anchor="middle" dominant-baseline="central">5</text></svg><svg width="55.17472839355469" height="30" id="group-4" class="token" subId="4" style="overflow: visible;"><path d="M55.17472839355469,0h-50.17472839355469a5,5 1 0 0 -5,5v20a5,5 1 0 0 5,5h50.17472839355469z" id="form-4" attr="form" subId="4" class="form" num="5" style="fill: rgb(127, 161, 255); stroke: rgb(0, 0, 0); stroke-width: 2px;"/><text x="50%" y="50%" text-anchor="middle" dominant-baseline="central" id="text-form-4" class="form-label">жвих</text></svg><svg x="10.371944427490234" y="40" width="55.552711486816406" height="30" style="overflow: visible;"><rect width="55.552711486816406" height="30" id="pos-4" class="pos" attr="upostag" subId="4" rx="5" ry="5" style="fill: rgb(175, 162, 255); stroke: rgb(0, 0, 0); stroke-width: 2px;"/><text x="50%" y="50%" class="pos-label" id="text-pos-4" text-anchor="middle" dominant-baseline="central">NUM</text></svg></svg><svg id="token-5" width="81.40510177612305" height="70" y="100" style="overflow: visible; cursor: pointer;" x="963.5288070678712"><line x1="40.70255088806152" y1="30" x2="40.70255088806152" y2="40" class="pos-edge" style="stroke: rgb(72, 72, 72); stroke-width: 3;"/><svg x="60.28322982788086" width="21.121871948242188" height="30" style="overflow: visible;"><path d="M0,0h16.121871948242188a5,5 0 0 1 5,5v20a5,5 0 0 1 -5,5h-16.121871948242188z" class="tokenNum root" style="fill: rgb(175, 162, 255); stroke: rgb(0, 0, 0); stroke-width: 4px;"/><text class="tokenNum-label root" x="50%" y="50%" text-anchor="middle" dominant-baseline="central" style="font-weight: 700;">6</text></svg><svg width="60.28322982788086" height="30" id="group-5" class="token" subId="5" style="overflow: visible;"><path d="M60.28322982788086,0h-55.28322982788086a5,5 1 0 0 -5,5v20a5,5 1 0 0 5,5h55.28322982788086z" id="form-5" attr="form" subId="5" class="form root" num="6" style="fill: rgb(127, 161, 255); stroke: rgb(0, 0, 0); stroke-width: 4px;"/><text x="50%" y="50%" text-anchor="middle" dominant-baseline="central" id="text-form-5" class="form-label root" style="font-weight: 700;">цIытI</text></svg><svg x="8.470573425292969" y="40" width="64.46395492553711" height="30" style="overflow: visible;"><rect width="64.46395492553711" height="30" id="pos-5" class="pos" attr="upostag" subId="5" rx="5" ry="5" style="fill: rgb(175, 162, 255); stroke: rgb(0, 0, 0); stroke-width: 2px;"/><text x="50%" y="50%" class="pos-label" id="text-pos-5" text-anchor="middle" dominant-baseline="central">VERB</text></svg></svg><defs><marker id="end" viewBox="0 -5 10 10" refX="2" refY="2" markerWidth="15" markerHeight="15" orient="auto" style="fill: rgb(17, 17, 17);"><path d="M 1 1 L 3 2 L 1 3 Z"/></marker></defs><path class="dependency" attr="deprel" marker-end="url(#end)" d="M 406.5,100 L 401.25,67.5 C 396,35 388.65,35 381.29999999999995,35 L 381.29999999999995,35 357.7547187805176,35M 306.2452812194824,35 L 282.70000000000005,35 C275.35,35 268,35 262.75,67.5 L257.5,94" id="dep_0_1" num="7" style="stroke-width: 4px; fill: none; stroke: rgb(17, 17, 17); opacity: 0.766;"/><path class="dependency" attr="deprel" marker-end="url(#end)" d="M 988.5,100 L 972.75,2.5 C 957,-95 934.95,-95 912.9000000000001,-95 L 912.9000000000001,-95 740.754093170166,-95M 669.245906829834,-95 L 497.1,-95 C475.05,-95 453,-95 437.25,2.5 L421.5,94" id="dep_1_5" num="8" style="stroke-width: 4px; fill: none; stroke: rgb(17, 17, 17); opacity: 0.766;"/><path class="dependency" attr="deprel" marker-end="url(#end)" d="M 988.5,100 L 978,35 C 967.5,-30 952.8,-30 938.0999999999999,-30 L 938.0999999999999,-30 817.5653419494629,-30M 744.9346580505371,-30 L 624.4000000000001,-30 C609.7,-30 595,-30 584.5,35 L574,94" id="dep_2_5" num="9" style="stroke-width: 4px; fill: none; stroke: rgb(17, 17, 17); opacity: 0.766;"/><path class="dependency" attr="deprel" marker-end="url(#end)" d="M 589,100 L 594.25,67.5 C 599.5,35 606.85,35 614.2,35 L 614.2,35 618.9355964660645,35M 721.5644035339355,35 L 726.3,35 C733.65,35 741,35 746.25,67.5 L751.5,94" id="dep_3_2" num="10" style="stroke-width: 4px; fill: none; stroke: rgb(17, 17, 17); opacity: 0.766;"/><path class="dependency" attr="deprel" marker-end="url(#end)" d="M 766.5,100 L 771.75,67.5 C 777,35 784.35,35 791.7,35 L 791.7,35 804.4952812194824,35M 856.0047187805176,35 L 868.8,35 C876.15,35 883.5,35 888.75,67.5 L894,94" id="dep_4_3" num="11" style="stroke-width: 4px; fill: none; stroke: rgb(17, 17, 17); opacity: 0.766;"/><line x1="1003.5" y1="-127.5" x2="1003.5" y2="93" class="root-deprel" marker-end="url(#end)" style="stroke: rgb(17, 17, 17); opacity: 0.766; stroke-width: 4px;"/><text id="text-dep_0_1" class="deprel-label" transform="translate(332,35)" y="-1" text-anchor="middle" dominant-baseline="central" style="cursor: pointer; text-shadow: rgb(255, 255, 255) 1px 1px 5px;">⊲obl</text><text id="text-dep_1_5" class="deprel-label" transform="translate(705,-95)" y="-1" text-anchor="middle" dominant-baseline="central" style="cursor: pointer; text-shadow: rgb(255, 255, 255) 1px 1px 5px;">⊲advcl</text><text id="text-dep_2_5" class="deprel-label" transform="translate(781.25,-30)" y="-1" text-anchor="middle" dominant-baseline="central" style="cursor: pointer; text-shadow: rgb(255, 255, 255) 1px 1px 5px;">⊲nsubj</text><text id="text-dep_3_2" class="deprel-label" transform="translate(670.25,35)" y="-1" text-anchor="middle" dominant-baseline="central" style="cursor: pointer; text-shadow: rgb(255, 255, 255) 1px 1px 5px;">nummod⊳</text><text id="text-dep_4_3" class="deprel-label" transform="translate(830.25,35)" y="-1" text-anchor="middle" dominant-baseline="central" style="cursor: pointer; text-shadow: rgb(255, 255, 255) 1px 1px 5px;">flat⊳</text><text x="1003.5" y="-138.5" class="root-deprel-label" text-anchor="middle" dominant-baseline="central" style="text-shadow: rgb(255, 255, 255) 1px 1px 5px;">ROOT</text></g></svg>