<svg xmlns="http://www.w3.org/2000/svg" width="1440" height="304" id="graph-svg" style="background: white; font-family: Arial; font-size: 20px;"><g id="graph-g" transform="translate(-36.071439140195935,147.43489419822458) scale(0.5570968254096877)"><svg id="token-0" width="74.50971126556396" height="70" y="100" style="overflow: visible; cursor: pointer;" x="91.96248779296866"><line x1="37.25485563278198" y1="30" x2="37.25485563278198" y2="40" class="pos-edge" style="stroke: rgb(72, 72, 72); stroke-width: 3;"/><svg x="53.374977111816406" width="21.13473415374756" height="30" style="overflow: visible;"><path d="M0,0h16.13473415374756a5,5 0 0 1 5,5v20a5,5 0 0 1 -5,5h-16.13473415374756z" class="tokenNum" style="fill: rgb(175, 162, 255); stroke: rgb(0, 0, 0); stroke-width: 2px;"/><text class="tokenNum-label" x="50%" y="50%" text-anchor="middle" dominant-baseline="central">1</text></svg><svg width="53.374977111816406" height="30" id="group-0" class="token" subId="0" style="overflow: visible;"><path d="M53.374977111816406,0h-48.374977111816406a5,5 1 0 0 -5,5v20a5,5 1 0 0 5,5h48.374977111816406z" id="form-0" attr="form" subId="0" class="form" num="1" style="fill: rgb(127, 161, 255); stroke: rgb(0, 0, 0); stroke-width: 2px;"/><text x="50%" y="50%" text-anchor="middle" dominant-baseline="central" id="text-form-0" class="form-label">сара</text></svg><svg x="3.3662524223327637" y="40" width="67.77720642089844" height="30" style="overflow: visible;"><rect width="67.77720642089844" height="30" id="pos-0" class="pos" attr="upostag" subId="0" rx="5" ry="5" style="fill: rgb(175, 162, 255); stroke: rgb(0, 0, 0); stroke-width: 2px;"/><text x="50%" y="50%" class="pos-label" id="text-pos-0" text-anchor="middle" dominant-baseline="central">PRON</text></svg></svg><svg id="token-1" width="133.29661464691162" height="70" y="100" style="overflow: visible; cursor: pointer;" x="210.96248779296866"><line x1="66.64830732345581" y1="30" x2="66.64830732345581" y2="40" class="pos-edge" style="stroke: rgb(72, 72, 72); stroke-width: 3;"/><svg x="112.16188049316406" width="21.13473415374756" height="30" style="overflow: visible;"><path d="M0,0h16.13473415374756a5,5 0 0 1 5,5v20a5,5 0 0 1 -5,5h-16.13473415374756z" class="tokenNum" style="fill: rgb(175, 162, 255); stroke: rgb(0, 0, 0); stroke-width: 2px;"/><text class="tokenNum-label" x="50%" y="50%" text-anchor="middle" dominant-baseline="central">2</text></svg><svg width="112.16188049316406" height="30" id="group-1" class="token" subId="1" style="overflow: visible;"><path d="M112.16188049316406,0h-107.16188049316406a5,5 1 0 0 -5,5v20a5,5 1 0 0 5,5h107.16188049316406z" id="form-1" attr="form" subId="1" class="form" num="2" style="fill: rgb(127, 161, 255); stroke: rgb(0, 0, 0); stroke-width: 2px;"/><text x="50%" y="50%" text-anchor="middle" dominant-baseline="central" id="text-form-1" class="form-label">санхвыцыз</text></svg><svg x="34.42149877548218" y="40" width="64.45361709594727" height="30" style="overflow: visible;"><rect width="64.45361709594727" height="30" id="pos-1" class="pos" attr="upostag" subId="1" rx="5" ry="5" style="fill: rgb(175, 162, 255); stroke: rgb(0, 0, 0); stroke-width: 2px;"/><text x="50%" y="50%" class="pos-label" id="text-pos-1" text-anchor="middle" dominant-baseline="central">VERB</text></svg></svg><svg id="token-2" width="63.30485820770264" height="70" y="100" style="overflow: visible; cursor: pointer;" x="376.96248779296866"><line x1="31.65242910385132" y1="30" x2="31.65242910385132" y2="40" class="pos-edge" style="stroke: rgb(72, 72, 72); stroke-width: 3;"/><svg x="42.17012405395508" width="21.13473415374756" height="30" style="overflow: visible;"><path d="M0,0h16.13473415374756a5,5 0 0 1 5,5v20a5,5 0 0 1 -5,5h-16.13473415374756z" class="tokenNum" style="fill: rgb(175, 162, 255); stroke: rgb(0, 0, 0); stroke-width: 2px;"/><text class="tokenNum-label" x="50%" y="50%" text-anchor="middle" dominant-baseline="central">3</text></svg><svg width="42.17012405395508" height="30" id="group-2" class="token" subId="2" style="overflow: visible;"><path d="M42.17012405395508,0h-37.17012405395508a5,5 1 0 0 -5,5v20a5,5 1 0 0 5,5h37.17012405395508z" id="form-2" attr="form" subId="2" class="form" num="3" style="fill: rgb(127, 161, 255); stroke: rgb(0, 0, 0); stroke-width: 2px;"/><text x="50%" y="50%" text-anchor="middle" dominant-baseline="central" id="text-form-2" class="form-label">сан</text></svg><svg x="-2.7901062965393066" y="40" width="68.88507080078125" height="30" style="overflow: visible;"><rect width="68.88507080078125" height="30" id="pos-2" class="pos" attr="upostag" subId="2" rx="5" ry="5" style="fill: rgb(175, 162, 255); stroke: rgb(0, 0, 0); stroke-width: 2px;"/><text x="50%" y="50%" class="pos-label" id="text-pos-2" text-anchor="middle" dominant-baseline="central">NOUN</text></svg></svg><svg id="token-3" width="81.50748348236084" height="70" y="100" style="overflow: visible; cursor: pointer;" x="566.6913967132568"><line x1="40.75374174118042" y1="30" x2="40.75374174118042" y2="40" class="pos-edge" style="stroke: rgb(72, 72, 72); stroke-width: 3;"/><svg x="60.37274932861328" width="21.13473415374756" height="30" style="overflow: visible;"><path d="M0,0h16.13473415374756a5,5 0 0 1 5,5v20a5,5 0 0 1 -5,5h-16.13473415374756z" class="tokenNum" style="fill: rgb(175, 162, 255); stroke: rgb(0, 0, 0); stroke-width: 2px;"/><text class="tokenNum-label" x="50%" y="50%" text-anchor="middle" dominant-baseline="central">4</text></svg><svg width="60.37274932861328" height="30" id="group-3" class="token" subId="3" style="overflow: visible;"><path d="M60.37274932861328,0h-55.37274932861328a5,5 1 0 0 -5,5v20a5,5 1 0 0 5,5h55.37274932861328z" id="form-3" attr="form" subId="3" class="form" num="4" style="fill: rgb(127, 161, 255); stroke: rgb(0, 0, 0); stroke-width: 2px;"/><text x="50%" y="50%" text-anchor="middle" dominant-baseline="central" id="text-form-3" class="form-label">лаща</text></svg><svg x="6.311206340789795" y="40" width="68.88507080078125" height="30" style="overflow: visible;"><rect width="68.88507080078125" height="30" id="pos-3" class="pos" attr="upostag" subId="3" rx="5" ry="5" style="fill: rgb(175, 162, 255); stroke: rgb(0, 0, 0); stroke-width: 2px;"/><text x="50%" y="50%" class="pos-label" id="text-pos-3" text-anchor="middle" dominant-baseline="central">NOUN</text></svg></svg><svg id="token-4" width="64.55295848846436" height="70" y="100" style="overflow: visible; cursor: pointer;" x="679.8110041618347"><line x1="32.27647924423218" y1="30" x2="32.27647924423218" y2="40" class="pos-edge" style="stroke: rgb(72, 72, 72); stroke-width: 3;"/><svg x="43.4182243347168" width="21.13473415374756" height="30" style="overflow: visible;"><path d="M0,0h16.13473415374756a5,5 0 0 1 5,5v20a5,5 0 0 1 -5,5h-16.13473415374756z" class="tokenNum" style="fill: rgb(175, 162, 255); stroke: rgb(0, 0, 0); stroke-width: 2px;"/><text class="tokenNum-label" x="50%" y="50%" text-anchor="middle" dominant-baseline="central">5</text></svg><svg width="43.4182243347168" height="30" id="group-4" class="token" subId="4" style="overflow: visible;"><path d="M43.4182243347168,0h-38.4182243347168a5,5 1 0 0 -5,5v20a5,5 1 0 0 5,5h38.4182243347168z" id="form-4" attr="form" subId="4" class="form" num="5" style="fill: rgb(127, 161, 255); stroke: rgb(0, 0, 0); stroke-width: 2px;"/><text x="50%" y="50%" text-anchor="middle" dominant-baseline="central" id="text-form-4" class="form-label">ари</text></svg><svg x="-1.612123966217041" y="40" width="67.77720642089844" height="30" style="overflow: visible;"><rect width="67.77720642089844" height="30" id="pos-4" class="pos" attr="upostag" subId="4" rx="5" ry="5" style="fill: rgb(175, 162, 255); stroke: rgb(0, 0, 0); stroke-width: 2px;"/><text x="50%" y="50%" class="pos-label" id="text-pos-4" text-anchor="middle" dominant-baseline="central">PRON</text></svg></svg><svg id="token-5" width="147.26412105560303" height="70" y="100" style="overflow: visible; cursor: pointer;" x="775.9760866165161"><line x1="73.63206052780151" y1="30" x2="73.63206052780151" y2="40" class="pos-edge" style="stroke: rgb(72, 72, 72); stroke-width: 3;"/><svg x="126.12938690185547" width="21.13473415374756" height="30" style="overflow: visible;"><path d="M0,0h16.13473415374756a5,5 0 0 1 5,5v20a5,5 0 0 1 -5,5h-16.13473415374756z" class="tokenNum" style="fill: rgb(175, 162, 255); stroke: rgb(0, 0, 0); stroke-width: 2px;"/><text class="tokenNum-label" x="50%" y="50%" text-anchor="middle" dominant-baseline="central">6</text></svg><svg width="126.12938690185547" height="30" id="group-5" class="token" subId="5" style="overflow: visible;"><path d="M126.12938690185547,0h-121.12938690185547a5,5 1 0 0 -5,5v20a5,5 1 0 0 5,5h121.12938690185547z" id="form-5" attr="form" subId="5" class="form" num="6" style="fill: rgb(127, 161, 255); stroke: rgb(0, 0, 0); stroke-width: 2px;"/><text x="50%" y="50%" text-anchor="middle" dominant-baseline="central" id="text-form-5" class="form-label">английскала</text></svg><svg x="39.18952512741089" y="40" width="68.88507080078125" height="30" style="overflow: visible;"><rect width="68.88507080078125" height="30" id="pos-5" class="pos" attr="upostag" subId="5" rx="5" ry="5" style="fill: rgb(175, 162, 255); stroke: rgb(0, 0, 0); stroke-width: 2px;"/><text x="50%" y="50%" class="pos-label" id="text-pos-5" text-anchor="middle" dominant-baseline="central">NOUN</text></svg></svg><svg id="token-6" width="162.59190273284912" height="70" y="100" style="overflow: visible; cursor: pointer;" x="953.2402076721191"><line x1="81.29595136642456" y1="30" x2="81.29595136642456" y2="40" class="pos-edge" style="stroke: rgb(72, 72, 72); stroke-width: 3;"/><svg x="141.45716857910156" width="21.13473415374756" height="30" style="overflow: visible;"><path d="M0,0h16.13473415374756a5,5 0 0 1 5,5v20a5,5 0 0 1 -5,5h-16.13473415374756z" class="tokenNum" style="fill: rgb(175, 162, 255); stroke: rgb(0, 0, 0); stroke-width: 2px;"/><text class="tokenNum-label" x="50%" y="50%" text-anchor="middle" dominant-baseline="central">7</text></svg><svg width="141.45716857910156" height="30" id="group-6" class="token" subId="6" style="overflow: visible;"><path d="M141.45716857910156,0h-136.45716857910156a5,5 1 0 0 -5,5v20a5,5 1 0 0 5,5h136.45716857910156z" id="form-6" attr="form" subId="6" class="form" num="7" style="fill: rgb(127, 161, 255); stroke: rgb(0, 0, 0); stroke-width: 2px;"/><text x="50%" y="50%" text-anchor="middle" dominant-baseline="central" id="text-form-6" class="form-label">йалрыпхьуштI</text></svg><svg x="49.06914281845093" y="40" width="64.45361709594727" height="30" style="overflow: visible;"><rect width="64.45361709594727" height="30" id="pos-6" class="pos" attr="upostag" subId="6" rx="5" ry="5" style="fill: rgb(175, 162, 255); stroke: rgb(0, 0, 0); stroke-width: 2px;"/><text x="50%" y="50%" class="pos-label" id="text-pos-6" text-anchor="middle" dominant-baseline="central">VERB</text></svg></svg><svg id="token-7" width="68.21311855316162" height="70" y="100" style="overflow: visible; cursor: pointer;" x="1150.6135668754578"><line x1="34.10655927658081" y1="30" x2="34.10655927658081" y2="40" class="pos-edge" style="stroke: rgb(72, 72, 72); stroke-width: 3;"/><svg x="47.07838439941406" width="21.13473415374756" height="30" style="overflow: visible;"><path d="M0,0h16.13473415374756a5,5 0 0 1 5,5v20a5,5 0 0 1 -5,5h-16.13473415374756z" class="tokenNum" style="fill: rgb(175, 162, 255); stroke: rgb(0, 0, 0); stroke-width: 2px;"/><text class="tokenNum-label" x="50%" y="50%" text-anchor="middle" dominant-baseline="central">8</text></svg><svg width="47.07838439941406" height="30" id="group-7" class="token" subId="7" style="overflow: visible;"><path d="M47.07838439941406,0h-42.07838439941406a5,5 1 0 0 -5,5v20a5,5 1 0 0 5,5h42.07838439941406z" id="form-7" attr="form" subId="7" class="form" num="8" style="fill: rgb(127, 161, 255); stroke: rgb(0, 0, 0); stroke-width: 2px;"/><text x="50%" y="50%" text-anchor="middle" dominant-baseline="central" id="text-form-7" class="form-label">хIва</text></svg><svg x="-4.781456470489502" y="40" width="77.77603149414062" height="30" style="overflow: visible;"><rect width="77.77603149414062" height="30" id="pos-7" class="pos" attr="upostag" subId="7" rx="5" ry="5" style="fill: rgb(175, 162, 255); stroke: rgb(0, 0, 0); stroke-width: 2px;"/><text x="50%" y="50%" class="pos-label" id="text-pos-7" text-anchor="middle" dominant-baseline="central">SCONJ</text></svg></svg><svg id="token-8" width="167.55625820159912" height="70" y="100" style="overflow: visible; cursor: pointer;" x="1253.608141899109"><line x1="83.77812910079956" y1="30" x2="83.77812910079956" y2="40" class="pos-edge" style="stroke: rgb(72, 72, 72); stroke-width: 3;"/><svg x="146.42152404785156" width="21.13473415374756" height="30" style="overflow: visible;"><path d="M0,0h16.13473415374756a5,5 0 0 1 5,5v20a5,5 0 0 1 -5,5h-16.13473415374756z" class="tokenNum root" style="fill: rgb(175, 162, 255); stroke: rgb(0, 0, 0); stroke-width: 4px;"/><text class="tokenNum-label root" x="50%" y="50%" text-anchor="middle" dominant-baseline="central" style="font-weight: 700;">9</text></svg><svg width="146.42152404785156" height="30" id="group-8" class="token" subId="8" style="overflow: visible;"><path d="M146.42152404785156,0h-141.42152404785156a5,5 1 0 0 -5,5v20a5,5 1 0 0 5,5h141.42152404785156z" id="form-8" attr="form" subId="8" class="form root" num="9" style="fill: rgb(127, 161, 255); stroke: rgb(0, 0, 0); stroke-width: 4px;"/><text x="50%" y="50%" text-anchor="middle" dominant-baseline="central" id="text-form-8" class="form-label root" style="font-weight: 700;">йгIасайхIвлун</text></svg><svg x="51.55132055282593" y="40" width="64.45361709594727" height="30" style="overflow: visible;"><rect width="64.45361709594727" height="30" id="pos-8" class="pos" attr="upostag" subId="8" rx="5" ry="5" style="fill: rgb(175, 162, 255); stroke: rgb(0, 0, 0); stroke-width: 2px;"/><text x="50%" y="50%" class="pos-label" id="text-pos-8" text-anchor="middle" dominant-baseline="central">VERB</text></svg></svg><defs><marker id="end" viewBox="0 -5 10 10" refX="2" refY="2" markerWidth="15" markerHeight="15" orient="auto" style="fill: rgb(17, 17, 17);"><path d="M 1 1 L 3 2 L 1 3 Z"/></marker></defs><path class="dependency" attr="deprel" marker-end="url(#end)" d="M 261.5,100 L 256.25,67.5 C 251,35 243.65,35 236.3,35 L 236.3,35 231.0646858215332,35M 158.4353141784668,35 L 153.2,35 C145.85,35 138.5,35 133.25,67.5 L128,94" id="dep_0_1" num="10" style="stroke-width: 4px; fill: none; stroke: rgb(17, 17, 17); opacity: 0.766;"/><path class="dependency" attr="deprel" marker-end="url(#end)" d="M 1321.5,100 L 1300.5,-30 C 1279.5,-160 1250.1,-160 1220.6999999999998,-160 L 1220.6999999999998,-160 838.6452903747559,-160M 759.3547096252441,-160 L 377.29999999999995,-160 C347.9,-160 318.5,-160 297.5,-30 L276.5,94" id="dep_1_8" num="11" style="stroke-width: 4px; fill: none; stroke: rgb(17, 17, 17); opacity: 0.766;"/><path class="dependency" attr="deprel" marker-end="url(#end)" d="M 591.5,100 L 586.25,67.5 C 581,35 573.65,35 566.3,35 L 566.3,35 560.8187561035156,35M 438.1812438964844,35 L 432.70000000000005,35 C425.35,35 418,35 412.75,67.5 L407.5,94" id="dep_2_3" num="12" style="stroke-width: 4px; fill: none; stroke: rgb(17, 17, 17); opacity: 0.766;"/><path class="dependency" attr="deprel" marker-end="url(#end)" d="M 1321.5,100 L 1305.75,2.5 C 1290,-95 1267.95,-95 1245.9,-95 L 1245.9,-95 1000.3146858215332,-95M 927.6853141784668,-95 L 682.0999999999999,-95 C660.05,-95 638,-95 622.25,2.5 L606.5,94" id="dep_3_8" num="13" style="stroke-width: 4px; fill: none; stroke: rgb(17, 17, 17); opacity: 0.766;"/><path class="dependency" attr="deprel" marker-end="url(#end)" d="M 1019,100 L 1008.5,35 C 998,-30 983.3,-30 968.5999999999999,-30 L 968.5999999999999,-30 901.3146858215332,-30M 828.6853141784668,-30 L 761.4000000000001,-30 C746.7,-30 732,-30 721.5,35 L711,94" id="dep_4_6" num="14" style="stroke-width: 4px; fill: none; stroke: rgb(17, 17, 17); opacity: 0.766;"/><path class="dependency" attr="deprel" marker-end="url(#end)" d="M 1019,100 L 1013.75,67.5 C 1008.5,35 1001.15,35 993.8,35 L 993.8,35 961.7276592254639,35M 905.7723407745361,35 L 873.7,35 C866.35,35 859,35 853.75,67.5 L848.5,94" id="dep_5_6" num="15" style="stroke-width: 4px; fill: none; stroke: rgb(17, 17, 17); opacity: 0.766;"/><path class="dependency" attr="deprel" marker-end="url(#end)" d="M 1321.5,100 L 1311,35 C 1300.5,-30 1285.8,-30 1271.1,-30 L 1271.1,-30 1219.6110191345215,-30M 1135.8889808654785,-30 L 1084.4,-30 C1069.7,-30 1055,-30 1044.5,35 L1034,94" id="dep_6_8" num="16" style="stroke-width: 4px; fill: none; stroke: rgb(17, 17, 17); opacity: 0.766;"/><path class="dependency" attr="deprel" marker-end="url(#end)" d="M 1049,100 L 1054.25,67.5 C 1059.5,35 1066.85,35 1074.1999999999998,35 L 1074.1999999999998,35 1081.8681449890137,35M 1151.1318550109863,35 L 1158.8000000000002,35 C1166.15,35 1173.5,35 1178.75,67.5 L1184,94" id="dep_7_6" num="17" style="stroke-width: 4px; fill: none; stroke: rgb(17, 17, 17); opacity: 0.766;"/><line x1="1336.5" y1="-192.5" x2="1336.5" y2="93" class="root-deprel" marker-end="url(#end)" style="stroke: rgb(17, 17, 17); opacity: 0.766; stroke-width: 4px;"/><text id="text-dep_0_1" class="deprel-label" transform="translate(194.75,35)" y="-1" text-anchor="middle" dominant-baseline="central" style="cursor: pointer; text-shadow: rgb(255, 255, 255) 1px 1px 5px;">⊲nsubj</text><text id="text-dep_1_8" class="deprel-label" transform="translate(799,-160)" y="-1" text-anchor="middle" dominant-baseline="central" style="cursor: pointer; text-shadow: rgb(255, 255, 255) 1px 1px 5px;">⊲obl:rel</text><text id="text-dep_2_3" class="deprel-label" transform="translate(499.5,35)" y="-1" text-anchor="middle" dominant-baseline="central" style="cursor: pointer; text-shadow: rgb(255, 255, 255) 1px 1px 5px;">⊲nmod:poss</text><text id="text-dep_3_8" class="deprel-label" transform="translate(964,-95)" y="-1" text-anchor="middle" dominant-baseline="central" style="cursor: pointer; text-shadow: rgb(255, 255, 255) 1px 1px 5px;">⊲nsubj</text><text id="text-dep_4_6" class="deprel-label" transform="translate(865,-30)" y="-1" text-anchor="middle" dominant-baseline="central" style="cursor: pointer; text-shadow: rgb(255, 255, 255) 1px 1px 5px;">⊲nsubj</text><text id="text-dep_5_6" class="deprel-label" transform="translate(933.75,35)" y="-1" text-anchor="middle" dominant-baseline="central" style="cursor: pointer; text-shadow: rgb(255, 255, 255) 1px 1px 5px;">⊲iobj</text><text id="text-dep_6_8" class="deprel-label" transform="translate(1177.75,-30)" y="-1" text-anchor="middle" dominant-baseline="central" style="cursor: pointer; text-shadow: rgb(255, 255, 255) 1px 1px 5px;">⊲ccomp</text><text id="text-dep_7_6" class="deprel-label" transform="translate(1116.5,35)" y="-1" text-anchor="middle" dominant-baseline="central" style="cursor: pointer; text-shadow: rgb(255, 255, 255) 1px 1px 5px;">mark⊳</text><text x="1336.5" y="-203.5" class="root-deprel-label" text-anchor="middle" dominant-baseline="central" style="text-shadow: rgb(255, 255, 255) 1px 1px 5px;">ROOT</text></g></svg>