<svg xmlns="http://www.w3.org/2000/svg" width="1792" height="679" id="graph-svg" style="background: white none repeat scroll 0% 0%; font-family: Arial; font-size: 20px;"><g id="graph-g" transform="translate(66.74477568476914,200.10488231936276) scale(0.9659363289248455)"><rect width="349" height="110" x="456" y="80" class="multiword" subId="0" rx="5" ry="5" style="cursor: pointer; fill: rgb(188, 210, 255); stroke: rgb(0, 0, 0); stroke-width: 2px;"/><rect width="286" height="110" x="180" y="80" class="multiword" subId="0" rx="5" ry="5" style="cursor: pointer; fill: rgb(188, 210, 255); stroke: rgb(0, 0, 0); stroke-width: 2px;"/><svg id="token-0" width="124.48333549499512" height="70" y="100" style="overflow: visible; cursor: pointer;" x="200"><line x1="62.24166774749756" y1="30" x2="62.24166774749756" y2="40" class="pos-edge" style="stroke: rgb(72, 72, 72); stroke-width: 3px;"/><svg x="103.36666870117188" width="21.116666793823242" height="30" style="overflow: visible;"><path d="M0,0h16.116666793823242a5,5 0 0 1 5,5v20a5,5 0 0 1 -5,5h-16.116666793823242z" class="tokenNum" style="fill: rgb(175, 162, 255); stroke: rgb(0, 0, 0); stroke-width: 2px;"/><text class="tokenNum-label" x="50%" y="50%" text-anchor="middle" dominant-baseline="central">1</text></svg><svg width="103.36666870117188" height="30" id="group-0" class="token" subId="0" style="overflow: visible;"><path d="M103.36666870117188,0h-98.36666870117188a5,5 1 0 0 -5,5v20a5,5 1 0 0 5,5h98.36666870117188z" id="form-0" attr="form" subId="0" class="form" num="1" style="fill: rgb(127, 161, 255); stroke: rgb(0, 0, 0); stroke-width: 2px;"/><text x="50%" y="50%" text-anchor="middle" dominant-baseline="central" id="text-form-0" class="form-label">Laluramke</text></svg><svg x="27.791666984558105" y="40" width="68.9000015258789" height="30" style="overflow: visible;"><rect width="68.9000015258789" height="30" id="pos-0" class="pos" attr="upostag" subId="0" rx="5" ry="5" style="fill: rgb(175, 162, 255); stroke: rgb(0, 0, 0); stroke-width: 2px;"/><text x="50%" y="50%" class="pos-label" id="text-pos-0" text-anchor="middle" dominant-baseline="central">NOUN</text></svg></svg><svg id="token-1" width="41.11666679382324" height="70" y="100" style="overflow: visible; cursor: pointer;" x="405.06666412353525"><line x1="20.55833339691162" y1="30" x2="20.55833339691162" y2="40" class="pos-edge" style="stroke: rgb(72, 72, 72); stroke-width: 3px;"/><svg x="20" width="21.116666793823242" height="30" style="overflow: visible;"><path d="M0,0h16.116666793823242a5,5 0 0 1 5,5v20a5,5 0 0 1 -5,5h-16.116666793823242z" class="tokenNum" style="fill: rgb(175, 162, 255); stroke: rgb(0, 0, 0); stroke-width: 2px;"/><text class="tokenNum-label" x="50%" y="50%" text-anchor="middle" dominant-baseline="central">2</text></svg><svg width="20" height="30" id="group-1" class="token" subId="1" style="overflow: visible;"><path d="M20,0h-15a5,5 1 0 0 -5,5v20a5,5 1 0 0 5,5h15z" id="form-1" attr="form" subId="1" class="form" num="2" style="fill: rgb(127, 161, 255); stroke: rgb(0, 0, 0); stroke-width: 2px;"/><text x="50%" y="50%" text-anchor="middle" dominant-baseline="central" id="text-form-1" class="form-label">k</text></svg><svg x="0.5583333969116211" y="40" width="40" height="30" style="overflow: visible;"><rect width="40" height="30" id="pos-1" class="pos" attr="upostag" subId="1" rx="5" ry="5" style="fill: rgb(175, 162, 255); stroke: rgb(0, 0, 0); stroke-width: 2px;"/><text x="50%" y="50%" class="pos-label" id="text-pos-1" text-anchor="middle" dominant-baseline="central">X</text></svg></svg><svg id="token-2" width="101.11666679382324" height="70" y="100" style="overflow: visible; cursor: pointer;" x="476.06666412353525"><line x1="50.55833339691162" y1="30" x2="50.55833339691162" y2="40" class="pos-edge" style="stroke: rgb(72, 72, 72); stroke-width: 3px;"/><svg x="80" width="21.116666793823242" height="30" style="overflow: visible;"><path d="M0,0h16.116666793823242a5,5 0 0 1 5,5v20a5,5 0 0 1 -5,5h-16.116666793823242z" class="tokenNum root" style="fill: rgb(175, 162, 255); stroke: rgb(0, 0, 0); stroke-width: 4px;"/><text class="tokenNum-label root" x="50%" y="50%" text-anchor="middle" dominant-baseline="central" style="font-weight: 700;">3</text></svg><svg width="80" height="30" id="group-2" class="token" subId="2" style="overflow: visible;"><path d="M80,0h-75a5,5 1 0 0 -5,5v20a5,5 1 0 0 5,5h75z" id="form-2" attr="form" subId="2" class="form root" num="3" style="fill: rgb(127, 161, 255); stroke: rgb(0, 0, 0); stroke-width: 4px;"/><text x="50%" y="50%" text-anchor="middle" dominant-baseline="central" id="text-form-2" class="form-label root" style="font-weight: 700;">iyatagh</text></svg><svg x="18.333333015441895" y="40" width="64.45000076293945" height="30" style="overflow: visible;"><rect width="64.45000076293945" height="30" id="pos-2" class="pos" attr="upostag" subId="2" rx="5" ry="5" style="fill: rgb(175, 162, 255); stroke: rgb(0, 0, 0); stroke-width: 2px;"/><text x="50%" y="50%" class="pos-label" id="text-pos-2" text-anchor="middle" dominant-baseline="central">VERB</text></svg></svg><svg id="token-3" width="47.78333282470703" height="70" y="100" style="overflow: visible; cursor: pointer;" x="666.5666641235352"><line x1="23.891666412353516" y1="30" x2="23.891666412353516" y2="40" class="pos-edge" style="stroke: rgb(72, 72, 72); stroke-width: 3px;"/><svg x="26.66666603088379" width="21.116666793823242" height="30" style="overflow: visible;"><path d="M0,0h16.116666793823242a5,5 0 0 1 5,5v20a5,5 0 0 1 -5,5h-16.116666793823242z" class="tokenNum" style="fill: rgb(175, 162, 255); stroke: rgb(0, 0, 0); stroke-width: 2px;"/><text class="tokenNum-label" x="50%" y="50%" text-anchor="middle" dominant-baseline="central">4</text></svg><svg width="26.66666603088379" height="30" id="group-3" class="token" subId="3" style="overflow: visible;"><path d="M26.66666603088379,0h-21.66666603088379a5,5 1 0 0 -5,5v20a5,5 1 0 0 5,5h21.66666603088379z" id="form-3" attr="form" subId="3" class="form" num="4" style="fill: rgb(127, 161, 255); stroke: rgb(0, 0, 0); stroke-width: 2px;"/><text x="50%" y="50%" text-anchor="middle" dominant-baseline="central" id="text-form-3" class="form-label">tu</text></svg><svg x="3.8916664123535156" y="40" width="40" height="30" style="overflow: visible;"><rect width="40" height="30" id="pos-3" class="pos" attr="upostag" subId="3" rx="5" ry="5" style="fill: rgb(175, 162, 255); stroke: rgb(0, 0, 0); stroke-width: 2px;"/><text x="50%" y="50%" class="pos-label" id="text-pos-3" text-anchor="middle" dominant-baseline="central">X</text></svg></svg><svg id="token-4" width="41.11666679382324" height="70" y="100" style="overflow: visible; cursor: pointer;" x="744.5666641235352"><line x1="20.55833339691162" y1="30" x2="20.55833339691162" y2="40" class="pos-edge" style="stroke: rgb(72, 72, 72); stroke-width: 3px;"/><svg x="20" width="21.116666793823242" height="30" style="overflow: visible;"><path d="M0,0h16.116666793823242a5,5 0 0 1 5,5v20a5,5 0 0 1 -5,5h-16.116666793823242z" class="tokenNum" style="fill: rgb(175, 162, 255); stroke: rgb(0, 0, 0); stroke-width: 2px;"/><text class="tokenNum-label" x="50%" y="50%" text-anchor="middle" dominant-baseline="central">5</text></svg><svg width="20" height="30" id="group-4" class="token" subId="4" style="overflow: visible;"><path d="M20,0h-15a5,5 1 0 0 -5,5v20a5,5 1 0 0 5,5h15z" id="form-4" attr="form" subId="4" class="form" num="5" style="fill: rgb(127, 161, 255); stroke: rgb(0, 0, 0); stroke-width: 2px;"/><text x="50%" y="50%" text-anchor="middle" dominant-baseline="central" id="text-form-4" class="form-label">k</text></svg><svg x="0.5583333969116211" y="40" width="40" height="30" style="overflow: visible;"><rect width="40" height="30" id="pos-4" class="pos" attr="upostag" subId="4" rx="5" ry="5" style="fill: rgb(175, 162, 255); stroke: rgb(0, 0, 0); stroke-width: 2px;"/><text x="50%" y="50%" class="pos-label" id="text-pos-4" text-anchor="middle" dominant-baseline="central">X</text></svg></svg><svg id="token-5" width="41.11666679382324" height="70" y="100" style="overflow: visible; cursor: pointer;" x="834.5666641235352"><line x1="20.55833339691162" y1="30" x2="20.55833339691162" y2="40" class="pos-edge" style="stroke: rgb(72, 72, 72); stroke-width: 3px;"/><svg x="20" width="21.116666793823242" height="30" style="overflow: visible;"><path d="M0,0h16.116666793823242a5,5 0 0 1 5,5v20a5,5 0 0 1 -5,5h-16.116666793823242z" class="tokenNum" style="fill: rgb(175, 162, 255); stroke: rgb(0, 0, 0); stroke-width: 2px;"/><text class="tokenNum-label" x="50%" y="50%" text-anchor="middle" dominant-baseline="central">6</text></svg><svg width="20" height="30" id="group-5" class="token" subId="5" style="overflow: visible;"><path d="M20,0h-15a5,5 1 0 0 -5,5v20a5,5 1 0 0 5,5h15z" id="form-5" attr="form" subId="5" class="form" num="6" style="fill: rgb(127, 161, 255); stroke: rgb(0, 0, 0); stroke-width: 2px;"/><text x="50%" y="50%" text-anchor="middle" dominant-baseline="central" id="text-form-5" class="form-label">.</text></svg><svg x="-18.891667366027832" y="40" width="78.9000015258789" height="30" style="overflow: visible;"><rect width="78.9000015258789" height="30" id="pos-5" class="pos" attr="upostag" subId="5" rx="5" ry="5" style="fill: rgb(175, 162, 255); stroke: rgb(0, 0, 0); stroke-width: 2px;"/><text x="50%" y="50%" class="pos-label" id="text-pos-5" text-anchor="middle" dominant-baseline="central">PUNCT</text></svg></svg><defs><marker id="end" viewBox="0 -5 10 10" refX="2" refY="2" markerWidth="15" markerHeight="15" orient="auto" style="fill: rgb(17, 17, 17);"><path d="M 1 1 L 3 2 L 1 3 Z"/></marker></defs><svg x="250.89167022705078" y="50" width="144.21665954589844" height="30" style="overflow: visible;"><rect width="144.21665954589844" height="30" class="multiword-label" style="fill: rgb(127, 161, 255); stroke: rgb(0, 0, 0); stroke-width: 2px;"/><text x="50%" y="50%" text-anchor="middle" dominant-baseline="central">Laluramkek ₁₋₂</text></svg><svg x="564.5083351135254" y="50" width="131.98332977294922" height="30" style="overflow: visible;"><rect width="131.98332977294922" height="30" class="multiword-label" style="fill: rgb(127, 161, 255); stroke: rgb(0, 0, 0); stroke-width: 2px;"/><text x="50%" y="50%" text-anchor="middle" dominant-baseline="central">iyataghtuk ₃₋₅</text></svg><path class="dependency" attr="deprel" style="stroke-width: 4px; fill: none; stroke: rgb(17, 17, 17); opacity: 0.766;" marker-end="url(#end)" d="M 511.5,100 L 501,35 C 490.5,-30 475.8,-30 461.1,-30 L 461.1,-30 422.5,-30M 351,-30 L 312.4,-30 C297.7,-30 283,-30 272.5,35 L262,94" id="dep_0_2" num="7"/><path class="dependency" attr="deprel" style="stroke-width: 4px; fill: none; stroke: rgb(17, 17, 17); opacity: 0.766;" marker-end="url(#end)" d="M 277,100 L 282.25,67.5 C 287.5,35 294.85,35 302.20000000000005,35 L 302.20000000000005,35 307.1666679382324,35M 395.3333320617676,35 L 400.29999999999995,35 C407.65,35 415,35 420.25,67.5 L425.5,94" id="dep_1_0" num="8"/><path class="dependency" attr="deprel" style="stroke-width: 4px; fill: none; stroke: rgb(17, 17, 17); opacity: 0.766;" marker-end="url(#end)" d="M 541.5,100 L 546.75,67.5 C 552,35 559.35,35 566.7,35 L 566.7,35 571.4166679382324,35M 659.5833320617676,35 L 664.3,35 C671.65,35 679,35 684.25,67.5 L689.5,94" id="dep_3_2" num="9"/><path class="dependency" attr="deprel" style="stroke-width: 4px; fill: none; stroke: rgb(17, 17, 17); opacity: 0.766;" marker-end="url(#end)" d="M 541.5,100 L 552,35 C 562.5,-30 577.2,-30 591.9000000000001,-30 L 591.9000000000001,-30 608.9166679382324,-30M 697.0833320617676,-30 L 714.0999999999999,-30 C728.8,-30 743.5,-30 754,35 L764.5,94" id="dep_4_2" num="10"/><path class="dependency" attr="deprel" style="stroke-width: 4px; fill: none; stroke: rgb(17, 17, 17); opacity: 0.766;" marker-end="url(#end)" d="M 541.5,100 L 557.25,2.5 C 573,-95 595.05,-95 617.0999999999999,-95 L 617.0999999999999,-95 661.7000007629395,-95M 734.2999992370605,-95 L 778.9000000000001,-95 C800.95,-95 823,-95 838.75,2.5 L854.5,94" id="dep_5_2" num="11"/><line x1="526.5" y1="-127.5" x2="526.5" y2="93" class="root-deprel" marker-end="url(#end)" style="stroke: rgb(17, 17, 17); opacity: 0.766; stroke-width: 4px;"/><text id="text-dep_0_2" class="deprel-label" style="cursor: pointer; text-shadow: rgb(255, 255, 255) 1px 1px 5px;" transform="translate(386.75,-30)" y="-1" text-anchor="middle" dominant-baseline="central">⊲nsubj</text><text id="text-dep_1_0" class="deprel-label" style="cursor: pointer; text-shadow: rgb(255, 255, 255) 1px 1px 5px;" transform="translate(351.25,35)" y="-1" text-anchor="middle" dominant-baseline="central">dep:infl⊳</text><text id="text-dep_3_2" class="deprel-label" style="cursor: pointer; text-shadow: rgb(255, 255, 255) 1px 1px 5px;" transform="translate(615.5,35)" y="-1" text-anchor="middle" dominant-baseline="central">dep:infl⊳</text><text id="text-dep_4_2" class="deprel-label" style="cursor: pointer; text-shadow: rgb(255, 255, 255) 1px 1px 5px;" transform="translate(653,-30)" y="-1" text-anchor="middle" dominant-baseline="central">dep:infl⊳</text><text id="text-dep_5_2" class="deprel-label" style="cursor: pointer; text-shadow: rgb(255, 255, 255) 1px 1px 5px;" transform="translate(698,-95)" y="-1" text-anchor="middle" dominant-baseline="central">punct⊳</text><text x="526.5" y="-138.5" class="root-deprel-label" text-anchor="middle" dominant-baseline="central" style="text-shadow: rgb(255, 255, 255) 1px 1px 5px;">ROOT</text></g></svg>