<svg xmlns="http://www.w3.org/2000/svg" width="1792" height="679" id="graph-svg" style="background: white none repeat scroll 0% 0%; font-family: Arial; font-size: 20px;"><g id="graph-g" transform="translate(-43.64139796529014,215.89433140800503) scale(0.8179020585577823)"><rect width="587" height="110" x="434" y="80" class="multiword" subId="0" rx="5" ry="5" style="cursor: pointer; fill: rgb(188, 210, 255); stroke: rgb(0, 0, 0); stroke-width: 2px;"/><rect width="260" height="110" x="183" y="80" class="multiword" subId="0" rx="5" ry="5" style="cursor: pointer; fill: rgb(188, 210, 255); stroke: rgb(0, 0, 0); stroke-width: 2px;"/><svg id="token-0" width="61.14184379577637" height="70" y="100" style="overflow: visible; cursor: pointer;" x="203.84376430511475"><line x1="30.570921897888184" y1="30" x2="30.570921897888184" y2="40" class="pos-edge" style="stroke: rgb(72, 72, 72); stroke-width: 3px;"/><svg x="40.015817642211914" width="21.126026153564453" height="30" style="overflow: visible;"><path d="M0,0h16.126026153564453a5,5 0 0 1 5,5v20a5,5 0 0 1 -5,5h-16.126026153564453z" class="tokenNum" style="fill: rgb(175, 162, 255); stroke: rgb(0, 0, 0); stroke-width: 2px;"/><text class="tokenNum-label" x="50%" y="50%" text-anchor="middle" dominant-baseline="central">1</text></svg><svg width="40.015817642211914" height="30" id="group-0" class="token" subId="0" style="overflow: visible;"><path d="M40.015817642211914,0h-35.015817642211914a5,5 1 0 0 -5,5v20a5,5 1 0 0 5,5h35.015817642211914z" id="form-0" attr="form" subId="0" class="form" num="1" style="fill: rgb(127, 161, 255); stroke: rgb(0, 0, 0); stroke-width: 2px;"/><text x="50%" y="50%" text-anchor="middle" dominant-baseline="central" id="text-form-0" class="form-label">Ata</text></svg><svg x="-3.843764305114746" y="40" width="68.82937240600586" height="30" style="overflow: visible;"><rect width="68.82937240600586" height="30" id="pos-0" class="pos" attr="upostag" subId="0" rx="5" ry="5" style="fill: rgb(175, 162, 255); stroke: rgb(0, 0, 0); stroke-width: 2px;"/><text x="50%" y="50%" class="pos-label" id="text-pos-0" text-anchor="middle" dominant-baseline="central">NOUN</text></svg></svg><svg id="token-1" width="52.236948013305664" height="70" y="100" style="overflow: visible; cursor: pointer;" x="371.10822143554697"><line x1="26.118474006652832" y1="30" x2="26.118474006652832" y2="40" class="pos-edge" style="stroke: rgb(72, 72, 72); stroke-width: 3px;"/><svg x="31.11092185974121" width="21.126026153564453" height="30" style="overflow: visible;"><path d="M0,0h16.126026153564453a5,5 0 0 1 5,5v20a5,5 0 0 1 -5,5h-16.126026153564453z" class="tokenNum" style="fill: rgb(175, 162, 255); stroke: rgb(0, 0, 0); stroke-width: 2px;"/><text class="tokenNum-label" x="50%" y="50%" text-anchor="middle" dominant-baseline="central">2</text></svg><svg width="31.11092185974121" height="30" id="group-1" class="token" subId="1" style="overflow: visible;"><path d="M31.11092185974121,0h-26.11092185974121a5,5 1 0 0 -5,5v20a5,5 1 0 0 5,5h26.11092185974121z" id="form-1" attr="form" subId="1" class="form" num="2" style="fill: rgb(127, 161, 255); stroke: rgb(0, 0, 0); stroke-width: 2px;"/><text x="50%" y="50%" text-anchor="middle" dominant-baseline="central" id="text-form-1" class="form-label">ka</text></svg><svg x="6.118474006652832" y="40" width="40" height="30" style="overflow: visible;"><rect width="40" height="30" id="pos-1" class="pos" attr="upostag" subId="1" rx="5" ry="5" style="fill: rgb(175, 162, 255); stroke: rgb(0, 0, 0); stroke-width: 2px;"/><text x="50%" y="50%" class="pos-label" id="text-pos-1" text-anchor="middle" dominant-baseline="central">X</text></svg></svg><svg id="token-2" width="85.61502456665039" height="70" y="100" style="overflow: visible; cursor: pointer;" x="454.10822143554697"><line x1="42.807512283325195" y1="30" x2="42.807512283325195" y2="40" class="pos-edge" style="stroke: rgb(72, 72, 72); stroke-width: 3px;"/><svg x="64.48899841308594" width="21.126026153564453" height="30" style="overflow: visible;"><path d="M0,0h16.126026153564453a5,5 0 0 1 5,5v20a5,5 0 0 1 -5,5h-16.126026153564453z" class="tokenNum" style="fill: rgb(175, 162, 255); stroke: rgb(0, 0, 0); stroke-width: 2px;"/><text class="tokenNum-label" x="50%" y="50%" text-anchor="middle" dominant-baseline="central">3</text></svg><svg width="64.48899841308594" height="30" id="group-2" class="token" subId="2" style="overflow: visible;"><path d="M64.48899841308594,0h-59.48899841308594a5,5 1 0 0 -5,5v20a5,5 1 0 0 5,5h59.48899841308594z" id="form-2" attr="form" subId="2" class="form" num="3" style="fill: rgb(127, 161, 255); stroke: rgb(0, 0, 0); stroke-width: 2px;"/><text x="50%" y="50%" text-anchor="middle" dominant-baseline="central" id="text-form-2" class="form-label">angya</text></svg><svg x="8.392826080322266" y="40" width="68.82937240600586" height="30" style="overflow: visible;"><rect width="68.82937240600586" height="30" id="pos-2" class="pos" attr="upostag" subId="2" rx="5" ry="5" style="fill: rgb(175, 162, 255); stroke: rgb(0, 0, 0); stroke-width: 2px;"/><text x="50%" y="50%" class="pos-label" id="text-pos-2" text-anchor="middle" dominant-baseline="central">NOUN</text></svg></svg><svg id="token-3" width="73.38862228393555" height="70" y="100" style="overflow: visible; cursor: pointer;" x="609.1199325561524"><line x1="36.69431114196777" y1="30" x2="36.69431114196777" y2="40" class="pos-edge" style="stroke: rgb(72, 72, 72); stroke-width: 3px;"/><svg x="52.262596130371094" width="21.126026153564453" height="30" style="overflow: visible;"><path d="M0,0h16.126026153564453a5,5 0 0 1 5,5v20a5,5 0 0 1 -5,5h-16.126026153564453z" class="tokenNum" style="fill: rgb(175, 162, 255); stroke: rgb(0, 0, 0); stroke-width: 2px;"/><text class="tokenNum-label" x="50%" y="50%" text-anchor="middle" dominant-baseline="central">4</text></svg><svg width="52.262596130371094" height="30" id="group-3" class="token" subId="3" style="overflow: visible;"><path d="M52.262596130371094,0h-47.262596130371094a5,5 1 0 0 -5,5v20a5,5 1 0 0 5,5h47.262596130371094z" id="form-3" attr="form" subId="3" class="form" num="4" style="fill: rgb(127, 161, 255); stroke: rgb(0, 0, 0); stroke-width: 2px;"/><text x="50%" y="50%" text-anchor="middle" dominant-baseline="central" id="text-form-3" class="form-label">ghlla</text></svg><svg x="2.2796249389648438" y="40" width="68.82937240600586" height="30" style="overflow: visible;"><rect width="68.82937240600586" height="30" id="pos-3" class="pos" attr="upostag" subId="3" rx="5" ry="5" style="fill: rgb(175, 162, 255); stroke: rgb(0, 0, 0); stroke-width: 2px;"/><text x="50%" y="50%" class="pos-label" id="text-pos-3" text-anchor="middle" dominant-baseline="central">NOUN</text></svg></svg><svg id="token-4" width="61.10108947753906" height="70" y="100" style="overflow: visible; cursor: pointer;" x="714.1199325561524"><line x1="30.55054473876953" y1="30" x2="30.55054473876953" y2="40" class="pos-edge" style="stroke: rgb(72, 72, 72); stroke-width: 3px;"/><svg x="39.97506332397461" width="21.126026153564453" height="30" style="overflow: visible;"><path d="M0,0h16.126026153564453a5,5 0 0 1 5,5v20a5,5 0 0 1 -5,5h-16.126026153564453z" class="tokenNum root" style="fill: rgb(175, 162, 255); stroke: rgb(0, 0, 0); stroke-width: 4px;"/><text class="tokenNum-label root" x="50%" y="50%" text-anchor="middle" dominant-baseline="central" style="font-weight: 700;">5</text></svg><svg width="39.97506332397461" height="30" id="group-4" class="token" subId="4" style="overflow: visible;"><path d="M39.97506332397461,0h-34.97506332397461a5,5 1 0 0 -5,5v20a5,5 1 0 0 5,5h34.97506332397461z" id="form-4" attr="form" subId="4" class="form root" num="5" style="fill: rgb(127, 161, 255); stroke: rgb(0, 0, 0); stroke-width: 4px;"/><text x="50%" y="50%" text-anchor="middle" dominant-baseline="central" id="text-form-4" class="form-label root" style="font-weight: 700;">lgu</text></svg><svg x="-1.6532001495361328" y="40" width="64.40748977661133" height="30" style="overflow: visible;"><rect width="64.40748977661133" height="30" id="pos-4" class="pos" attr="upostag" subId="4" rx="5" ry="5" style="fill: rgb(175, 162, 255); stroke: rgb(0, 0, 0); stroke-width: 2px;"/><text x="50%" y="50%" class="pos-label" id="text-pos-4" text-anchor="middle" dominant-baseline="central">VERB</text></svg></svg><svg id="token-5" width="42.252052307128906" height="70" y="100" style="overflow: visible; cursor: pointer;" x="887.108221435547"><line x1="21.126026153564453" y1="30" x2="21.126026153564453" y2="40" class="pos-edge" style="stroke: rgb(72, 72, 72); stroke-width: 3px;"/><svg x="21.126026153564453" width="21.126026153564453" height="30" style="overflow: visible;"><path d="M0,0h16.126026153564453a5,5 0 0 1 5,5v20a5,5 0 0 1 -5,5h-16.126026153564453z" class="tokenNum" style="fill: rgb(175, 162, 255); stroke: rgb(0, 0, 0); stroke-width: 2px;"/><text class="tokenNum-label" x="50%" y="50%" text-anchor="middle" dominant-baseline="central">6</text></svg><svg width="21.126026153564453" height="30" id="group-5" class="token" subId="5" style="overflow: visible;"><path d="M21.126026153564453,0h-16.126026153564453a5,5 1 0 0 -5,5v20a5,5 1 0 0 5,5h16.126026153564453z" id="form-5" attr="form" subId="5" class="form" num="6" style="fill: rgb(127, 161, 255); stroke: rgb(0, 0, 0); stroke-width: 2px;"/><text x="50%" y="50%" text-anchor="middle" dominant-baseline="central" id="text-form-5" class="form-label">u</text></svg><svg x="1.1260261535644531" y="40" width="40" height="30" style="overflow: visible;"><rect width="40" height="30" id="pos-5" class="pos" attr="upostag" subId="5" rx="5" ry="5" style="fill: rgb(175, 162, 255); stroke: rgb(0, 0, 0); stroke-width: 2px;"/><text x="50%" y="50%" class="pos-label" id="text-pos-5" text-anchor="middle" dominant-baseline="central">X</text></svg></svg><svg id="token-6" width="42.252052307128906" height="70" y="100" style="overflow: visible; cursor: pointer;" x="959.108221435547"><line x1="21.126026153564453" y1="30" x2="21.126026153564453" y2="40" class="pos-edge" style="stroke: rgb(72, 72, 72); stroke-width: 3px;"/><svg x="21.126026153564453" width="21.126026153564453" height="30" style="overflow: visible;"><path d="M0,0h16.126026153564453a5,5 0 0 1 5,5v20a5,5 0 0 1 -5,5h-16.126026153564453z" class="tokenNum" style="fill: rgb(175, 162, 255); stroke: rgb(0, 0, 0); stroke-width: 2px;"/><text class="tokenNum-label" x="50%" y="50%" text-anchor="middle" dominant-baseline="central">7</text></svg><svg width="21.126026153564453" height="30" id="group-6" class="token" subId="6" style="overflow: visible;"><path d="M21.126026153564453,0h-16.126026153564453a5,5 1 0 0 -5,5v20a5,5 1 0 0 5,5h16.126026153564453z" id="form-6" attr="form" subId="6" class="form" num="7" style="fill: rgb(127, 161, 255); stroke: rgb(0, 0, 0); stroke-width: 2px;"/><text x="50%" y="50%" text-anchor="middle" dominant-baseline="central" id="text-form-6" class="form-label">q</text></svg><svg x="1.1260261535644531" y="40" width="40" height="30" style="overflow: visible;"><rect width="40" height="30" id="pos-6" class="pos" attr="upostag" subId="6" rx="5" ry="5" style="fill: rgb(175, 162, 255); stroke: rgb(0, 0, 0); stroke-width: 2px;"/><text x="50%" y="50%" class="pos-label" id="text-pos-6" text-anchor="middle" dominant-baseline="central">X</text></svg></svg><svg id="token-7" width="41.12602615356445" height="70" y="100" style="overflow: visible; cursor: pointer;" x="1050.108221435547"><line x1="20.563013076782227" y1="30" x2="20.563013076782227" y2="40" class="pos-edge" style="stroke: rgb(72, 72, 72); stroke-width: 3px;"/><svg x="20" width="21.126026153564453" height="30" style="overflow: visible;"><path d="M0,0h16.126026153564453a5,5 0 0 1 5,5v20a5,5 0 0 1 -5,5h-16.126026153564453z" class="tokenNum" style="fill: rgb(175, 162, 255); stroke: rgb(0, 0, 0); stroke-width: 2px;"/><text class="tokenNum-label" x="50%" y="50%" text-anchor="middle" dominant-baseline="central">8</text></svg><svg width="20" height="30" id="group-7" class="token" subId="7" style="overflow: visible;"><path d="M20,0h-15a5,5 1 0 0 -5,5v20a5,5 1 0 0 5,5h15z" id="form-7" attr="form" subId="7" class="form" num="8" style="fill: rgb(127, 161, 255); stroke: rgb(0, 0, 0); stroke-width: 2px;"/><text x="50%" y="50%" text-anchor="middle" dominant-baseline="central" id="text-form-7" class="form-label">.</text></svg><svg x="-18.8441219329834" y="40" width="78.81427001953125" height="30" style="overflow: visible;"><rect width="78.81427001953125" height="30" id="pos-7" class="pos" attr="upostag" subId="7" rx="5" ry="5" style="fill: rgb(175, 162, 255); stroke: rgb(0, 0, 0); stroke-width: 2px;"/><text x="50%" y="50%" class="pos-label" id="text-pos-7" text-anchor="middle" dominant-baseline="central">PUNCT</text></svg></svg><defs><marker id="end" viewBox="0 -5 10 10" refX="2" refY="2" markerWidth="15" markerHeight="15" orient="auto" style="fill: rgb(17, 17, 17);"><path d="M 1 1 L 3 2 L 1 3 Z"/></marker></defs><svg x="267.0007972717285" y="50" width="91.99840545654297" height="30" style="overflow: visible;"><rect width="91.99840545654297" height="30" class="multiword-label" style="fill: rgb(127, 161, 255); stroke: rgb(0, 0, 0); stroke-width: 2px;"/><text x="50%" y="50%" text-anchor="middle" dominant-baseline="central">Ataka ₁₋₂</text></svg><svg x="634.2151870727539" y="50" width="186.5696258544922" height="30" style="overflow: visible;"><rect width="186.5696258544922" height="30" class="multiword-label" style="fill: rgb(127, 161, 255); stroke: rgb(0, 0, 0); stroke-width: 2px;"/><text x="50%" y="50%" text-anchor="middle" dominant-baseline="central">angyaghllalguuq ₃₋₇</text></svg><path class="dependency" attr="deprel" style="stroke-width: 4px; fill: none; stroke: rgb(17, 17, 17); opacity: 0.766;" marker-end="url(#end)" d="M 729.5,100 L 713.75,2.5 C 698,-95 675.95,-95 653.9000000000001,-95 L 653.9000000000001,-95 517.2494010925293,-95M 445.7505989074707,-95 L 309.1,-95 C287.05,-95 265,-95 249.25,2.5 L233.5,94" id="dep_0_4" num="9"/><path class="dependency" attr="deprel" style="stroke-width: 4px; fill: none; stroke: rgb(17, 17, 17); opacity: 0.766;" marker-end="url(#end)" d="M 248.5,100 L 253.75,67.5 C 259,35 266.35,35 273.70000000000005,35 L 273.70000000000005,35 278.64588928222656,35M 366.85411071777344,35 L 371.79999999999995,35 C379.15,35 386.5,35 391.75,67.5 L397,94" id="dep_1_0" num="10"/><path class="dependency" attr="deprel" style="stroke-width: 4px; fill: none; stroke: rgb(17, 17, 17); opacity: 0.766;" marker-end="url(#end)" d="M 729.5,100 L 719,35 C 708.5,-30 693.8,-30 679.0999999999999,-30 L 679.0999999999999,-30 638.193941116333,-30M 587.806058883667,-30 L 546.9000000000001,-30 C532.2,-30 517.5,-30 507,35 L496.5,94" id="dep_2_4" num="11"/><path class="dependency" attr="deprel" style="stroke-width: 4px; fill: none; stroke: rgb(17, 17, 17); opacity: 0.766;" marker-end="url(#end)" d="M 511.5,100 L 516.75,67.5 C 522,35 529.35,35 536.7,35 L 536.7,35 541.6400337219238,35M 615.3599662780762,35 L 620.3,35 C627.65,35 635,35 640.25,67.5 L645.5,94" id="dep_3_2" num="12"/><path class="dependency" attr="deprel" style="stroke-width: 4px; fill: none; stroke: rgb(17, 17, 17); opacity: 0.766;" marker-end="url(#end)" d="M 759.5,100 L 764.75,67.5 C 770,35 777.35,35 784.7,35 L 784.7,35 789.6458892822266,35M 877.8541107177734,35 L 882.8,35 C890.15,35 897.5,35 902.75,67.5 L908,94" id="dep_5_4" num="13"/><path class="dependency" attr="deprel" style="stroke-width: 4px; fill: none; stroke: rgb(17, 17, 17); opacity: 0.766;" marker-end="url(#end)" d="M 759.5,100 L 770,35 C 780.5,-30 795.2,-30 809.9000000000001,-30 L 809.9000000000001,-30 825.6458892822266,-30M 913.8541107177734,-30 L 929.5999999999999,-30 C944.3,-30 959,-30 969.5,35 L980,94" id="dep_6_4" num="14"/><path class="dependency" attr="deprel" style="stroke-width: 4px; fill: none; stroke: rgb(17, 17, 17); opacity: 0.766;" marker-end="url(#end)" d="M 759.5,100 L 775.25,2.5 C 791,-95 813.05,-95 835.0999999999999,-95 L 835.0999999999999,-95 878.690221786499,-95M 951.309778213501,-95 L 994.9000000000001,-95 C1016.95,-95 1039,-95 1054.75,2.5 L1070.5,94" id="dep_7_4" num="15"/><line x1="744.5" y1="-127.5" x2="744.5" y2="93" class="root-deprel" marker-end="url(#end)" style="stroke: rgb(17, 17, 17); opacity: 0.766; stroke-width: 4px;"/><text id="text-dep_0_4" class="deprel-label" style="cursor: pointer; text-shadow: rgb(255, 255, 255) 1px 1px 5px;" transform="translate(481.5,-95)" y="-1" text-anchor="middle" dominant-baseline="central">⊲nsubj</text><text id="text-dep_1_0" class="deprel-label" style="cursor: pointer; text-shadow: rgb(255, 255, 255) 1px 1px 5px;" transform="translate(322.75,35)" y="-1" text-anchor="middle" dominant-baseline="central">dep:infl⊳</text><text id="text-dep_2_4" class="deprel-label" style="cursor: pointer; text-shadow: rgb(255, 255, 255) 1px 1px 5px;" transform="translate(613,-30)" y="-1" text-anchor="middle" dominant-baseline="central">⊲obj</text><text id="text-dep_3_2" class="deprel-label" style="cursor: pointer; text-shadow: rgb(255, 255, 255) 1px 1px 5px;" transform="translate(578.5,35)" y="-1" text-anchor="middle" dominant-baseline="central">nmod⊳</text><text id="text-dep_5_4" class="deprel-label" style="cursor: pointer; text-shadow: rgb(255, 255, 255) 1px 1px 5px;" transform="translate(833.75,35)" y="-1" text-anchor="middle" dominant-baseline="central">dep:infl⊳</text><text id="text-dep_6_4" class="deprel-label" style="cursor: pointer; text-shadow: rgb(255, 255, 255) 1px 1px 5px;" transform="translate(869.75,-30)" y="-1" text-anchor="middle" dominant-baseline="central">dep:infl⊳</text><text id="text-dep_7_4" class="deprel-label" style="cursor: pointer; text-shadow: rgb(255, 255, 255) 1px 1px 5px;" transform="translate(915,-95)" y="-1" text-anchor="middle" dominant-baseline="central">punct⊳</text><text x="744.5" y="-138.5" class="root-deprel-label" text-anchor="middle" dominant-baseline="central" style="text-shadow: rgb(255, 255, 255) 1px 1px 5px;">ROOT</text></g></svg>